<svg width="160" height="125" viewBox="0 0 160 125" fill="none" xmlns="http://www.w3.org/2000/svg">
<path d="M4.53078 111V80.368L3.41078 74.712L4.53078 71.352H17.9708C20.6961 71.352 23.1414 71.7813 25.3068 72.64C27.5095 73.4613 29.2455 74.88 30.5148 76.896C31.8215 78.8747 32.4748 81.6187 32.4748 85.128C32.4748 88.4507 31.8401 91.1013 30.5708 93.08C29.3388 95.0587 27.6214 96.5333 25.4188 97.504L27.0428 98.96L32.0268 104.784L35.2188 107.64V111H24.8588L17.0188 99.072H12.3708V101.984L12.9308 107.584L12.3708 111H4.53078ZM12.3708 91.96H17.8588C20.3228 91.96 22.0028 91.3253 22.8988 90.056C23.7948 88.7493 24.2428 87.1067 24.2428 85.128C24.2428 83.0373 23.7574 81.432 22.7868 80.312C21.8534 79.192 20.1361 78.632 17.6348 78.632H11.8108L12.3708 91.96ZM48.948 111.56C46.5213 111.56 44.356 111.131 42.452 110.272C40.548 109.413 39.0546 107.976 37.972 105.96C36.8893 103.944 36.348 101.219 36.348 97.784C36.348 94.4613 36.9266 91.792 38.084 89.776C39.2413 87.76 40.772 86.304 42.676 85.408C44.58 84.4747 46.6706 84.008 48.948 84.008C51.4493 84.008 53.4093 84.288 54.828 84.848C56.284 85.408 57.3853 85.9493 58.132 86.472L60.932 95.376L59.812 98.848H44.132C44.356 100.827 45.0653 102.413 46.26 103.608C47.4546 104.803 49.284 105.4 51.748 105.4C53.764 105.4 55.388 105.157 56.62 104.672C57.8893 104.187 58.7666 103.813 59.252 103.552V109.376C58.132 109.973 56.6946 110.496 54.94 110.944C53.2226 111.355 51.2253 111.56 48.948 111.56ZM44.076 95.264L52.476 94.144L51.636 90C51.3746 89.8507 51.0013 89.7387 50.516 89.664C50.068 89.5893 49.6573 89.552 49.284 89.552C47.604 89.552 46.316 90.1493 45.42 91.344C44.524 92.5013 44.076 93.808 44.076 95.264Z" fill="#3D9B35"/>
<path d="M65.3678 111V80.312L64.1918 74.712L65.3678 71.352H73.2078V111H65.3678ZM90.6745 111.56C88.2479 111.56 86.0825 111.131 84.1785 110.272C82.2745 109.413 80.7812 107.976 79.6985 105.96C78.6159 103.944 78.0745 101.219 78.0745 97.784C78.0745 94.4613 78.6532 91.792 79.8105 89.776C80.9679 87.76 82.4985 86.304 84.4025 85.408C86.3065 84.4747 88.3972 84.008 90.6745 84.008C93.1759 84.008 95.1359 84.288 96.5545 84.848C98.0105 85.408 99.1119 85.9493 99.8585 86.472L102.659 95.376L101.539 98.848H85.8585C86.0825 100.827 86.7919 102.413 87.9865 103.608C89.1812 104.803 91.0105 105.4 93.4745 105.4C95.4905 105.4 97.1145 105.157 98.3465 104.672C99.6159 104.187 100.493 103.813 100.979 103.552V109.376C99.8585 109.973 98.4212 110.496 96.6665 110.944C94.9492 111.355 92.9519 111.56 90.6745 111.56ZM85.8025 95.264L94.2025 94.144L93.3625 90C93.1012 89.8507 92.7279 89.7387 92.2425 89.664C91.7945 89.5893 91.3839 89.552 91.0105 89.552C89.3305 89.552 88.0425 90.1493 87.1465 91.344C86.2505 92.5013 85.8025 93.808 85.8025 95.264ZM114.542 111.56C112.041 111.56 109.913 110.925 108.158 109.656C106.441 108.349 105.582 106.333 105.582 103.608C105.582 100.733 106.497 98.5493 108.326 97.056C110.156 95.5253 112.601 94.76 115.662 94.76C117.902 94.76 119.601 94.9467 120.758 95.32C121.953 95.6933 122.737 95.9733 123.11 96.16L123.502 95.824C123.502 94.704 123.409 93.7147 123.222 92.856C123.036 91.9973 122.606 91.344 121.934 90.896C121.262 90.4107 120.217 90.168 118.798 90.168C116.26 90.168 113.982 90.3733 111.966 90.784C109.988 91.1947 108.42 91.568 107.262 91.904V85.744C108.42 85.3333 110.174 84.96 112.526 84.624C114.878 84.2507 117.417 84.064 120.142 84.064C122.457 84.064 124.342 84.3813 125.798 85.016C127.292 85.6133 128.43 86.4347 129.214 87.48C130.036 88.5253 130.596 89.6827 130.894 90.952C131.23 92.184 131.398 93.416 131.398 94.648V102.096L132.518 107.752L131.398 111.056H124.062V108.312L123.502 108.032C123.204 108.405 122.681 108.872 121.934 109.432C121.225 109.992 120.254 110.496 119.022 110.944C117.828 111.355 116.334 111.56 114.542 111.56ZM117.622 105.344C119.228 105.344 120.478 105.195 121.374 104.896C122.308 104.597 123.017 104.299 123.502 104V102.936C123.502 102.227 123.073 101.517 122.214 100.808C121.393 100.099 120.03 99.744 118.126 99.744C116.708 99.744 115.662 100.024 114.99 100.584C114.318 101.144 113.982 101.853 113.982 102.712C113.982 103.608 114.3 104.28 114.934 104.728C115.569 105.139 116.465 105.344 117.622 105.344ZM138.615 111V91.176L135.647 87.256L138.615 84.568C138.429 83.9333 138.279 83.0933 138.167 82.048C138.093 80.9653 138.055 80.088 138.055 79.416C138.055 76.2427 138.765 73.6667 140.183 71.688C141.639 69.672 144.029 68.664 147.351 68.664C148.397 68.664 149.498 68.72 150.655 68.832C151.85 68.9067 152.877 69.056 153.735 69.28L159.167 72.696L156.535 78.24L148.975 74.88C147.706 74.88 146.773 75.3653 146.175 76.336C145.578 77.2693 145.279 78.4453 145.279 79.864C145.279 80.7973 145.41 81.7493 145.671 82.72C145.933 83.6533 146.194 84.2693 146.455 84.568H155.415V89.608H146.455V101.928L147.015 107.584L146.455 111H138.615Z" fill="#14690C"/>
<path d="M30 33.9386C30 28.1749 34.6724 23.5026 40.436 23.5026H42.5233V44.3746H40.436C34.6724 44.3746 30 39.7023 30 33.9386Z" fill="#E8CC97"/>
<path d="M30 33.9384C30 29.3274 33.7379 25.5895 38.3488 25.5895H42.5233V44.3744H40.436C34.6724 44.3744 30 39.702 30 33.9384Z" fill="#7D4A3B"/>
<path d="M30 34.6344C30 31.9447 32.1804 29.7642 34.8702 29.7642H42.5233V44.3747H39.7403C34.3609 44.3747 30 40.0138 30 34.6344Z" fill="#B77562"/>
<path d="M126.011 33.9386C126.011 28.1749 121.339 23.5026 115.575 23.5026H113.488V44.3746H115.575C121.339 44.3746 126.011 39.7023 126.011 33.9386Z" fill="#E8CC97"/>
<path d="M126.012 33.9384C126.012 29.3274 122.274 25.5895 117.663 25.5895H113.488V44.3744H115.576C121.339 44.3744 126.012 39.702 126.012 33.9384Z" fill="#7D4A3B"/>
<path d="M126.012 34.6344C126.012 31.9447 123.831 29.7642 121.142 29.7642H113.488V44.3747H116.271C121.651 44.3747 126.012 40.0138 126.012 34.6344Z" fill="#B77562"/>
<path d="M40.436 31.8515C40.436 22.6296 47.9118 15.1538 57.1337 15.1538H98.8779C108.1 15.1538 115.576 22.6296 115.576 31.8515V46.4619C115.576 63.7529 101.558 77.7701 84.2674 77.7701H71.7442C54.4532 77.7701 40.436 63.7529 40.436 46.4619V31.8515Z" fill="#E8CC97"/>
<path d="M78.1064 50.6361C78.1064 46.0252 81.8443 42.2873 86.4553 42.2873H107.325C111.915 42.2873 115.636 46.0084 115.636 50.5985C115.636 65.6048 103.471 77.7698 88.4647 77.7698H78.1064V50.6361Z" fill="#FAE9C8"/>
<path d="M78.1064 50.6361C78.1064 46.0252 74.3685 42.2873 69.7576 42.2873H48.888C44.2979 42.2873 40.5768 46.0084 40.5768 50.5985C40.5768 65.6048 52.7418 77.7698 67.7481 77.7698H78.1064V50.6361Z" fill="#FAE9C8"/>
<path d="M48.7852 41.6453C48.7852 46.6109 52.8106 50.6364 57.7762 50.6364H62.6999C66.5423 50.6364 69.6572 47.5214 69.6572 43.679V43.3311C69.6572 39.2965 66.3866 36.0259 62.352 36.0259H54.4046C51.3011 36.0259 48.7852 38.5418 48.7852 41.6453Z" fill="#B77562"/>
<circle cx="62.3518" cy="43.3313" r="5.21802" fill="#7D4A3B"/>
<circle cx="64.4391" cy="41.2443" r="1.0436" fill="white"/>
<path d="M107.227 41.6453C107.227 46.6109 103.201 50.6364 98.2355 50.6364H93.3118C89.4694 50.6364 86.3545 47.5214 86.3545 43.679V43.3311C86.3545 39.2965 89.6251 36.0259 93.6597 36.0259H101.607C104.711 36.0259 107.227 38.5418 107.227 41.6453Z" fill="#B77562"/>
<circle cx="93.6599" cy="43.3314" r="5.21802" fill="#7D4A3B"/>
<circle cx="91.5724" cy="41.2443" r="1.0436" fill="white"/>
<path d="M69.6572 53.6183C69.6572 57.7352 72.9946 61.0726 77.1115 61.0726H78.9006C83.0175 61.0726 86.3549 57.7352 86.3549 53.6183C86.3549 51.9716 85.0199 50.6366 83.3732 50.6366H72.639C70.9922 50.6366 69.6572 51.9716 69.6572 53.6183Z" fill="#7D4A3B"/>
<path d="M63.3955 61.0726L66.4168 63.6623C67.6099 64.6849 69.1294 65.247 70.7007 65.247V65.247C72.2721 65.247 73.7916 64.6849 74.9847 63.6623L78.006 61.0726" stroke="#7D4A3B" stroke-width="2.08721" stroke-linecap="round"/>
<path d="M92.6162 61.0726L89.5949 63.6623C88.4018 64.6849 86.8823 65.247 85.311 65.247V65.247C83.7396 65.247 82.2201 64.6849 81.0271 63.6623L78.0057 61.0726" stroke="#7D4A3B" stroke-width="2.08721" stroke-linecap="round"/>
<path d="M73.8311 69.4215H82.1799" stroke="#E8CC97" stroke-width="2.08721" stroke-linecap="round"/>
<path d="M78.292 16.6977C78.292 7.4758 85.7678 0 94.9897 0C94.9897 9.22187 87.5139 16.6977 78.292 16.6977Z" fill="#E8CC97"/>
<path d="M78.292 16.6977C78.292 7.4758 70.8162 0 61.5943 0C61.5943 9.22187 69.0701 16.6977 78.292 16.6977Z" fill="#E8CC97"/>
</svg>
