<svg width="35" height="35" viewBox="0 0 35 35" fill="none" xmlns="http://www.w3.org/2000/svg">
<path d="M20.4165 8.75L30.6248 18.9583L24.7915 24.7917" stroke="#F8C301" stroke-width="2" stroke-linecap="round" stroke-linejoin="round"/>
<path d="M5.83325 29.1668L8.41159 26.5884M8.49909 26.5009C8.88207 26.884 9.33677 27.1879 9.83721 27.3953C10.3377 27.6026 10.8741 27.7093 11.4158 27.7093C11.9575 27.7093 12.4938 27.6026 12.9943 27.3953C13.4947 27.1879 13.9494 26.884 14.3324 26.5009L29.7703 11.063C30.0413 10.7922 30.2562 10.4706 30.4029 10.1166C30.5495 9.7627 30.625 9.38333 30.625 9.00021C30.625 8.61709 30.5495 8.23772 30.4029 7.88378C30.2562 7.52983 30.0413 7.20825 29.7703 6.9374L28.0626 5.22969C27.7918 4.95873 27.4702 4.74378 27.1162 4.59713C26.7623 4.45048 26.3829 4.375 25.9998 4.375C25.6167 4.375 25.2373 4.45048 24.8834 4.59713C24.5294 4.74378 24.2079 4.95873 23.937 5.22969L8.49909 20.6676C8.11599 21.0506 7.81209 21.5053 7.60476 22.0057C7.39742 22.5062 7.2907 23.0426 7.2907 23.5843C7.2907 24.126 7.39742 24.6624 7.60476 25.1628C7.81209 25.6633 8.11599 26.118 8.49909 26.5009Z" stroke="#F8C301" stroke-width="2" stroke-linecap="round" stroke-linejoin="round"/>
</svg>
