<svg width="200" height="200" viewBox="0 0 200 200" fill="none" xmlns="http://www.w3.org/2000/svg">
<path d="M141.667 27.8337C154.236 35.0909 164.691 45.5048 171.998 58.0446C179.306 70.5844 183.211 84.8152 183.329 99.3282C183.446 113.841 179.771 128.133 172.667 140.79C165.563 153.446 155.277 164.027 142.827 171.486C130.377 178.946 116.195 183.024 101.684 183.318C87.1735 183.611 72.8379 180.11 60.0962 173.161C47.3546 166.211 36.6489 156.055 29.0388 143.696C21.4288 131.338 17.1784 117.206 16.7083 102.7L16.6666 100L16.7083 97.3004C17.175 82.9087 21.3629 68.8834 28.8636 56.592C36.3644 44.3006 46.9221 34.1625 59.5074 27.1661C72.0927 20.1697 86.2762 16.5537 100.675 16.6707C115.074 16.7877 129.197 20.6337 141.667 27.8337ZM130.892 77.4421C129.457 76.0073 127.548 75.1454 125.522 75.018C123.497 74.8907 121.495 75.5067 119.892 76.7504L119.108 77.4421L91.6666 104.875L80.8916 94.1087L80.1083 93.4171C78.5048 92.1742 76.5031 91.559 74.4783 91.6867C72.4536 91.8144 70.545 92.6764 69.1105 94.1109C67.6759 95.5455 66.814 97.4541 66.6862 99.4788C66.5585 101.504 67.1738 103.505 68.4166 105.109L69.1083 105.892L85.775 122.559L86.5583 123.25C88.0197 124.384 89.8169 125 91.6666 125C93.5164 125 95.3135 124.384 96.775 123.25L97.5583 122.559L130.892 89.2254L131.583 88.4421C132.827 86.8387 133.443 84.8366 133.316 82.8114C133.188 80.7862 132.326 78.877 130.892 77.4421Z" fill="#3D9B35"/>
</svg>
