<svg width="35" height="35" viewBox="0 0 35 35" fill="none" xmlns="http://www.w3.org/2000/svg">
<g clip-path="url(#clip0_588_1326)">
<path d="M24.5415 5.30376C26.6656 6.53022 28.4326 8.29017 29.6676 10.4094C30.9025 12.5286 31.5625 14.9336 31.5824 17.3863C31.6022 19.839 30.9811 22.2544 29.7805 24.3933C28.58 26.5322 26.8416 28.3205 24.7376 29.5811C22.6335 30.8417 20.2367 31.5309 17.7844 31.5805C15.3322 31.6302 12.9094 31.0385 10.7561 29.864C8.60276 28.6896 6.79349 26.9731 5.5074 24.8845C4.22204 22.7972 3.5038 20.4105 3.42367 17.9604L3.41656 17.4999L3.42367 17.0394C3.50322 14.6087 4.21088 12.24 5.47778 10.1639C6.74541 8.08666 8.52966 6.37332 10.6566 5.19093C12.7835 4.00854 15.1805 3.39744 17.6139 3.41721C20.0473 3.43699 22.4341 4.08696 24.5415 5.30376Z" stroke="#3D9B35"/>
</g>
<defs>
<clipPath id="clip0_588_1326">
<rect width="35" height="35" fill="white"/>
</clipPath>
</defs>
</svg>
