<svg width="35" height="35" viewBox="0 0 35 35" fill="none" xmlns="http://www.w3.org/2000/svg">
<g clip-path="url(#clip0_588_1314)">
<path d="M24.7915 4.87076C26.9911 6.14076 28.8208 7.96319 30.0996 10.1577C31.3783 12.3521 32.0618 14.8425 32.0823 17.3823C32.1028 19.9221 31.4597 22.4232 30.2165 24.638C28.9734 26.8529 27.1733 28.7046 24.9946 30.01C22.8158 31.3153 20.3339 32.029 17.7946 32.0804C15.2552 32.1318 12.7465 31.5191 10.5167 30.303C8.2869 29.0868 6.4134 27.3094 5.08164 25.1467C3.74989 22.984 3.00606 20.511 2.9238 17.9724L2.9165 17.4999L2.9238 17.0274C3.00547 14.5089 3.73834 12.0545 5.05098 9.90346C6.36361 7.75246 8.21121 5.97829 10.4136 4.75392C12.6161 3.52955 15.0982 2.89675 17.618 2.91723C20.1378 2.93771 22.6093 3.61075 24.7915 4.87076ZM22.9059 13.5522C22.6548 13.3011 22.3207 13.1503 21.9662 13.128C21.6118 13.1057 21.2615 13.2135 20.9809 13.4312L20.8438 13.5522L16.0415 18.353L14.1559 16.4689L14.0188 16.3478C13.7382 16.1303 13.3879 16.0227 13.0336 16.045C12.6792 16.0674 12.3452 16.2182 12.0942 16.4693C11.8431 16.7203 11.6923 17.0543 11.6699 17.4086C11.6476 17.763 11.7553 18.1133 11.9728 18.3939L12.0938 18.531L15.0105 21.4476L15.1475 21.5687C15.4033 21.7671 15.7178 21.8748 16.0415 21.8748C16.3652 21.8748 16.6797 21.7671 16.9355 21.5687L17.0725 21.4476L22.9059 15.6143L23.0269 15.4772C23.2446 15.1966 23.3524 14.8463 23.3301 14.4918C23.3078 14.1374 23.157 13.8033 22.9059 13.5522Z" fill="#3D9B35"/>
</g>
<defs>
<clipPath id="clip0_588_1314">
<rect width="35" height="35" fill="white"/>
</clipPath>
</defs>
</svg>
