<svg width="51" height="59" viewBox="0 0 51 59" fill="none" xmlns="http://www.w3.org/2000/svg">
<path d="M10.0732 21.0688L12.9993 18.5698C16.5395 15.5462 21.2888 14.3497 25.8391 15.3348L26.1642 15.4052C29.9195 16.2183 33.8439 15.467 37.0334 13.3245C37.7072 12.8719 38.3407 12.3621 38.927 11.8008L42.4999 8.37953L42.5621 17.8744C42.5826 20.9899 42.1458 24.0916 41.2659 27.0803L39.4763 33.159L36.5924 40.2141C36.1429 41.3137 35.5457 42.347 34.8172 43.2854L34.3966 43.8272C30.9029 48.3275 24.7624 49.8155 19.5961 47.4137L18.5154 46.9112C16.9795 46.1972 15.6962 45.0344 14.8346 43.5762C14.3893 42.8227 14.0649 42.0041 13.8732 41.1501L13.1568 37.9597L11.4617 46.825C11.1867 48.2629 9.29456 48.6237 8.50977 47.3879C8.181 46.8701 8.17359 46.2109 8.49066 45.6859L13.1568 37.9597C9.05715 37.5245 6.07591 33.8641 6.47951 29.7613L6.69852 27.5349C6.94547 25.0244 8.1549 22.7071 10.0732 21.0688Z" fill="#F8C301"/>
<path d="M42.4999 8.37953L38.1988 15.2452C35.6469 19.3186 31.8556 22.466 27.3822 24.2248V24.2248C25.2269 25.0721 23.2157 26.2477 21.4197 27.7098L20.779 28.2314C17.804 30.6533 15.363 33.6654 13.6099 37.0777L13.1568 37.9597M42.4999 8.37953L42.5621 17.8744C42.5826 20.9899 42.1458 24.0916 41.2659 27.0803L39.4763 33.159L36.5924 40.2141C36.1429 41.3137 35.5457 42.347 34.8172 43.2854L34.3966 43.8272C30.9029 48.3275 24.7624 49.8155 19.5961 47.4137L18.5154 46.9112C16.9795 46.1972 15.6962 45.0344 14.8346 43.5762V43.5762C14.3893 42.8227 14.0649 42.0041 13.8732 41.1501L13.1568 37.9597M42.4999 8.37953L38.927 11.8008C38.3407 12.3621 37.7072 12.8719 37.0334 13.3245V13.3245C33.8439 15.467 29.9195 16.2183 26.1642 15.4052L25.8391 15.3348C21.2888 14.3497 16.5395 15.5462 12.9993 18.5698L10.0732 21.0688C8.15489 22.7071 6.94547 25.0244 6.69852 27.5349L6.47951 29.7613C6.07591 33.8641 9.05714 37.5245 13.1568 37.9597V37.9597M13.1568 37.9597L11.4617 46.825C11.1867 48.2629 9.29456 48.6237 8.50977 47.3879V47.3879C8.181 46.8701 8.17359 46.2109 8.49066 45.6859L13.1568 37.9597Z" stroke="#CFA046" stroke-width="0.637124"/>
<path d="M17.2069 38.8967L17.1106 37.8475C17.0165 36.822 17.1175 35.7879 17.4084 34.8001L17.6395 34.0151C17.8839 33.185 18.2142 32.3828 18.6252 31.6213L18.6924 31.4968C19.2078 30.5419 19.8342 29.6512 20.5585 28.8432L21.9407 27.3014L17.8218 31.2572C16.8691 32.1723 16.0586 33.2248 15.4174 34.3797L14.3526 36.2977C13.8327 37.2341 13.589 38.2987 13.6498 39.368C13.6947 40.1588 13.905 40.9313 14.2671 41.6357L14.8315 42.7337C15.214 43.4777 15.6805 44.1755 16.2219 44.8132L16.4268 45.0547C17.0578 45.798 17.8054 46.434 18.6402 46.9379C19.301 47.3366 20.0103 47.6488 20.7506 47.8668L20.8725 47.9027C22.0744 48.2565 23.3321 48.3812 24.5801 48.2702L25.6549 48.1746C27.3062 48.0278 28.9238 47.62 30.4474 46.9665L31.132 46.6728C32.1992 46.2151 33.2089 45.6337 34.1406 44.9405C35.8215 43.69 37.2185 42.0978 38.24 40.2686L38.4733 39.8507L38.6287 39.5609C39.8967 37.1955 40.8608 34.6794 41.4979 32.0723L41.5434 31.8863L42.0452 29.7753L42.3402 27.5242C42.5375 26.0189 42.6269 24.5015 42.6078 22.9835L42.4627 11.4538L41.5746 20.6799C41.281 23.731 40.5322 26.721 39.3534 29.5504L38.3834 31.8785C37.2126 34.6887 35.412 37.1925 33.1206 39.1968L31.649 40.484C30.2028 41.7489 28.4722 42.6454 26.6048 43.097L24.6433 43.5714C23.1296 43.9374 21.5348 43.7471 20.1498 43.035L19.9204 42.917C19.3937 42.6462 18.9189 42.2846 18.5177 41.849C17.7686 41.0354 17.308 39.998 17.2069 38.8967Z" fill="#CFA046" stroke="#CFA046" stroke-width="0.637124"/>
<path d="M15.3891 31.5204L16.8793 32.0833L13.2513 37.6385L11.6897 37.1788C11.1041 37.0063 10.5467 36.7494 10.0353 36.4159C9.2589 35.9098 8.6043 35.238 8.11849 34.4488L7.98687 34.235C7.52194 33.4797 7.19669 32.6469 7.02667 31.7765L6.90481 31.1526C6.63037 29.7475 6.63546 28.3021 6.9198 26.899L6.9331 26.8334C7.12517 25.8855 7.44103 24.962 7.86849 24.0945C8.52902 22.754 9.46532 21.5384 10.5901 20.5545C11.227 19.9975 11.9312 19.5058 12.6746 19.1019L15.8624 17.3699C16.7974 16.6546 17.8275 16.0682 18.9254 15.6289L19.4624 15.414L15.8624 17.3699C15.4072 17.7183 14.9744 18.0972 14.5675 18.5046C13.7172 19.1701 13.042 20.0327 12.6002 21.0179L12.3062 21.6734L11.5564 24.2201C11.3653 24.8693 11.2943 25.548 11.3468 26.2227C11.3863 26.7292 11.4949 27.2279 11.6698 27.7049L11.7044 27.7994C12.3337 29.5162 13.6786 30.8743 15.3891 31.5204Z" fill="#CFA046" stroke="#CFA046" stroke-width="0.637124"/>
<path d="M30.4502 11.1656C30.5488 10.8884 30.9391 10.8834 31.0447 11.1581L31.7269 12.9328C31.7601 13.0191 31.8294 13.0867 31.9166 13.1177L33.7079 13.755C33.9851 13.8536 33.99 14.244 33.7153 14.3496L31.9407 15.0317C31.8543 15.0649 31.7868 15.1342 31.7557 15.2214L31.1184 17.0126C31.0198 17.2899 30.6294 17.2948 30.5238 17.0201L29.8416 15.2455C29.8084 15.1591 29.7392 15.0916 29.652 15.0606L27.8607 14.4232C27.5834 14.3246 27.5785 13.9343 27.8532 13.8287L29.6279 13.1465C29.7143 13.1133 29.7818 13.044 29.8128 12.9569L30.4502 11.1656Z" fill="#FAE9C8"/>
<path d="M39.1296 29.0192C39.2282 28.7419 39.6186 28.737 39.7242 29.0117L40.4064 30.7864C40.4396 30.8727 40.5088 30.9403 40.596 30.9713L42.3873 31.6086C42.6646 31.7072 42.6695 32.0975 42.3948 32.2031L40.6201 32.8853C40.5337 32.9185 40.4662 32.9878 40.4352 33.075L39.7978 34.8662C39.6992 35.1435 39.3089 35.1484 39.2033 34.8737L38.5211 33.099C38.4879 33.0127 38.4186 32.9451 38.3314 32.9141L36.5401 32.2768C36.2629 32.1782 36.258 31.7879 36.5327 31.6823L38.3073 31.0001C38.3937 30.9669 38.4613 30.8976 38.4923 30.8104L39.1296 29.0192Z" fill="#FAE9C8"/>
<path d="M10.6674 34.6618C10.7661 34.3846 11.1564 34.3797 11.262 34.6543L11.9442 36.429C11.9774 36.5153 12.0467 36.5829 12.1339 36.6139L13.9251 37.2512C14.2024 37.3499 14.2073 37.7402 13.9326 37.8458L12.1579 38.528C12.0716 38.5612 12.004 38.6304 11.973 38.7176L11.3357 40.5089C11.237 40.7861 10.8467 40.791 10.7411 40.5163L10.0589 38.7417C10.0257 38.6553 9.95645 38.5878 9.86928 38.5568L8.07799 37.9195C7.80073 37.8208 7.79582 37.4305 8.07051 37.3249L9.84519 36.6427C9.93155 36.6095 9.9991 36.5402 10.0301 36.4531L10.6674 34.6618Z" fill="#FAE9C8"/>
</svg>
