<svg width="390" height="384" viewBox="0 0 390 384" fill="none" xmlns="http://www.w3.org/2000/svg">
<path d="M320 356.508C320 466.039 227.368 556 118.751 556C10.1339 556 -80 467.606 -80 358.075C-80 248.544 9.44125 156 118.058 156C226.675 156 320 246.977 320 356.508Z" fill="#EDEDED"/>
<path d="M11.1865 301.451C11.1865 241.392 59.8738 192.705 119.933 192.705C179.992 192.705 228.679 241.392 228.679 301.451V348.057C228.679 390.956 193.902 425.733 151.003 425.733H88.8624C45.9632 425.733 11.1865 390.956 11.1865 348.057V301.451Z" fill="#14690C"/>
<path d="M58.5688 182.606H180.52V548.848C180.52 582.524 153.22 609.824 119.544 609.824C85.8685 609.824 58.5688 582.524 58.5688 548.848V182.606Z" fill="#E8CC97"/>
<path d="M10.4102 311.77C10.4102 348.541 40.2187 378.35 76.9894 378.35H119.933V222.998H99.1825C50.1549 222.998 10.4102 262.743 10.4102 311.77Z" fill="#E8CC97"/>
<path d="M229.456 311.77C229.456 348.541 199.648 378.35 162.877 378.35H119.933V222.998H140.684C189.711 222.998 229.456 262.743 229.456 311.77Z" fill="#E8CC97"/>
<path d="M73.3271 269.216C73.3271 243.691 94.0193 222.999 119.544 222.999C145.069 222.999 165.761 243.691 165.761 269.216V563.607C165.761 589.133 145.069 609.825 119.544 609.825C94.0193 609.825 73.3271 589.133 73.3271 563.608V269.216Z" fill="#FAE9C8"/>
<path d="M54.4907 249.797L46.6748 235.495C45.8146 233.921 45.3638 232.156 45.3638 230.363C45.3638 223.202 52.259 218.062 59.1214 220.106L59.8993 220.338C62.3092 221.055 64.4111 222.556 65.8726 224.602L73.6584 235.502C79.7577 244.041 83.0365 254.273 83.0365 264.767V297.956V347.994C83.0365 353.235 80.8535 358.238 77.0119 361.803L54.8439 382.371C51.2331 385.721 45.3638 383.16 45.3638 378.235C45.3638 377.047 45.7382 375.891 46.4338 374.929L54.4907 363.786C60.4238 355.581 63.6176 345.713 63.6176 335.587V309.607V285.529C63.6176 273.041 60.4792 260.754 54.4907 249.797Z" fill="#3D9B35"/>
<path d="M184.21 249.797L192.025 235.495C192.886 233.921 193.336 232.156 193.336 230.363C193.336 223.202 186.441 218.062 179.579 220.106L178.801 220.338C176.391 221.055 174.289 222.556 172.828 224.602L165.042 235.502C158.942 244.041 155.664 254.273 155.664 264.767V297.956V347.994C155.664 353.235 157.847 358.238 161.688 361.803L183.856 382.371C187.467 385.721 193.336 383.16 193.336 378.235C193.336 377.047 192.962 375.891 192.266 374.929L184.21 363.786C178.276 355.581 175.083 345.713 175.083 335.587V309.607V285.529C175.083 273.041 178.221 260.754 184.21 249.797Z" fill="#3D9B35"/>
<rect x="40.7036" y="321.927" width="62.1407" height="93.211" rx="31.0703" transform="rotate(-20 40.7036 321.927)" fill="#B77562"/>
<path d="M104.398 355.048L113.905 384.628" stroke="#7D4A3B" stroke-width="4.75376" stroke-linecap="round"/>
<path d="M70.9971 365.146L80.5039 394.727" stroke="#7D4A3B" stroke-width="4.75376" stroke-linecap="round"/>
<rect width="62.1407" height="93.211" rx="31.0703" transform="matrix(-0.939693 -0.34202 -0.34202 0.939693 198.555 321.925)" fill="#B77562"/>
<path d="M134.861 355.046L125.354 384.626" stroke="#7D4A3B" stroke-width="4.75376" stroke-linecap="round"/>
<path d="M168.262 365.145L158.755 394.725" stroke="#7D4A3B" stroke-width="4.75376" stroke-linecap="round"/>
<path d="M0.834961 83.963C0.834961 69.7038 12.3943 58.1445 26.6534 58.1445H31.8171V109.781H26.6534C12.3943 109.781 0.834961 98.2221 0.834961 83.963Z" fill="#E8CC97"/>
<path d="M0.834961 83.9624C0.834961 72.5551 10.0824 63.3076 21.4897 63.3076H31.8171V109.781H26.6534C12.3943 109.781 0.834961 98.2215 0.834961 83.9624Z" fill="#7D4A3B"/>
<path d="M0.834961 85.6844C0.834961 79.0301 6.2293 73.6357 12.8836 73.6357H31.8171V109.782H24.9322C11.6237 109.782 0.834961 98.9929 0.834961 85.6844Z" fill="#B77562"/>
<path d="M238.364 83.963C238.364 69.7038 226.805 58.1445 212.546 58.1445H207.382V109.781H212.546C226.805 109.781 238.364 98.2221 238.364 83.963Z" fill="#E8CC97"/>
<path d="M238.365 83.9624C238.365 72.5551 229.117 63.3076 217.71 63.3076H207.383V109.781H212.546C226.805 109.781 238.365 98.2215 238.365 83.9624Z" fill="#7D4A3B"/>
<path d="M238.365 85.6844C238.365 79.0301 232.97 73.6357 226.316 73.6357H207.383V109.782H214.268C227.576 109.782 238.365 98.9929 238.365 85.6844Z" fill="#B77562"/>
<path d="M26.6538 78.7998C26.6538 55.9851 45.1487 37.4902 67.9633 37.4902H171.237C194.052 37.4902 212.547 55.9851 212.547 78.7997V114.946C212.547 157.723 177.869 192.401 135.091 192.401H104.109C61.3318 192.401 26.6538 157.723 26.6538 114.946V78.7998Z" fill="#E8CC97"/>
<path d="M119.848 125.272C119.848 113.865 129.096 104.617 140.503 104.617H192.134C203.489 104.617 212.695 113.823 212.695 125.179C212.695 162.304 182.599 192.4 145.474 192.4H119.848V125.272Z" fill="#FAE9C8"/>
<path d="M119.848 125.272C119.848 113.865 110.601 104.617 99.1934 104.617H47.5627C36.2068 104.617 27.001 113.823 27.001 125.179C27.001 162.304 57.0969 192.4 94.222 192.4H119.848V125.272Z" fill="#FAE9C8"/>
<path d="M47.3081 103.029C47.3081 115.314 57.2669 125.272 69.5517 125.272H81.7327C91.2388 125.272 98.945 117.566 98.945 108.06V107.2C98.945 97.2182 90.8535 89.1266 80.8721 89.1266H61.2104C53.5324 89.1266 47.3081 95.3509 47.3081 103.029Z" fill="#B77562"/>
<circle cx="80.8721" cy="107.2" r="12.9092" fill="#7D4A3B"/>
<circle cx="86.0359" cy="102.037" r="2.58184" fill="white"/>
<path d="M191.891 103.029C191.891 115.314 181.932 125.272 169.648 125.272H157.467C147.96 125.272 140.254 117.566 140.254 108.06V107.2C140.254 97.2182 148.346 89.1266 158.327 89.1266H177.989C185.667 89.1266 191.891 95.3509 191.891 103.029Z" fill="#B77562"/>
<circle cx="158.328" cy="107.2" r="12.9092" fill="#7D4A3B"/>
<circle cx="153.163" cy="102.037" r="2.58184" fill="white"/>
<path d="M98.9453 132.65C98.9453 142.835 107.202 151.092 117.387 151.092H121.813C131.998 151.092 140.255 142.835 140.255 132.65C140.255 128.576 136.952 125.273 132.878 125.273H106.322C102.248 125.273 98.9453 128.576 98.9453 132.65Z" fill="#7D4A3B"/>
<path d="M83.4541 151.092L90.9287 157.499C93.8803 160.029 97.6395 161.419 101.527 161.419V161.419C105.414 161.419 109.174 160.029 112.125 157.499L119.6 151.092" stroke="#7D4A3B" stroke-width="5.16369" stroke-linecap="round"/>
<path d="M155.746 151.092L148.271 157.499C145.319 160.029 141.56 161.419 137.673 161.419V161.419C133.785 161.419 130.026 160.029 127.074 157.499L119.6 151.092" stroke="#7D4A3B" stroke-width="5.16369" stroke-linecap="round"/>
<path d="M109.272 171.747H129.927" stroke="#E8CC97" stroke-width="5.16369" stroke-linecap="round"/>
<path d="M120.307 41.3095C120.307 18.4949 138.802 0 161.617 0C161.617 22.8146 143.122 41.3095 120.307 41.3095Z" fill="#E8CC97"/>
<path d="M120.307 41.3095C120.307 18.4949 101.812 0 78.9976 0C78.9976 22.8146 97.4925 41.3095 120.307 41.3095Z" fill="#E8CC97"/>
</svg>
