<?xml version="1.0" encoding="UTF-8"?><svg id="a" xmlns="http://www.w3.org/2000/svg" viewBox="0 0 100 100"><g id="b"><path d="M90.72315,87.06165l1.40542-25.36162-13.23204,9.18891-28.66964,6.61616,19.17805,20.95075,9.49159-3.30822,11.82662-8.08598Z" fill="#918d8a" stroke-width="0"/><path d="M50.6593,77.505l-28.36687-6.61606-13.23199-9.55646,1.90274,25.36143,11.32925,8.45382,11.45925,3.67549,16.90762-21.31821Z" fill="#ebe9e7" stroke-width="0"/><path d="M46.18366,54.34896l-33.81524-8.82136-3.30799,16.17243,13.23199,9.18891,28.36687,6.61606-4.47563-23.15604Z" fill="#b5b2b0" stroke-width="0"/><path d="M55.00484,54.32449l33.81515-8.82136,3.30804,16.17243-13.23204,9.18891-28.30182,6.64044,4.41068-23.18043Z" fill="#b5b2b0" stroke-width="0"/><path d="M50.65939,77.505l-16.90762,21.3183,35.65299-.36764-18.74537-20.95066Z" fill="#6e6967" stroke-width="0"/><path d="M55.00512,54.34896l-4.34573-4.41068-4.47563,4.41068,4.47563,23.15604,4.34573-23.15604Z" fill="#c7c4c2" stroke-width="0"/><path d="M78.89599,36.33851l-27.01628-4.41068-29.58737,4.41068-9.7412,9.18891,9.7412,5.14578,28.30183,5.14578,28.30182-5.14578,9.924-5.14578-9.924-9.18891Z" fill="#ebe9e7" stroke-width="0"/></g><g id="c"><path d="M35.76808,21.96195l1.76948-3.05237c2.14081-3.69299,5.88358-6.17423,10.11881-6.70813l.30257-.03814c3.49522-.44056,6.66036-2.28549,8.76624-5.1097.44478-.59662.83747-1.23045,1.17342-1.89447l2.04793-4.04689,2.94564,8.19234c.96648,2.68809,1.53347,5.50345,1.68274,8.35621l.30358,5.80198-.3453,6.97962c-.05382,1.08787-.25563,2.16337-.59982,3.19677l-.19878.59661c-1.65083,4.95598-6.50807,8.11296-11.70739,7.60923l-1.0876-.10535c-1.54576-.14973-3.00973-.76449-4.19892-1.76315-.61458-.51601-1.14445-1.12519-1.57033-1.80532l-1.59124-2.54094,1.23402,8.1831c.20015,1.32727-1.32635,2.21563-2.3814,1.38586-.44203-.34768-.64915-.9155-.53491-1.46608l1.68228-8.10288c-3.67795.87222-7.37094-1.3853-8.27149-5.05647l-.48869-1.99209c-.55095-2.24625-.21079-4.61876.94915-6.61974Z" fill="#f8c301" stroke-width="0"/><path d="M59.94652,1.11226l-1.62865,7.24747c-.96629,4.29999-3.28644,8.17653-6.61956,11.05992h0c-1.60581,1.38925-2.98708,3.01844-4.09503,4.82982l-.39517.64621c-1.83522,3.00065-3.0289,6.34899-3.50576,9.83385l-.12323.90074M59.94652,1.11226l2.94564,8.19234c.96648,2.68809,1.53347,5.50345,1.68274,8.35621l.30358,5.80198-.3453,6.97962c-.05382,1.08787-.25563,2.16337-.59982,3.19677l-.19878.59661c-1.65083,4.95598-6.50807,8.11296-11.70739,7.60923l-1.0876-.10535c-1.54576-.14973-3.00973-.76449-4.19892-1.76315h0c-.61458-.51601-1.14445-1.12519-1.57033-1.80532l-1.59124-2.54094M59.94652,1.11226l-2.04793,4.04689c-.33594.66402-.72864,1.29785-1.17342,1.89447h0c-2.10588,2.8242-5.27102,4.66914-8.76624,5.1097l-.30257.03814c-4.23523.5339-7.978,3.01514-10.11881,6.70813l-1.76948,3.05237c-1.15994,2.00099-1.5001,4.37349-.94915,6.61974l.48869,1.99209c.90055,3.67117,4.59354,5.9287,8.27149,5.05647h0M43.57912,35.63026l1.23402,8.1831c.20015,1.32727-1.32635,2.21563-2.3814,1.38586h0c-.44203-.34768-.64915-.9155-.53491-1.46608l1.68228-8.10288Z" fill="none" stroke="#cfa046" stroke-width=".63712"/><path d="M47.36728,35.20712l-.40278-.87809c-.39371-.8582-.62127-1.78323-.6706-2.72605l-.03924-.74927c-.04144-.79227-.00009-1.58675.12341-2.3704l.02026-.12818c.15486-.9828.42525-1.94377.80557-2.86312l.7258-1.75435-2.35728,4.67542c-.54527,1.08155-.92559,2.23864-1.1284,3.43268l-.33677,1.98302c-.1644.96813-.05089,1.96303.32732,2.86927.27974.67023.69682,1.27427,1.22458,1.77314l.82244.77769c.55737.52693,1.17332.9883,1.83576,1.37494l.25077.14633c.7721.45074,1.61232.77311,2.48775.95456.69288.14358,1.40135.19759,2.10799.16064l.11626-.00615c1.14729-.06005,2.27293-.33521,3.31844-.81134l.90037-.40993c1.38338-.62998,2.65802-1.47525,3.77661-2.50444l.50263-.46247c.78347-.72085,1.47974-1.53127,2.07434-2.41441,1.07274-1.59344,1.79606-3.39583,2.12229-5.28881l.07454-.43249.04612-.29798c.37619-2.43174.44359-4.90134.20061-7.35003l-.01733-.17476-.20896-1.97843-.43047-2.03665c-.28781-1.36183-.67262-2.70139-1.15141-4.0083l-3.63696-9.92691,2.04188,8.24939c.67519,2.72807.93833,5.54186.78063,8.34778l-.12983,2.30878c-.15669,2.78684-.95135,5.50051-2.32253,7.93179l-.88066,1.56144c-.86544,1.5343-2.08901,2.83672-3.56646,3.79605l-1.5519,1.00755c-1.19753.7776-2.63473,1.09869-4.04938.90459l-.23435-.03209c-.53793-.07381-1.05871-.24187-1.53824-.49649-.8956-.4754-1.60994-1.23228-2.0328-2.15392Z" fill="#cfa046" stroke="#cfa046" stroke-width=".63712"/><path d="M43.54877,29.38167l1.46021.03292-1.44573,5.90916-1.49047.07794c-.55902.02925-1.11923-.0232-1.66312-.15578-.82555-.20125-1.59619-.58286-2.2567-1.1174l-.17897-.14486c-.63209-.51162-1.167-1.13271-1.57913-1.83375l-.29542-.50245c-.66529-1.13152-1.10108-2.38305-1.28252-3.68308l-.00844-.06079c-.12259-.87818-.13075-1.77314-.02521-2.65353.16293-1.36046.60248-2.69689,1.27556-3.8903.38105-.67574.84041-1.31535,1.36027-1.89114l2.22938-2.46869c.59065-.90339,1.30297-1.72418,2.11862-2.43852l.39893-.34933-2.51755,2.78785c-.28762.43992-.54646.89945-.7743,1.37568-.53261.83445-.85388,1.78616-.93595,2.77272l-.05455.65648.12717,2.43073c.03246.61962.17769,1.22824.42864,1.7957.18842.42598.43423.82418.73075,1.18341l.05868.07124c1.06715,1.29298,2.64381,2.05793,4.31985,2.09579Z" fill="#cfa046" stroke="#cfa046" stroke-width=".63712"/><path d="M50.37426,7.1915c.00092-.26982.33695-.39294.51189-.18756l1.13051,1.32697c.05501.06458.13551.10189.22032.10217l1.74325.00559c.26975.00087.39288.33693.1875.51191l-1.32699,1.13042c-.06455.05501-.10186.13551-.10214.22033l-.00568,1.74325c-.00083.26984-.33695.39297-.51189.18759l-1.13051-1.32699c-.05501-.06464-.13542-.10196-.22032-.10223l-1.74316-.00559c-.26984-.00083-.39297-.33686-.18759-.51189l1.32699-1.13041c.06464-.05501.10196-.13551.10223-.22033l.00559-1.74322Z" fill="#f9e395" stroke-width="0"/><path d="M63.31796,19.98838c.00082-.26984.33695-.39297.51189-.18759l1.1305,1.32699c.05501.06455.13542.10187.22032.10214l1.74316.00559c.26984.00092.39297.33695.18759.51189l-1.32699,1.13051c-.06464.05501-.10195.13551-.10223.22033l-.00559,1.74316c-.00083.26984-.33695.39297-.51189.18759l-1.13051-1.32699c-.05501-.06455-.13542-.10186-.22032-.10214l-1.74316-.00559c-.26984-.00092-.39297-.33695-.18759-.51189l1.32699-1.13051c.06455-.05501.10196-.13551.10214-.22033l.00569-1.74316Z" fill="#f9e395" stroke-width="0"/><path d="M40.42204,33.53639c.00092-.26975.33695-.39288.51189-.1875l1.13051,1.32699c.05501.06455.13551.10187.22032.10214l1.74325.00559c.26975.00083.39288.33695.1875.51189l-1.32699,1.13042c-.06455.05501-.10186.13551-.10214.22032l-.00568,1.74325c-.00083.26984-.33695.39297-.51189.1875l-1.13051-1.3269c-.05501-.06464-.13542-.10196-.22023-.10223l-1.74325-.00559c-.26984-.00083-.39297-.33686-.18759-.51189l1.32699-1.13042c.06464-.05501.10196-.13551.10223-.22032l.00559-1.74325Z" fill="#f9e395" stroke-width="0"/></g><g id="d"><path d="M50.48194,31.58978l-2.36581-1.42776c-1.79194-1.08154-3.78495-1.78781-5.858-2.07599l-8.19447-1.13903-1.09631-.15239c-4.4826-.62311-8.38298-3.38519-10.45897-7.40669l-.14908,6.66751c-.12268,5.48383,1.05706,10.91851,3.4424,15.8579l.1776.36785.4621.80153c2.24983,3.90304,5.82839,6.86666,10.08223,8.34998,1.16718.407,2.37177.69774,3.59607.86791l1.17571.16339c.50685.07051,1.01938.09068,1.53026.06042,4.40017-.26121,7.70239-4.12603,7.27356-8.51308l-.08206-.84004c3.28305-.60972,5.11524-4.14638,3.71957-7.17995l-.72103-1.56731c-.5416-1.17727-1.42436-2.16465-2.53378-2.83424Z" fill="#3d9b35" stroke="#14690c" stroke-width=".75656"/><path d="M50.01718,43.17128h0c-.64631-1.91471-1.85603-3.58947-3.47065-4.80479l-.37445-.28185h0c-2.56367-1.51211-5.40149-2.5016-8.34952-2.91144l-3.09179-.42974-.54902-.07638c-2.53864-.35281-4.88712-1.54181-6.67439-3.37887h0c-1.7835-2.09176-3.07217-4.55888-3.77-7.21764l-1.22898-4.68266M50.01718,43.17128h0c3.28305-.60972,5.11524-4.14638,3.71957-7.17995l-.72103-1.56731c-.5416-1.17727-1.42436-2.16465-2.53378-2.83424l-2.36581-1.42776c-1.79194-1.08154-3.78495-1.78781-5.858-2.07599l-8.19447-1.13903-1.09631-.15239c-4.4826-.62311-8.38298-3.38519-10.45897-7.40669h0M50.01718,43.17128l.08206.84004c.42882,4.38706-2.87339,8.25187-7.27356,8.51308h0c-.51088.03026-1.02341.01009-1.53026-.06042l-1.17571-.16339c-1.2243-.17017-2.42889-.46091-3.59607-.86791h0c-4.25384-1.48332-7.8324-4.44693-10.08223-8.34998l-.4621-.80153-.1776-.36785c-2.38534-4.93939-3.56508-10.37407-3.4424-15.8579l.14908-6.66751" fill="none" stroke="#14690c" stroke-width=".75656"/><path d="M53.73923,44.98294l-3.37868-1.76388.79841,3.04182c.20382.77668.90725,1.31718,1.71025,1.31416l.23958-.00092c.52023-.00202.99472-.29771,1.22568-.76394.33163-.66959.06721-1.48148-.59524-1.82724Z" fill="#3d9b35" stroke="#14690c" stroke-width=".75656"/><path d="M39.5638,37.47731l-1.44619-1.91315.69701.09691c1.13564.15779,2.25294.42745,3.33568.80501l.38637.13478c.88121.30725,1.72822.70517,2.52718,1.18745.70498.42543,1.36953.91458,1.98522,1.46131l.94466.83885c1.00517.81043,1.63323,1.99814,1.73711,3.28516l.02457.30459c.0464.57424.00083,1.15223-.13487,1.71208l-.29606,1.22164c-.21162.87314-.58084,1.70034-1.08943,2.4409l-.09499.13845c-.58652.85398-1.36376,1.5597-2.27018,2.06123-1.08292.59918-2.31108.88543-3.5473.82675l-1.03662-.04924c-.59826-.02842-1.19286-.10883-1.77718-.24022l-1.68466-.37894c-1.00618-.22638-1.99246-.53381-2.94913-.91935-2.54882-1.02717-4.84605-2.592-6.73509-4.58777l-.1864-.19685-.34044-.45046c-1.92067-2.54084-3.28681-5.45641-4.00995-8.55829l-.89689-3.62743c-.29826-1.20624-.50336-2.43366-.61339-3.67135-.16247-1.82733-.11699-3.66722.13561-5.48429l.24068-1.73152.51556-2.02932-.09554.68711-.27956,2.47474c-.15092,1.33598-.1985,2.68177-.14239,4.02508.05162,1.23595.19089,2.46667.41672,3.6829l.50905,2.74072c.23527,1.26685.56021,2.51544.97225,3.73636l.6067,1.79735c.33897,1.00435.80493,1.96129,1.3865,2.84754l.30449.46403c.55764.84985,1.25309,1.60068,2.05774,2.22168.66235.51116,1.39182.92898,2.16786,1.24172l1.57757.63576c.81547.32861,1.68045.51776,2.55872.55948l.96529.04584c.9982.0474,1.98641-.21712,2.82755-.75679.90587-.5813,1.59078-1.44958,1.94524-2.46593l.07866-.22574c.35162-1.00847.40242-2.09735.14606-3.13415l-.13753-.55636c-.24169-.9773-.67931-1.89527-1.28628-2.69827Z" fill="#14690c" stroke="#14690c" stroke-width=".75656"/><path d="M47.40344,37.03373l-.68738.27534c-.93127.37308-1.50074,1.31993-1.39374,2.3174.07784.72534.50419,1.36734,1.14252,1.72051l1.58848.87873c1.0269.5681,2.25276.65181,3.34733.22848,1.02296-.39554,1.83613-1.19734,2.24616-2.21462l.04969-.12341c.24774-.61467.34896-1.27867.2956-1.93928l-.04245-.52628c-.08774-1.08686-.44725-2.13421-1.04542-3.04586l-.27992-.42653c-.54976-.83775-1.24319-1.5718-2.04848-2.16822l-.81565-.60404c-.96895-.71755-2.02528-1.30884-3.14351-1.75948l-3.62129-1.45939,3.28305,1.62598c1.05441.52225,1.8939,1.39548,2.37425,2.46969l.18713.41846c.26498.59258.35804,1.24768.26865,1.8906l-.04438.31944c-.09801.70526-.47219,1.34267-1.0401,1.77195-.19034.14395-.39902.26177-.62054.35052Z" fill="#14690c" stroke="#14690c" stroke-width=".75656"/></g><g id="e"><path d="M50.60944,35.96162l1.82522-1.57858c1.38246-1.19561,2.99341-2.09809,4.7352-2.65243l6.88463-2.19142.92109-.29313c3.76606-1.19881,6.71491-4.15261,7.9074-7.9206l1.11373,5.71662c.91596,4.70182.7037,9.55374-.61935,14.15764l-.09856.34282-.27919.75816c-1.35972,3.6918-4.00179,6.77148-7.44383,8.67684-.94447.5228-1.93827.95107-2.96691,1.27849l-.98775.3144c-.4258.13551-.86397.22867-1.3082.27809-3.82584.42552-7.23918-2.41303-7.51846-6.25226l-.05345-.73515c-2.91594-.03961-5.01549-2.81279-4.26255-5.63007l.38894-1.45554c.29221-1.09328.90606-2.0736,1.76205-2.81389Z" fill="#14690c" stroke-width="0"/><path d="M52.721,45.86111h0c.27332-1.74353,1.06697-3.36374,2.27706-4.64837l.28066-.29798h0c1.98311-1.68035,4.27933-2.95142,6.75617-3.73975l2.5976-.82684.46128-.14679c2.13283-.67895,3.9785-2.04931,5.24525-3.89461h0c1.22595-2.06397,1.97046-4.3778,2.17822-6.76937l.36574-4.21194M52.721,45.86111h0c-2.91594-.03961-5.01549-2.81279-4.26255-5.63007l.38894-1.45554c.29221-1.09328.90606-2.0736,1.76205-2.81389l1.82522-1.57858c1.38246-1.19561,2.99341-2.09809,4.7352-2.65243l6.88463-2.19142.92109-.29313c3.76606-1.19881,6.71491-4.15261,7.9074-7.9206h0M52.721,45.86111l.05345.73515c.27928,3.83923,3.69262,6.67778,7.51846,6.25226h0c.44423-.04942.8824-.14258,1.3082-.27809l.98775-.3144c1.02864-.32741,2.02244-.75569,2.96691-1.27849h0c3.44204-1.90536,6.08411-4.98505,7.44383-8.67684l.27919-.75816.09856-.34282c1.32305-4.6039,1.53531-9.45582.61935-14.15764l-1.11373-5.71662" fill="none" stroke="#393635" stroke-width=".6607"/><path d="M49.78471,47.97084l2.64738-2.01749-.23765,2.73605c-.0607.69866-.58616,1.26776-1.27776,1.38384l-.20639.03466c-.44808.07518-.90019-.1092-1.16782-.47641-.38435-.52729-.2768-1.2651.24224-1.66064Z" fill="#14690c" stroke="#393635" stroke-width=".6607"/><path d="M60.87761,39.41594l.96199-1.86034-.58561.1864c-.9541.30376-1.87592.70095-2.752,1.18589l-.31265.17311c-.71306.39471-1.3832.86232-1.9997,1.39548-.54389.47036-1.04349.98967-1.49267,1.55117l-.68912.86159c-.74533.84609-1.11043,1.96119-1.00966,3.08427l.02393.2658c.04493.50107.16953.99178.36904,1.45361l.43542,1.00774c.31119.7202.7512,1.37761,1.29839,1.93993l.10223.10507c.63099.64832,1.40429,1.14087,2.25854,1.43867,1.02057.35566,2.12.42048,3.17532.18723l.88497-.19557c.5107-.11287,1.01058-.26993,1.49414-.46935l1.39392-.57515c.83261-.34346,1.63607-.75385,2.40249-1.22706,2.04197-1.26079,3.78788-2.94711,5.11891-4.94406l.13129-.19704.22647-.43799c1.27767-2.4707,2.02254-5.18208,2.18656-7.95874l.23591-3.25463c.0784-1.08228.07353-2.16905-.01467-3.25059-.13019-1.59683-.44129-3.17367-.92723-4.70027l-.46302-1.45471-.74359-1.67045.18374.57717.60633,2.08873c.32733,1.12766.56718,2.27889.71746,3.44341.13817,1.07137.20024,2.15126.18558,3.23143l-.0331,2.43412c-.01531,1.12519-.11039,2.2479-.28469,3.35961l-.25654,1.63662c-.14339.91458-.40297,1.80707-.77256,2.65582l-.19346.44441c-.35437.81382-.84197,1.56281-1.44279,2.21618-.49456.53793-1.06064,1.00526-1.68237,1.38916l-1.26382.78035c-.65337.40343-1.3699.69398-2.11963.85976l-.824.18209c-.85224.18833-1.74188.10673-2.54552-.23353-.86562-.36647-1.58344-1.0125-2.03876-1.83494l-.10104-.18274c-.45174-.81593-.6563-1.74564-.58891-2.6759l.03622-.49924c.06354-.87681.30449-1.73161.70828-2.51251Z" fill="#393635" stroke="#393635" stroke-width=".6607"/><path d="M54.06111,40.19355l.63237.13542c.85664.18347,1.48671.91431,1.542,1.78864.04025.63585-.23179,1.25135-.7291,1.64964l-1.23732.99114c-.79988.64071-1.84264.89386-2.84726.69132-.93888-.18924-1.75738-.75927-2.26055-1.57418l-.06097-.09884c-.30413-.49254-.48934-1.04899-.54105-1.62553l-.04126-.45926c-.08509-.94841.0695-1.90297.44963-2.77602l.17787-.40847c.34942-.80236.83784-1.53659,1.44279-2.16896l.61275-.64044c.72791-.76082,1.5497-1.42583,2.44558-1.97898l2.90108-1.79121-2.58531,1.88464c-.83041.60532-1.42391,1.48103-1.67862,2.47657l-.09921.38784c-.14046.54912-.12378,1.12675.04814,1.66688l.08545.26846c.1886.59248.60486,1.08576,1.1571,1.37137.18511.09572.38215.16632.58588.20996Z" fill="#393635" stroke="#393635" stroke-width=".6607"/></g></svg>