<?xml version="1.0" encoding="UTF-8"?><svg id="a" xmlns="http://www.w3.org/2000/svg" viewBox="0 0 100 100"><g id="b"><path d="M90.72315,87.06165l1.40542-25.36162-13.23204,9.18891-28.66964,6.61616,19.17805,20.95075,9.49159-3.30822,11.82662-8.08598Z" fill="#918d8a" stroke-width="0"/><path d="M50.6593,77.505l-28.36687-6.61606-13.23199-9.55646,1.90274,25.36143,11.32925,8.45382,11.45925,3.67549,16.90762-21.31821Z" fill="#ebe9e7" stroke-width="0"/><path d="M46.18366,54.34896l-33.81524-8.82136-3.30799,16.17243,13.23199,9.18891,28.36687,6.61606-4.47563-23.15604Z" fill="#b5b2b0" stroke-width="0"/><path d="M55.00484,54.32449l33.81515-8.82136,3.30804,16.17243-13.23204,9.18891-28.30182,6.64044,4.41068-23.18043Z" fill="#b5b2b0" stroke-width="0"/><path d="M50.65939,77.505l-16.90762,21.3183,35.65299-.36764-18.74537-20.95066Z" fill="#6e6967" stroke-width="0"/><path d="M55.00512,54.34896l-4.34573-4.41068-4.47563,4.41068,4.47563,23.15604,4.34573-23.15604Z" fill="#c7c4c2" stroke-width="0"/><path d="M78.89599,36.33851l-27.01628-4.41068-29.58737,4.41068-9.7412,9.18891,9.7412,5.14578,28.30183,5.14578,28.30182-5.14578,9.924-5.14578-9.924-9.18891Z" fill="#ebe9e7" stroke-width="0"/></g><g id="c"><path d="M50.60944,35.96162l1.82522-1.57858c1.38246-1.19561,2.99341-2.09809,4.7352-2.65243l6.88463-2.19142.92109-.29313c3.76606-1.19881,6.71491-4.15261,7.9074-7.9206l1.11373,5.71662c.91596,4.70182.7037,9.55374-.61935,14.15764l-.09856.34282-.27919.75816c-1.35972,3.6918-4.00179,6.77148-7.44383,8.67684-.94447.5228-1.93827.95107-2.96691,1.27849l-.98775.3144c-.4258.13551-.86397.22867-1.3082.27809-3.82584.42552-7.23918-2.41303-7.51846-6.25226l-.05345-.73515c-2.91594-.03961-5.01549-2.81279-4.26255-5.63007l.38894-1.45554c.29221-1.09328.90606-2.0736,1.76205-2.81389Z" fill="#14690c" stroke-width="0"/><path d="M52.721,45.86111h0c.27332-1.74353,1.06697-3.36374,2.27706-4.64837l.28066-.29798h0c1.98311-1.68035,4.27933-2.95142,6.75617-3.73975l2.5976-.82684.46128-.14679c2.13283-.67895,3.9785-2.04931,5.24525-3.89461h0c1.22595-2.06397,1.97046-4.3778,2.17822-6.76937l.36574-4.21194M52.721,45.86111h0c-2.91594-.03961-5.01549-2.81279-4.26255-5.63007l.38894-1.45554c.29221-1.09328.90606-2.0736,1.76205-2.81389l1.82522-1.57858c1.38246-1.19561,2.99341-2.09809,4.7352-2.65243l6.88463-2.19142.92109-.29313c3.76606-1.19881,6.71491-4.15261,7.9074-7.9206h0M52.721,45.86111l.05345.73515c.27928,3.83923,3.69262,6.67778,7.51846,6.25226h0c.44423-.04942.8824-.14258,1.3082-.27809l.98775-.3144c1.02864-.32741,2.02244-.75569,2.96691-1.27849h0c3.44204-1.90536,6.08411-4.98505,7.44383-8.67684l.27919-.75816.09856-.34282c1.32305-4.6039,1.53531-9.45582.61935-14.15764l-1.11373-5.71662" fill="none" stroke="#393635" stroke-width=".6607"/><path d="M49.78471,47.97084l2.64738-2.01749-.23765,2.73605c-.0607.69866-.58616,1.26776-1.27776,1.38384l-.20639.03466c-.44808.07518-.90019-.1092-1.16782-.47641-.38435-.52729-.2768-1.2651.24224-1.66064Z" fill="#14690c" stroke="#393635" stroke-width=".6607"/><path d="M60.87761,39.41594l.96199-1.86034-.58561.1864c-.9541.30376-1.87592.70095-2.752,1.18589l-.31265.17311c-.71306.39471-1.3832.86232-1.9997,1.39548-.54389.47036-1.04349.98967-1.49267,1.55117l-.68912.86159c-.74533.84609-1.11043,1.96119-1.00966,3.08427l.02393.2658c.04493.50107.16953.99178.36904,1.45361l.43542,1.00774c.31119.7202.7512,1.37761,1.29839,1.93993l.10223.10507c.63099.64832,1.40429,1.14087,2.25854,1.43867,1.02057.35566,2.12.42048,3.17532.18723l.88497-.19557c.5107-.11287,1.01058-.26993,1.49414-.46935l1.39392-.57515c.83261-.34346,1.63607-.75385,2.40249-1.22706,2.04197-1.26079,3.78788-2.94711,5.11891-4.94406l.13129-.19704.22647-.43799c1.27767-2.4707,2.02254-5.18208,2.18656-7.95874l.23591-3.25463c.0784-1.08228.07353-2.16905-.01467-3.25059-.13019-1.59683-.44129-3.17367-.92723-4.70027l-.46302-1.45471-.74359-1.67045.18374.57717.60633,2.08873c.32733,1.12766.56718,2.27889.71746,3.44341.13817,1.07137.20024,2.15126.18558,3.23143l-.0331,2.43412c-.01531,1.12519-.11039,2.2479-.28469,3.35961l-.25654,1.63662c-.14339.91458-.40297,1.80707-.77256,2.65582l-.19346.44441c-.35437.81382-.84197,1.56281-1.44279,2.21618-.49456.53793-1.06064,1.00526-1.68237,1.38916l-1.26382.78035c-.65337.40343-1.3699.69398-2.11963.85976l-.824.18209c-.85224.18833-1.74188.10673-2.54552-.23353-.86562-.36647-1.58344-1.0125-2.03876-1.83494l-.10104-.18274c-.45174-.81593-.6563-1.74564-.58891-2.6759l.03622-.49924c.06354-.87681.30449-1.73161.70828-2.51251Z" fill="#393635" stroke="#393635" stroke-width=".6607"/><path d="M54.06111,40.19355l.63237.13542c.85664.18347,1.48671.91431,1.542,1.78864.04025.63585-.23179,1.25135-.7291,1.64964l-1.23732.99114c-.79988.64071-1.84264.89386-2.84726.69132-.93888-.18924-1.75738-.75927-2.26055-1.57418l-.06097-.09884c-.30413-.49254-.48934-1.04899-.54105-1.62553l-.04126-.45926c-.08509-.94841.0695-1.90297.44963-2.77602l.17787-.40847c.34942-.80236.83784-1.53659,1.44279-2.16896l.61275-.64044c.72791-.76082,1.5497-1.42583,2.44558-1.97898l2.90108-1.79121-2.58531,1.88464c-.83041.60532-1.42391,1.48103-1.67862,2.47657l-.09921.38784c-.14046.54912-.12378,1.12675.04814,1.66688l.08545.26846c.1886.59248.60486,1.08576,1.1571,1.37137.18511.09572.38215.16632.58588.20996Z" fill="#393635" stroke="#393635" stroke-width=".6607"/></g></svg>