<?xml version="1.0" encoding="UTF-8"?><svg id="a" xmlns="http://www.w3.org/2000/svg" viewBox="0 0 100 100"><path id="b" d="M72.08597,72.17964l2.29063-.75926c1.735-.57516,3.56875-.79181,5.38994-.63705l7.19902.61201.96318.08188c3.93807.33476,7.79325-1.26464,10.33776-4.28886l-1.16031,5.70745c-.95428,4.69412-3.00835,9.09503-5.99351,12.84129l-.22234.279-.54829.5934c-2.66976,2.8898-6.28976,4.723-10.19904,5.16493-1.07265.1213-2.15474.13634-3.23033.04493l-1.03285-.08784c-.44533-.03787-.8857-.11956-1.31499-.24407-3.69711-1.07192-5.76338-5.00118-4.55118-8.65474l.23215-.69958c-2.67846-1.15315-3.5561-4.519-1.78176-6.83319l.91678-1.19561c.68858-.89808,1.63103-1.56859,2.70515-1.92471Z" fill="#727272" stroke-width="0"/><g id="c"><ellipse cx="56.70861" cy="80.51412" rx="43.0931" ry="14.21155" fill="#727272" stroke-width="0"/><path d="M12.2402,78.22193l8.71031-27.96467h57.76309l8.71031,27.96467H12.2402Z" fill="#afafaf" stroke-width="0"/><ellipse cx="49.83205" cy="80.05568" rx="38.05029" ry="12.83624" fill="#afafaf" stroke-width="0"/><path d="M19.62724,54.1184l1.32327-3.86114,42.17623,11.91937-10.6881,2.66251c-3.90194.97198-7.90795,1.46342-11.92909,1.46342h-.86205c-5.32328,0-10.60347-.95346-15.59044-2.81517-3.77056-1.40768-5.73466-5.56167-4.42982-9.36899Z" fill="#a1a1a1" stroke-width="0"/><ellipse cx="49.83205" cy="50.7157" rx="28.88155" ry="12.83624" fill="#8b8b8b" stroke-width="0"/></g><g id="d"><path d="M50.57192,35.75186l-2.36581-1.42776c-1.79194-1.08154-3.78495-1.78781-5.858-2.07599l-8.19447-1.13903-1.09631-.15239c-4.4826-.62311-8.38298-3.38519-10.45897-7.40669l-.14908,6.66751c-.12268,5.48383,1.05706,10.91851,3.4424,15.8579l.1776.36785.4621.80153c2.24983,3.90304,5.82839,6.86666,10.08223,8.34998,1.16718.407,2.37177.69774,3.59607.86791l1.17571.16339c.50685.07051,1.01938.09068,1.53026.06042,4.40017-.26121,7.70239-4.12603,7.27356-8.51308l-.08206-.84004c3.28305-.60972,5.11524-4.14638,3.71957-7.17995l-.72103-1.56731c-.5416-1.17727-1.42436-2.16465-2.53378-2.83424Z" fill="#3d9b35" stroke="#14690c" stroke-width=".75656"/><path d="M50.10716,47.33335h0c-.64631-1.91471-1.85603-3.58947-3.47065-4.80479l-.37445-.28185h0c-2.56367-1.51211-5.40149-2.5016-8.34952-2.91144l-3.09179-.42974-.54902-.07638c-2.53864-.35281-4.88712-1.54181-6.67439-3.37887h0c-1.7835-2.09176-3.07217-4.55888-3.77-7.21764l-1.22898-4.68266M50.10716,47.33335h0c3.28305-.60972,5.11524-4.14638,3.71957-7.17995l-.72103-1.56731c-.5416-1.17727-1.42436-2.16465-2.53378-2.83424l-2.36581-1.42776c-1.79194-1.08154-3.78495-1.78781-5.858-2.07599l-8.19447-1.13903-1.09631-.15239c-4.4826-.62311-8.38298-3.38519-10.45897-7.40669h0M50.10716,47.33335l.08206.84004c.42882,4.38706-2.87339,8.25187-7.27356,8.51308h0c-.51088.03026-1.02341.01009-1.53026-.06042l-1.17571-.16339c-1.2243-.17017-2.42889-.46091-3.59607-.86791h0c-4.25384-1.48332-7.8324-4.44693-10.08223-8.34998l-.4621-.80153-.1776-.36785c-2.38534-4.93939-3.56508-10.37407-3.4424-15.8579l.14908-6.66751" fill="none" stroke="#14690c" stroke-width=".75656"/><path d="M53.82921,49.14501l-3.37868-1.76388.79841,3.04182c.20382.77668.90725,1.31718,1.71025,1.31416l.23958-.00092c.52023-.00202.99472-.29771,1.22568-.76394.33163-.66959.06721-1.48148-.59524-1.82724Z" fill="#3d9b35" stroke="#14690c" stroke-width=".75656"/><path d="M39.65378,41.63938l-1.44619-1.91315.69701.09691c1.13564.15779,2.25294.42745,3.33568.80501l.38637.13478c.88121.30725,1.72822.70517,2.52718,1.18745.70498.42543,1.36953.91458,1.98522,1.46131l.94466.83885c1.00517.81043,1.63323,1.99814,1.73711,3.28516l.02457.30459c.0464.57424.00083,1.15223-.13487,1.71208l-.29606,1.22164c-.21162.87314-.58084,1.70034-1.08943,2.4409l-.09499.13845c-.58652.85398-1.36376,1.5597-2.27018,2.06123-1.08292.59918-2.31108.88543-3.5473.82675l-1.03662-.04924c-.59826-.02842-1.19286-.10883-1.77718-.24022l-1.68466-.37894c-1.00618-.22638-1.99246-.53381-2.94913-.91935-2.54882-1.02717-4.84605-2.592-6.73509-4.58777l-.1864-.19685-.34044-.45046c-1.92067-2.54084-3.28681-5.45641-4.00995-8.55829l-.89689-3.62743c-.29826-1.20624-.50336-2.43366-.61339-3.67135-.16247-1.82733-.11699-3.66722.13561-5.48429l.24068-1.73152.51556-2.02932-.09554.68711-.27956,2.47474c-.15092,1.33598-.1985,2.68177-.14239,4.02508.05162,1.23595.19089,2.46667.41672,3.6829l.50905,2.74072c.23527,1.26685.56021,2.51544.97225,3.73636l.6067,1.79735c.33897,1.00435.80493,1.96129,1.3865,2.84754l.30449.46403c.55764.84985,1.25309,1.60068,2.05774,2.22168.66235.51116,1.39182.92898,2.16786,1.24172l1.57757.63576c.81547.32861,1.68045.51776,2.55872.55948l.96529.04584c.9982.0474,1.98641-.21712,2.82755-.75679.90587-.5813,1.59078-1.44958,1.94524-2.46593l.07866-.22574c.35162-1.00847.40242-2.09735.14606-3.13415l-.13753-.55636c-.24169-.9773-.67931-1.89527-1.28628-2.69827Z" fill="#14690c" stroke="#14690c" stroke-width=".75656"/><path d="M47.49342,41.1958l-.68738.27534c-.93127.37308-1.50074,1.31993-1.39374,2.3174.07784.72534.50419,1.36734,1.14252,1.72051l1.58848.87873c1.0269.5681,2.25276.65181,3.34733.22848,1.02296-.39554,1.83613-1.19734,2.24616-2.21462l.04969-.12341c.24774-.61467.34896-1.27867.2956-1.93928l-.04245-.52628c-.08774-1.08686-.44725-2.13421-1.04542-3.04586l-.27992-.42653c-.54976-.83775-1.24319-1.5718-2.04848-2.16822l-.81565-.60404c-.96895-.71755-2.02528-1.30884-3.14351-1.75948l-3.62129-1.45939,3.28305,1.62598c1.05441.52225,1.8939,1.39548,2.37425,2.46969l.18713.41846c.26498.59258.35804,1.24768.26865,1.8906l-.04438.31944c-.09801.70526-.47219,1.34267-1.0401,1.77195-.19034.14395-.39902.26177-.62054.35052Z" fill="#14690c" stroke="#14690c" stroke-width=".75656"/></g><g id="e"><path d="M50.69942,40.12369l1.82522-1.57858c1.38246-1.19561,2.99341-2.09809,4.7352-2.65243l6.88463-2.19142.92109-.29313c3.76606-1.19881,6.71491-4.15261,7.9074-7.9206l1.11373,5.71662c.91596,4.70182.7037,9.55374-.61935,14.15764l-.09856.34282-.27919.75816c-1.35972,3.6918-4.00179,6.77148-7.44383,8.67684-.94447.5228-1.93827.95107-2.96691,1.27849l-.98775.3144c-.4258.13551-.86397.22867-1.3082.27809-3.82584.42552-7.23918-2.41303-7.51846-6.25226l-.05345-.73515c-2.91594-.03961-5.01549-2.81279-4.26255-5.63007l.38894-1.45554c.29221-1.09328.90606-2.0736,1.76205-2.81389Z" fill="#14690c" stroke-width="0"/><path d="M52.81098,50.02318h0c.27332-1.74353,1.06697-3.36374,2.27706-4.64837l.28066-.29798h0c1.98311-1.68035,4.27933-2.95142,6.75617-3.73975l2.5976-.82684.46128-.14679c2.13283-.67895,3.9785-2.04931,5.24525-3.89461h0c1.22595-2.06397,1.97046-4.3778,2.17822-6.76937l.36574-4.21194M52.81098,50.02318h0c-2.91594-.03961-5.01549-2.81279-4.26255-5.63007l.38894-1.45554c.29221-1.09328.90606-2.0736,1.76205-2.81389l1.82522-1.57858c1.38246-1.19561,2.99341-2.09809,4.7352-2.65243l6.88463-2.19142.92109-.29313c3.76606-1.19881,6.71491-4.15261,7.9074-7.9206h0M52.81098,50.02318l.05345.73515c.27928,3.83923,3.69262,6.67778,7.51846,6.25226h0c.44423-.04942.8824-.14258,1.3082-.27809l.98775-.3144c1.02864-.32741,2.02244-.75569,2.96691-1.27849h0c3.44204-1.90536,6.08411-4.98505,7.44383-8.67684l.27919-.75816.09856-.34282c1.32305-4.6039,1.53531-9.45582.61935-14.15764l-1.11373-5.71662" fill="none" stroke="#393635" stroke-width=".6607"/><path d="M49.87469,52.13291l2.64738-2.01749-.23765,2.73605c-.0607.69866-.58616,1.26776-1.27776,1.38384l-.20639.03466c-.44808.07518-.90019-.1092-1.16782-.47641-.38435-.52729-.2768-1.2651.24224-1.66064Z" fill="#14690c" stroke="#393635" stroke-width=".6607"/><path d="M60.96759,43.57801l.96199-1.86034-.58561.1864c-.9541.30376-1.87592.70095-2.752,1.18589l-.31265.17311c-.71306.39471-1.3832.86232-1.9997,1.39548-.54389.47036-1.04349.98967-1.49267,1.55117l-.68912.86159c-.74533.84609-1.11043,1.96119-1.00966,3.08427l.02393.2658c.04493.50107.16953.99178.36904,1.45361l.43542,1.00774c.31119.7202.7512,1.37761,1.29839,1.93993l.10223.10507c.63099.64832,1.40429,1.14087,2.25854,1.43867,1.02057.35566,2.12.42048,3.17532.18723l.88497-.19557c.5107-.11287,1.01058-.26993,1.49414-.46935l1.39392-.57515c.83261-.34346,1.63607-.75385,2.40249-1.22706,2.04197-1.26079,3.78788-2.94711,5.11891-4.94406l.13129-.19704.22647-.43799c1.27767-2.4707,2.02254-5.18208,2.18656-7.95874l.23591-3.25463c.0784-1.08228.07353-2.16905-.01467-3.25059-.13019-1.59683-.44129-3.17367-.92723-4.70027l-.46302-1.45471-.74359-1.67045.18374.57717.60633,2.08873c.32733,1.12766.56718,2.27889.71746,3.44341.13817,1.07137.20024,2.15126.18558,3.23143l-.0331,2.43412c-.01531,1.12519-.11039,2.2479-.28469,3.35961l-.25654,1.63662c-.14339.91458-.40297,1.80707-.77256,2.65582l-.19346.44441c-.35437.81382-.84197,1.56281-1.44279,2.21618-.49456.53793-1.06064,1.00526-1.68237,1.38916l-1.26382.78035c-.65337.40343-1.3699.69398-2.11963.85976l-.824.18209c-.85224.18833-1.74188.10673-2.54552-.23353-.86562-.36647-1.58344-1.0125-2.03876-1.83494l-.10104-.18274c-.45174-.81593-.6563-1.74564-.58891-2.6759l.03622-.49924c.06354-.87681.30449-1.73161.70828-2.51251Z" fill="#393635" stroke="#393635" stroke-width=".6607"/><path d="M54.15109,44.35562l.63237.13542c.85664.18347,1.48671.91431,1.542,1.78864.04025.63585-.23179,1.25135-.7291,1.64964l-1.23732.99114c-.79988.64071-1.84264.89386-2.84726.69132-.93888-.18924-1.75738-.75927-2.26055-1.57418l-.06097-.09884c-.30413-.49254-.48934-1.04899-.54105-1.62553l-.04126-.45926c-.08509-.94841.0695-1.90297.44963-2.77602l.17787-.40847c.34942-.80236.83784-1.53659,1.44279-2.16896l.61275-.64044c.72791-.76082,1.5497-1.42583,2.44558-1.97898l2.90108-1.79121-2.58531,1.88464c-.83041.60532-1.42391,1.48103-1.67862,2.47657l-.09921.38784c-.14046.54912-.12378,1.12675.04814,1.66688l.08545.26846c.1886.59248.60486,1.08576,1.1571,1.37137.18511.09572.38215.16632.58588.20996Z" fill="#393635" stroke="#393635" stroke-width=".6607"/></g></svg>