<?xml version="1.0" encoding="UTF-8"?><svg id="a" xmlns="http://www.w3.org/2000/svg" viewBox="0 0 100 100"><g id="b"><path d="M90.72315,87.06165l1.40542-25.36162-13.23204,9.18891-28.66964,6.61616,19.17805,20.95075,9.49159-3.30822,11.82662-8.08598Z" fill="#918d8a" stroke-width="0"/><path d="M50.6593,77.505l-28.36687-6.61606-13.23199-9.55646,1.90274,25.36143,11.32925,8.45382,11.45925,3.67549,16.90762-21.31821Z" fill="#ebe9e7" stroke-width="0"/><path d="M46.18366,54.34896l-33.81524-8.82136-3.30799,16.17243,13.23199,9.18891,28.36687,6.61606-4.47563-23.15604Z" fill="#b5b2b0" stroke-width="0"/><path d="M55.00484,54.32449l33.81515-8.82136,3.30804,16.17243-13.23204,9.18891-28.30182,6.64044,4.41068-23.18043Z" fill="#b5b2b0" stroke-width="0"/><path d="M50.65939,77.505l-16.90762,21.3183,35.65299-.36764-18.74537-20.95066Z" fill="#6e6967" stroke-width="0"/><path d="M55.00512,54.34896l-4.34573-4.41068-4.47563,4.41068,4.47563,23.15604,4.34573-23.15604Z" fill="#c7c4c2" stroke-width="0"/><path d="M78.89599,36.33851l-27.01628-4.41068-29.58737,4.41068-9.7412,9.18891,9.7412,5.14578,28.30183,5.14578,28.30182-5.14578,9.924-5.14578-9.924-9.18891Z" fill="#ebe9e7" stroke-width="0"/></g></svg>