<svg width="390" height="134" viewBox="0 0 390 134" fill="none" xmlns="http://www.w3.org/2000/svg">
<path d="M75.8351 83.963C75.8351 69.7038 87.3945 58.1445 101.654 58.1445H106.817V109.781H101.654C87.3945 109.781 75.8351 98.2221 75.8351 83.963Z" fill="#E8CC97"/>
<path d="M75.8351 83.9633C75.8351 72.556 85.0826 63.3086 96.4899 63.3086H106.817V109.782H101.654C87.3945 109.782 75.8351 98.2225 75.8351 83.9633Z" fill="#7D4A3B"/>
<path d="M75.8351 85.6853C75.8351 79.0311 81.2295 73.6367 87.8837 73.6367H106.817V109.783H99.9324C86.6238 109.783 75.8351 98.9939 75.8351 85.6853Z" fill="#B77562"/>
<path d="M313.365 83.963C313.365 69.7038 301.805 58.1445 287.546 58.1445H282.382V109.781H287.546C301.805 109.781 313.365 98.2221 313.365 83.963Z" fill="#E8CC97"/>
<path d="M313.365 83.9633C313.365 72.556 304.117 63.3086 292.71 63.3086H282.383V109.782H287.546C301.806 109.782 313.365 98.2225 313.365 83.9633Z" fill="#7D4A3B"/>
<path d="M313.365 85.6853C313.365 79.0311 307.971 73.6367 301.316 73.6367H282.383V109.783H289.268C302.576 109.783 313.365 98.9939 313.365 85.6853Z" fill="#B77562"/>
<path d="M101.654 78.7998C101.654 55.9851 120.149 37.4902 142.963 37.4902H246.237C269.052 37.4902 287.546 55.9851 287.546 78.7997V114.946C287.546 157.723 252.869 192.401 210.091 192.401H179.109C136.332 192.401 101.654 157.723 101.654 114.946V78.7998Z" fill="#E8CC97"/>
<path d="M194.848 125.272C194.848 113.865 204.096 104.617 215.503 104.617H267.134C278.49 104.617 287.695 113.823 287.695 125.179C287.695 162.304 257.599 192.4 220.474 192.4H194.848V125.272Z" fill="#FAE9C8"/>
<path d="M194.848 125.272C194.848 113.865 185.601 104.617 174.193 104.617H122.563C111.207 104.617 102.001 113.823 102.001 125.179C102.001 162.304 132.097 192.4 169.222 192.4H194.848V125.272Z" fill="#FAE9C8"/>
<path d="M122.308 103.03C122.308 115.315 132.267 125.273 144.552 125.273H156.733C166.239 125.273 173.945 117.567 173.945 108.061V107.201C173.945 97.2191 165.854 89.1276 155.872 89.1276H136.21C128.532 89.1276 122.308 95.3519 122.308 103.03Z" fill="#B77562"/>
<circle cx="155.872" cy="107.2" r="12.9092" fill="#7D4A3B"/>
<circle cx="161.036" cy="102.037" r="2.58184" fill="white"/>
<path d="M266.892 103.03C266.892 115.315 256.933 125.273 244.648 125.273H232.467C222.961 125.273 215.255 117.567 215.255 108.061V107.201C215.255 97.2191 223.346 89.1276 233.328 89.1276H252.989C260.667 89.1276 266.892 95.3519 266.892 103.03Z" fill="#B77562"/>
<circle cx="233.328" cy="107.2" r="12.9092" fill="#7D4A3B"/>
<circle cx="228.164" cy="102.037" r="2.58184" fill="white"/>
<path d="M173.945 132.65C173.945 142.835 182.202 151.092 192.387 151.092H196.813C206.998 151.092 215.254 142.835 215.254 132.65C215.254 128.576 211.952 125.273 207.878 125.273H181.322C177.248 125.273 173.945 128.576 173.945 132.65Z" fill="#7D4A3B"/>
<path d="M195.307 41.3095C195.307 18.4949 213.802 0 236.617 0C236.617 22.8146 218.122 41.3095 195.307 41.3095Z" fill="#E8CC97"/>
<path d="M195.307 41.3095C195.307 18.4949 176.812 0 153.998 0C153.998 22.8146 172.493 41.3095 195.307 41.3095Z" fill="#E8CC97"/>
</svg>
