<?xml version="1.0" encoding="UTF-8" standalone="no"?>
<!DOCTYPE svg PUBLIC "-//W3C//DTD SVG 1.1//EN" "http://www.w3.org/Graphics/SVG/1.1/DTD/svg11.dtd">
<svg xmlns="http://www.w3.org/2000/svg" version="1.1" viewBox="0 0 512 512">
<g stroke-width="2.00" fill="none" stroke-linecap="butt">
<path stroke="#020b2d" vector-effect="non-scaling-stroke" d="
  M 133.75 209.71
  C 132.78 210.20 132.37 211.04 132.54 212.25"
/>
<path stroke="#57818d" vector-effect="non-scaling-stroke" d="
  M 132.54 212.25
  C 131.96 214.82 130.61 216.83 128.50 218.29"
/>
<path stroke="#01425e" vector-effect="non-scaling-stroke" d="
  M 128.50 218.29
  C 127.65 218.69 126.99 218.50 126.50 217.71"
/>
<path stroke="#767f92" vector-effect="non-scaling-stroke" d="
  M 126.50 217.71
  L 123.96 212.73
  C 123.84 212.49 123.51 212.44 123.29 212.62
  C 122.47 213.31 121.87 214.18 121.50 215.21"
/>
<path stroke="#01425e" vector-effect="non-scaling-stroke" d="
  M 121.50 215.21
  L 119.44 218.29
  C 119.28 218.52 119.31 218.87 119.51 219.18
  C 120.27 220.35 121.43 221.71 123.00 223.25
  C 131.59 231.69 140.99 238.29 151.20 243.04
  C 160.08 247.18 169.43 249.25 179.25 249.25
  C 185.15 249.24 190.83 248.82 196.30 247.99"
/>
<path stroke="#017e7c" vector-effect="non-scaling-stroke" d="
  M 196.30 247.99
  C 197.25 248.04 197.74 248.37 197.79 249.00"
/>
<path stroke="#5b7e8f" vector-effect="non-scaling-stroke" d="
  M 197.79 249.00
  C 197.04 252.31 196.44 256.81 196.00 262.50
  C 195.54 268.40 193.79 274.65 190.75 281.25
  C 188.52 286.07 186.12 290.80 183.55 295.44
  C 179.77 302.25 176.93 306.71 175.02 308.82
  C 170.81 313.49 165.39 316.55 158.76 318.02
  C 157.09 318.39 155.48 318.93 153.93 319.64
  C 153.52 319.83 153.45 320.01 153.72 320.18
  C 153.83 320.25 154.01 320.28 154.25 320.25
  C 159.24 319.75 164.24 319.50 169.27 319.50
  C 170.61 319.50 171.77 319.04 172.75 318.12
  C 177.08 314.08 180.77 309.48 183.80 304.31
  C 185.83 300.84 187.73 297.31 189.48 293.70
  C 191.83 288.87 193.48 285.22 194.42 282.75
  C 196.89 276.28 198.19 269.53 198.31 262.50
  C 198.33 261.23 198.40 259.94 198.51 258.62
  C 198.66 256.74 198.66 255.45 198.50 254.75
  C 198.07 252.88 198.17 251.05 198.79 249.25"
/>
<path stroke="#017e7c" vector-effect="non-scaling-stroke" d="
  M 198.79 249.25
  C 200.08 247.28 200.83 245.11 201.04 242.75"
/>
<path stroke="#026577" vector-effect="non-scaling-stroke" d="
  M 201.04 242.75
  C 201.69 240.23 203.16 238.36 205.45 237.13"
/>
<path stroke="#4d818b" vector-effect="non-scaling-stroke" d="
  M 205.45 237.13
  C 205.92 239.42 206.09 241.68 205.95 243.90
  C 205.70 247.91 205.57 250.15 205.58 250.62
  C 205.67 260.34 204.59 269.90 202.36 279.29
  C 201.21 284.14 199.49 289.18 197.22 294.40
  C 195.19 299.07 192.89 303.87 190.31 308.81
  C 185.70 317.64 180.10 325.46 173.50 332.29"
/>
<path stroke="#025574" vector-effect="non-scaling-stroke" d="
  M 173.50 332.29
  C 163.06 341.84 151.71 349.06 139.44 353.94
  C 127.41 358.72 114.59 360.34 101.00 358.79"
/>
<path stroke="#6d8093" vector-effect="non-scaling-stroke" d="
  M 101.00 358.79
  C 99.41 358.72 97.83 358.40 96.26 357.83
  C 95.29 357.48 95.25 357.64 96.14 358.33
  C 101.07 362.16 106.54 364.82 112.54 366.31"
/>
<path stroke="#023c60" vector-effect="non-scaling-stroke" d="
  M 112.54 366.31
  C 118.73 368.72 124.30 370.12 129.25 370.50
  C 147.54 371.90 165.66 369.06 183.63 361.99
  C 198.32 356.21 210.01 347.44 218.69 335.69
  C 230.37 319.87 238.70 301.88 243.68 281.73
  C 244.79 277.21 245.65 272.52 246.25 267.66
  C 246.83 262.98 247.25 258.23 247.52 253.42
  C 247.62 251.58 247.95 251.54 248.51 253.29
  C 251.31 262.05 253.02 271.04 253.63 280.26
  C 254.49 293.39 255.68 306.49 257.20 319.56
  C 257.21 319.58 257.64 323.00 258.50 329.81
  C 261.13 350.54 262.05 372.36 261.25 395.25
  C 260.58 414.40 253.87 430.74 241.12 444.26"
/>
<path stroke="#035b88" vector-effect="non-scaling-stroke" d="
  M 241.12 444.26
  C 235.04 449.97 228.38 455.03 221.15 459.46
  C 220.36 459.94 220.31 460.20 220.99 460.24
  C 221.14 460.25 221.32 460.23 221.51 460.18
  C 239.49 455.72 253.76 446.10 264.31 431.31
  C 268.36 425.64 271.92 419.12 274.99 411.75"
/>
<path stroke="#014065" vector-effect="non-scaling-stroke" d="
  M 274.99 411.75
  C 280.03 401.66 284.11 391.22 287.23 380.43
  C 289.08 374.02 290.48 367.51 291.41 360.89
  C 292.98 349.81 293.51 338.85 293.00 328.00
  C 292.47 316.66 291.27 305.03 289.42 293.10
  C 288.05 284.30 287.05 277.71 286.41 273.34
  C 285.04 263.90 283.39 254.47 281.46 245.06
  C 281.37 244.63 281.78 244.26 282.20 244.39
  C 284.01 244.96 285.76 245.83 287.45 247.00
  C 293.89 251.45 299.44 256.83 304.09 263.13
  C 307.85 268.22 312.51 274.15 318.06 280.94
  C 327.18 292.07 337.49 301.52 349.00 309.28
  C 357.39 314.95 366.48 319.10 376.25 321.73
  C 383.62 323.72 390.29 323.97 396.25 322.50
  C 401.69 321.15 406.28 318.40 410.01 314.24
  C 410.70 313.47 410.55 313.25 409.57 313.56
  C 404.40 315.19 399.03 316.46 393.48 317.38"
/>
<path stroke="#051545" vector-effect="non-scaling-stroke" d="
  M 393.48 317.38
  C 386.07 316.07 379.60 314.00 374.06 311.19
  C 366.97 307.59 359.97 302.67 353.06 296.44
  C 350.80 294.40 348.36 291.13 345.75 286.62
  C 344.53 284.51 343.35 282.72 342.22 281.25
  C 340.92 279.54 339.61 277.84 338.30 276.14
  C 338.12 275.91 337.83 275.76 337.50 275.75
  C 335.83 275.66 334.78 274.80 334.34 273.15
  C 334.25 272.80 334.13 272.56 334.00 272.43
  C 333.79 272.22 333.54 272.09 333.25 272.04"
/>
<path stroke="#014065" vector-effect="non-scaling-stroke" d="
  M 333.25 272.04
  C 327.74 263.62 321.97 253.46 315.94 241.56
  C 312.37 234.53 307.60 227.28 301.63 219.83
  C 301.38 219.52 301.29 219.17 301.42 218.96
  C 301.57 218.73 301.84 218.64 302.25 218.71"
/>
<path stroke="#003356" vector-effect="non-scaling-stroke" d="
  M 302.25 218.71
  C 305.45 220.76 308.60 222.89 311.70 225.09
  C 316.12 228.22 319.30 230.30 321.24 231.31
  C 327.28 234.47 333.65 236.51 340.35 237.44
  C 346.61 238.31 353.21 238.33 360.14 237.52
  C 367.39 236.67 374.41 234.72 381.20 231.68
  C 381.49 231.55 381.62 231.21 381.47 230.94
  L 377.75 223.96"
/>
<path stroke="#3d7d8c" vector-effect="non-scaling-stroke" d="
  M 377.75 223.96
  L 374.21 217.75"
/>
<path stroke="#026b77" vector-effect="non-scaling-stroke" d="
  M 374.21 217.75
  L 371.04 212.16
  C 370.90 211.92 370.58 211.82 370.28 211.92
  C 362.75 214.58 354.33 215.52 345.00 214.75
  C 335.24 213.94 326.99 210.67 320.25 204.96"
/>
<path stroke="#011942" vector-effect="non-scaling-stroke" d="
  M 320.25 204.96
  C 320.68 204.35 321.20 203.86 321.81 203.49
  C 322.06 203.34 322.40 203.37 322.65 203.56
  C 325.83 205.96 329.18 207.54 332.69 208.31
  C 339.25 209.74 346.11 209.90 353.26 208.80
  C 355.04 208.52 356.15 207.60 356.58 206.04
  C 356.64 205.81 356.44 205.59 356.19 205.61
  C 352.20 205.96 349.64 205.93 348.50 205.50
  C 344.01 203.81 339.83 201.57 335.97 198.77
  C 334.20 197.48 332.48 196.22 330.81 194.99
  C 329.24 193.83 327.58 192.48 325.81 190.94
  C 317.34 183.54 308.69 183.35 299.85 190.36
  C 298.77 191.23 298.07 192.34 297.75 193.71"
/>
<path stroke="#017e7c" vector-effect="non-scaling-stroke" d="
  M 297.75 193.71
  L 293.35 194.46"
/>
<path stroke="#003356" vector-effect="non-scaling-stroke" d="
  M 293.35 194.46
  C 295.08 191.27 297.14 188.37 299.54 185.75"
/>
<path stroke="#01133c" vector-effect="non-scaling-stroke" d="
  M 299.54 185.75
  C 301.54 184.32 307.46 179.84 317.31 172.31
  C 328.51 163.74 335.60 152.85 338.58 139.64
  C 339.13 137.19 339.13 134.93 338.57 132.86
  C 337.34 128.35 334.91 124.44 331.27 121.13"
/>
<path stroke="#003356" vector-effect="non-scaling-stroke" d="
  M 331.27 121.13
  C 329.78 118.38 327.46 115.65 324.31 112.94
  C 313.07 103.22 300.90 95.91 287.79 91.00"
/>
<path stroke="#017b78" vector-effect="non-scaling-stroke" d="
  M 287.79 91.00
  C 280.10 87.81 272.22 86.09 264.16 85.86"
/>
<path stroke="#017e7c" vector-effect="non-scaling-stroke" d="
  M 264.16 85.86
  C 251.70 85.39 239.52 85.84 227.61 87.23"
/>
<path stroke="#44818a" vector-effect="non-scaling-stroke" d="
  M 227.61 87.23
  C 220.03 88.75 215.43 89.69 213.81 90.06
  C 206.23 91.81 199.18 94.57 192.67 98.34"
/>
<path stroke="#7e8194" vector-effect="non-scaling-stroke" d="
  M 192.67 98.34
  C 190.22 99.21 188.32 100.58 186.97 102.43"
/>
<path stroke="#171e3c" vector-effect="non-scaling-stroke" d="
  M 186.97 102.43
  C 183.44 105.20 180.96 108.64 179.53 112.77
  C 179.28 113.48 179.20 114.65 179.28 116.29
  C 179.36 117.77 179.01 119.14 178.23 120.39"
/>
<path stroke="#01133c" vector-effect="non-scaling-stroke" d="
  M 171.50 103.04
  L 172.70 102.78
  C 172.99 102.72 173.20 102.47 173.20 102.19
  L 173.02 90.75
  C 173.01 90.42 172.89 90.11 172.68 89.88
  C 172.27 89.45 171.91 89.22 171.61 89.21
  C 170.94 89.19 170.40 88.67 170.35 88.00
  C 170.06 83.53 169.94 79.71 169.98 76.54
  C 169.98 76.48 169.96 75.62 169.91 73.96
  C 169.85 71.83 170.27 69.80 171.16 67.87
  C 171.31 67.55 171.66 67.07 172.21 66.43
  C 172.71 65.86 172.96 65.29 172.95 64.72
  C 172.94 63.85 172.09 63.24 171.26 63.50
  C 165.49 65.31 159.84 67.39 154.29 69.76
  C 147.23 72.77 139.89 73.96 132.26 73.31
  C 132.24 73.30 131.45 73.15 129.90 72.85
  C 128.22 72.53 127.42 73.23 127.50 74.96"
/>
<path stroke="#808898" vector-effect="non-scaling-stroke" d="
  M 185.94 135.17
  C 183.84 133.92 182.36 132.10 181.50 129.71"
/>
<path stroke="#959ca7" vector-effect="non-scaling-stroke" d="
  M 181.50 129.71
  C 181.39 120.30 183.21 111.20 186.97 102.43"
/>
<path stroke="#9bffef" vector-effect="non-scaling-stroke" d="
  M 205.68 191.93
  C 204.87 193.50 204.69 194.82 205.14 195.87
  C 205.75 197.28 205.87 198.74 205.50 200.23
  C 204.99 202.32 204.56 204.43 204.21 206.55
  C 203.78 209.14 203.25 211.22 202.62 212.78
  C 201.38 215.84 199.86 218.77 198.06 221.56
  C 197.59 222.30 197.07 224.35 196.50 227.71"
/>
<path stroke="#58c0c3" vector-effect="non-scaling-stroke" d="
  M 195.75 228.54
  C 194.34 229.91 192.67 230.80 190.74 231.21
  C 185.21 232.38 179.63 233.29 174.02 233.94
  C 171.05 234.29 167.55 234.06 163.50 233.25
  C 153.85 231.32 145.31 228.21 137.88 223.91
  C 134.72 222.09 131.59 220.22 128.50 218.29"
/>
<path stroke="#192640" vector-effect="non-scaling-stroke" d="
  M 181.50 129.71
  C 180.27 130.32 180.04 131.23 180.81 132.44
  C 181.54 133.58 182.04 134.60 182.29 135.50"
/>
<path stroke="#959ca7" vector-effect="non-scaling-stroke" d="
  M 182.29 135.50
  C 181.93 135.99 181.92 136.60 182.26 137.33"
/>
<path stroke="#192640" vector-effect="non-scaling-stroke" d="
  M 182.26 137.33
  C 179.43 138.18 177.73 137.17 177.15 134.30"
/>
<path stroke="#065282" vector-effect="non-scaling-stroke" d="
  M 333.25 272.04
  C 337.90 280.07 342.88 287.24 348.19 293.56
  C 351.33 297.31 354.90 300.77 358.91 303.95
  C 363.74 307.79 367.81 310.62 371.12 312.44
  C 377.91 316.18 385.37 317.83 393.48 317.38"
/>
<path stroke="#0497c5" vector-effect="non-scaling-stroke" d="
  M 274.99 411.75
  L 280.96 386.25"
/>
<path stroke="#02afc5" vector-effect="non-scaling-stroke" d="
  M 280.96 386.25
  L 283.46 365.00"
/>
<path stroke="#45969b" vector-effect="non-scaling-stroke" d="
  M 193.43 120.71
  C 192.25 122.41 191.57 124.48 191.39 126.93"
/>
<path stroke="#46898f" vector-effect="non-scaling-stroke" d="
  M 190.29 130.75
  L 185.94 135.17"
/>
<path stroke="#c2fff6" vector-effect="non-scaling-stroke" d="
  M 185.94 135.17
  C 185.02 130.46 184.96 125.48 185.75 120.25
  C 186.97 112.20 189.28 104.90 192.67 98.34"
/>
<path stroke="#01aba6" vector-effect="non-scaling-stroke" d="
  M 287.79 91.00
  C 286.08 95.11 285.32 99.19 285.50 103.25
  C 285.71 108.13 286.55 113.37 288.00 118.96"
/>
<path stroke="#028084" vector-effect="non-scaling-stroke" d="
  M 288.00 118.96
  C 285.68 121.01 283.12 122.66 280.31 123.92
  C 279.84 124.13 279.41 124.18 279.02 124.08
  C 278.12 123.85 278.01 123.30 278.69 122.44
  C 280.43 120.23 282.18 116.57 283.94 111.48
  C 284.16 110.86 284.11 110.48 283.80 110.35
  C 283.57 110.26 283.23 110.38 282.94 110.66
  C 281.86 111.72 280.80 113.08 279.75 114.75
  C 278.24 117.16 276.06 118.85 273.23 119.84
  C 272.93 119.94 272.59 119.95 272.27 119.85
  C 267.86 118.53 263.51 117.99 259.24 118.23"
/>
<path stroke="#598891" vector-effect="non-scaling-stroke" d="
  M 201.50 184.29
  L 197.77 182.75
  C 197.47 182.63 197.42 182.70 197.61 182.95
  C 199.46 185.38 200.66 188.06 201.19 190.97
  C 201.65 193.48 201.46 196.31 200.63 199.46
  C 198.32 208.22 193.25 214.51 185.41 218.34
  C 181.68 220.16 177.27 221.13 172.16 221.24
  C 166.91 221.36 161.86 220.86 157.00 219.75
  C 149.52 218.04 141.37 215.54 132.54 212.25"
/>
<path stroke="#808898" vector-effect="non-scaling-stroke" d="
  M 182.26 137.33
  C 182.81 138.72 183.46 138.92 184.22 137.92
  C 184.40 137.68 184.37 137.34 184.15 137.15
  L 182.29 135.50"
/>
<path stroke="#02abc0" vector-effect="non-scaling-stroke" d="
  M 263.79 317.25
  C 264.79 329.82 266.36 342.32 268.50 354.75
  C 269.04 357.88 269.47 363.21 269.79 370.75"
/>
<path stroke="#0493c0" vector-effect="non-scaling-stroke" d="
  M 269.79 370.75
  C 269.94 379.98 269.76 387.32 269.25 392.75
  C 268.30 402.94 265.25 413.08 260.12 423.15
  C 255.67 431.87 249.34 438.91 241.12 444.26"
/>
<path stroke="#4fe2da" vector-effect="non-scaling-stroke" d="
  M 205.91 229.58
  L 205.45 237.13"
/>
<path stroke="#76bec8" vector-effect="non-scaling-stroke" d="
  M 126.50 217.71
  L 121.50 215.21"
/>
<path stroke="#4fd3d7" vector-effect="non-scaling-stroke" d="
  M 191.00 319.96
  C 187.21 324.31 182.99 328.17 178.34 331.56
  C 177.68 332.03 176.40 332.60 174.50 333.25
  C 173.69 333.52 173.36 333.20 173.50 332.29"
/>
<path stroke="#038191" vector-effect="non-scaling-stroke" d="
  M 320.25 204.96
  C 315.21 200.72 309.63 197.41 303.50 195.04"
/>
<path stroke="#017093" vector-effect="non-scaling-stroke" d="
  M 302.25 218.71
  C 302.06 218.44 301.81 218.21 301.50 218.04"
/>
<path stroke="#01f6cb" vector-effect="non-scaling-stroke" d="
  M 264.16 85.86
  C 259.77 96.20 258.13 106.99 259.24 118.23"
/>
<path stroke="#028488" vector-effect="non-scaling-stroke" d="
  M 259.24 118.23
  C 253.77 118.78 249.21 120.48 245.56 123.31
  C 235.69 130.98 231.18 140.66 232.05 152.35
  C 232.48 158.12 234.14 163.50 237.03 168.51
  C 239.98 173.62 243.89 177.89 248.77 181.32
  C 252.70 184.09 256.78 185.68 261.02 186.11
  C 265.56 186.56 270.07 185.99 274.54 184.38"
/>
<path stroke="#01aeaa" vector-effect="non-scaling-stroke" d="
  M 274.54 184.38
  C 277.07 185.01 278.39 186.55 278.50 189.00
  C 278.56 190.45 278.51 191.72 278.36 192.83
  C 278.21 193.92 277.65 195.01 276.69 196.12
  C 274.77 198.33 272.90 200.57 271.07 202.85
  C 270.85 203.12 270.91 203.28 271.24 203.32
  C 273.85 203.61 276.02 202.76 277.77 200.77
  C 279.58 198.71 281.01 197.47 282.06 197.06
  C 283.89 196.35 287.65 195.49 293.35 194.46"
/>
<path stroke="#029496" vector-effect="non-scaling-stroke" d="
  M 297.75 193.71
  C 299.76 193.78 301.67 194.22 303.50 195.04"
/>
<path stroke="#02e6cb" vector-effect="non-scaling-stroke" d="
  M 303.50 195.04
  C 302.49 195.93 301.89 196.99 301.72 198.23
  C 301.48 199.92 301.35 200.79 301.34 200.84
  C 301.01 202.01 300.64 203.18 300.23 204.33
  C 299.42 206.64 300.15 208.05 302.44 208.56
  C 304.15 208.95 306.20 209.71 308.59 210.84
  C 308.65 210.87 309.48 211.21 311.09 211.87
  C 312.49 212.44 313.71 213.30 314.75 214.46"
/>
<path stroke="#3ef8e0" vector-effect="non-scaling-stroke" d="
  M 314.75 214.46
  C 311.06 213.31 310.21 213.93 312.19 216.32
  C 312.90 217.17 312.71 217.56 311.60 217.49
  C 310.15 217.39 308.86 217.88 307.75 218.96"
/>
<path stroke="#01aeaa" vector-effect="non-scaling-stroke" d="
  M 307.75 218.96
  C 307.09 218.81 306.49 218.55 305.95 218.18
  C 305.14 217.63 304.57 217.33 304.26 217.27
  C 303.27 217.09 302.35 217.35 301.50 218.04"
/>
<path stroke="#02bbb9" vector-effect="non-scaling-stroke" d="
  M 301.50 218.04
  C 296.06 217.22 291.58 217.89 288.06 220.06
  C 286.00 221.33 281.34 225.08 274.09 231.29
  C 270.14 234.67 267.81 236.87 267.10 237.90
  C 265.18 240.67 264.40 243.95 264.75 247.75
  C 265.60 256.86 267.44 266.02 270.25 275.25
  C 271.90 280.65 273.94 289.36 276.38 301.38
  C 278.64 312.52 279.95 319.06 280.31 320.99
  C 281.79 328.94 282.85 336.53 283.50 343.75
  C 284.08 350.20 284.07 357.29 283.46 365.00"
/>
<path stroke="#01eedc" vector-effect="non-scaling-stroke" d="
  M 283.46 365.00
  C 283.13 365.48 282.72 365.63 282.25 365.44
  C 281.99 365.34 281.81 365.04 281.81 364.69
  C 281.79 356.86 281.32 349.07 280.41 341.31
  C 280.12 338.84 279.81 335.46 279.50 331.15
  C 279.25 327.75 278.83 324.37 278.25 321.00
  C 277.72 317.95 275.89 316.55 272.75 316.80
  C 270.20 317.00 267.71 316.72 265.29 315.97
  C 265.08 315.90 264.87 316.08 264.88 316.31
  C 264.94 317.18 264.58 317.50 263.79 317.25"
/>
<path stroke="#02b7b4" vector-effect="non-scaling-stroke" d="
  M 263.79 317.25
  C 263.05 308.59 262.37 299.92 261.75 291.25
  C 261.01 280.88 259.00 270.78 255.71 260.93
  C 253.78 255.13 251.63 249.41 249.27 243.78
  C 248.42 241.75 247.39 240.09 246.19 238.81
  C 245.09 237.64 243.71 237.37 242.04 238.00"
/>
<path stroke="#6efbe6" vector-effect="non-scaling-stroke" d="
  M 242.04 238.00
  C 241.67 237.69 241.31 237.62 240.96 237.78
  C 240.72 237.89 240.53 238.14 240.40 238.54
  C 239.76 240.57 239.19 243.12 238.69 246.19
  C 237.04 256.35 234.49 267.10 231.06 278.44
  C 225.47 296.87 216.94 313.81 205.46 329.25"
/>
<path stroke="#03d0c8" vector-effect="non-scaling-stroke" d="
  M 205.46 329.25
  C 203.82 327.56 201.99 326.13 199.97 324.97
  C 198.69 324.24 197.24 323.34 195.62 322.27
  C 194.19 321.32 192.65 320.55 191.00 319.96"
/>
<path stroke="#4efcde" vector-effect="non-scaling-stroke" d="
  M 191.00 319.96
  C 195.81 314.80 200.24 308.50 204.31 301.06
  C 211.38 288.13 214.91 274.60 214.88 260.48
  C 214.87 258.12 214.55 255.16 213.90 251.59
  C 213.37 248.66 212.90 245.71 212.50 242.75
  C 211.90 238.33 209.70 233.94 205.91 229.58"
/>
<path stroke="#03e0cb" vector-effect="non-scaling-stroke" d="
  M 205.91 229.58
  C 204.96 230.57 204.24 231.66 203.75 232.85
  C 203.22 234.12 202.68 235.27 202.12 236.30
  C 201.05 238.27 200.69 240.42 201.04 242.75"
/>
<path stroke="#5cf9e2" vector-effect="non-scaling-stroke" d="
  M 198.79 249.25
  C 198.52 248.97 198.18 248.89 197.79 249.00"
/>
<path stroke="#01bdb2" vector-effect="non-scaling-stroke" d="
  M 196.30 247.99
  C 198.01 243.00 198.27 238.02 197.06 233.04
  C 196.99 232.76 196.83 232.49 196.58 232.22
  C 195.61 231.19 195.34 229.96 195.75 228.54"
/>
<path stroke="#58fce0" vector-effect="non-scaling-stroke" d="
  M 195.75 228.54
  L 196.50 227.71"
/>
<path stroke="#44fcde" vector-effect="non-scaling-stroke" d="
  M 196.50 227.71
  C 200.90 223.42 204.17 218.62 206.31 213.31
  C 209.16 206.24 208.95 199.11 205.68 191.93"
/>
<path stroke="#58fce0" vector-effect="non-scaling-stroke" d="
  M 205.68 191.93
  C 203.49 189.77 202.10 187.22 201.50 184.29"
/>
<path stroke="#038680" vector-effect="non-scaling-stroke" d="
  M 201.50 184.29
  C 208.27 186.73 214.18 185.55 219.25 180.75
  C 221.17 178.93 222.50 177.18 223.25 175.50
  C 224.23 173.28 225.14 170.58 225.99 167.41
  C 226.75 164.56 227.16 161.76 227.23 158.99
  C 227.36 153.32 226.79 148.24 225.50 143.75
  C 224.65 140.78 222.96 137.65 220.43 134.34
  C 219.15 132.67 218.41 131.75 218.21 131.56
  C 217.42 130.81 216.37 130.18 215.06 129.69
  C 206.33 126.38 198.07 126.73 190.29 130.75"
/>
<path stroke="#44fcde" vector-effect="non-scaling-stroke" d="
  M 190.29 130.75
  C 190.32 129.29 190.69 128.02 191.39 126.93"
/>
<path stroke="#02938d" vector-effect="non-scaling-stroke" d="
  M 191.39 126.93
  C 196.77 124.45 202.89 123.89 209.75 125.25
  C 211.72 125.64 212.43 125.24 211.88 124.05
  C 211.65 123.58 211.25 123.20 210.68 122.91
  C 208.99 122.06 206.68 121.26 203.75 120.50
  C 200.08 119.55 196.64 119.62 193.43 120.71"
/>
<path stroke="#44fcde" vector-effect="non-scaling-stroke" d="
  M 193.43 120.71
  C 194.22 116.34 195.76 112.22 198.03 108.35
  C 200.05 104.92 202.89 102.48 206.56 101.05
  C 207.92 100.52 209.20 100.46 210.40 100.88
  C 210.47 100.91 211.56 101.44 213.67 102.49
  C 214.99 103.14 216.12 103.89 217.06 104.73
  C 217.49 105.12 218.19 104.96 218.40 104.41
  C 220.83 98.08 223.90 92.36 227.61 87.23"
/>
<path stroke="#6fb9cb" vector-effect="non-scaling-stroke" d="
  M 242.04 238.00
  C 240.22 267.29 232.05 294.64 217.53 320.05
  C 212.79 328.34 207.34 336.13 201.17 343.42
  C 196.20 349.28 190.08 353.83 182.81 357.06
  C 172.36 361.71 161.75 365.01 150.99 366.95
  C 138.12 369.27 125.31 369.06 112.54 366.31"
/>
<path stroke="#6fd2df" vector-effect="non-scaling-stroke" d="
  M 101.00 358.79
  C 102.64 360.32 104.31 361.23 106.00 361.50
  C 115.59 363.04 125.38 363.39 135.37 362.55
  C 140.92 362.08 146.50 361.12 152.10 359.66
  C 157.89 358.15 163.27 356.34 168.25 354.25
  C 172.98 352.26 177.15 350.58 180.77 349.22
  C 185.51 347.43 188.68 346.01 190.28 344.95
  C 193.02 343.14 195.66 340.81 198.19 337.94
  C 201.89 333.75 204.31 330.85 205.46 329.25"
/>
<path stroke="#3fe5db" vector-effect="non-scaling-stroke" d="
  M 374.21 217.75
  C 360.15 223.12 345.72 224.24 330.93 221.12
  C 325.12 219.89 319.73 217.67 314.75 214.46"
/>
<path stroke="#3dadba" vector-effect="non-scaling-stroke" d="
  M 377.75 223.96
  C 372.74 226.35 367.26 228.05 361.31 229.06
  C 348.42 231.26 335.88 230.51 323.69 226.81
  C 320.08 225.72 314.76 223.10 307.75 218.96"
/>
<path stroke="#01436a" vector-effect="non-scaling-stroke" d="
  M 331.27 121.13
  C 329.12 136.53 322.92 149.88 312.69 161.19
  C 310.90 163.16 307.16 166.65 301.48 171.64
  C 299.85 173.07 298.83 174.38 298.42 175.59
  C 297.85 177.24 297.80 179.00 298.27 180.85
  C 298.68 182.48 299.11 184.12 299.54 185.75"
/>
<path stroke="#013963" vector-effect="non-scaling-stroke" d="
  M 274.54 184.38
  C 281.11 181.89 285.99 178.16 289.19 173.19
  C 295.03 164.10 296.79 153.81 294.46 142.31"
/>
<path stroke="#1a9dad" vector-effect="non-scaling-stroke" d="
  M 294.46 142.31
  C 295.09 138.92 294.56 135.70 292.86 132.67"
/>
<path stroke="#013963" vector-effect="non-scaling-stroke" d="
  M 292.86 132.67
  C 296.61 129.76 299.24 125.95 300.75 121.24
  C 301.13 120.07 300.90 119.93 300.07 120.84
  C 297.67 123.46 294.73 125.67 291.25 127.46"
/>
<path stroke="#1a9dad" vector-effect="non-scaling-stroke" d="
  M 291.25 127.46
  L 289.25 123.96"
/>
<path stroke="#013963" vector-effect="non-scaling-stroke" d="
  M 289.25 123.96
  C 290.57 121.52 291.94 119.11 293.37 116.73
  C 293.63 116.29 293.79 115.91 293.86 115.59
  C 294.05 114.63 293.67 114.29 292.72 114.56
  C 292.33 114.67 291.95 114.92 291.56 115.31
  C 290.37 116.51 289.18 117.73 288.00 118.96"
/>
<path stroke="#03cae8" vector-effect="non-scaling-stroke" d="
  M 280.96 386.25
  C 278.71 386.39 276.67 385.88 274.82 384.73
  C 274.65 384.62 274.66 384.52 274.83 384.43
  C 275.38 384.15 275.33 383.99 274.66 383.95
  C 274.44 383.94 274.24 383.83 274.10 383.66
  C 273.51 382.95 272.75 382.55 271.81 382.44
  C 270.68 382.31 270.07 380.92 270.00 378.25
  L 269.79 370.75"
/>
<path stroke="#1b738c" vector-effect="non-scaling-stroke" d="
  M 289.25 123.96
  L 285.89 127.95
  C 285.65 128.23 285.55 128.56 285.65 128.80
  C 285.78 129.14 286.06 129.29 286.50 129.25
  C 288.07 129.12 289.66 128.52 291.25 127.46"
/>
<path stroke="#1b738c" vector-effect="non-scaling-stroke" d="
  M 292.86 132.67
  L 290.79 134.06
  C 290.57 134.20 290.50 134.51 290.64 134.77
  L 294.46 142.31"
/>
<path stroke="#717f91" vector-effect="non-scaling-stroke" d="
  M 177.71 36.25
  L 174.21 39.20
  C 173.86 39.49 173.67 40.06 173.70 40.72
  L 174.83 65.17
  C 174.85 65.60 174.67 66.03 174.33 66.34
  C 173.19 67.37 172.49 68.45 172.22 69.60
  C 171.25 73.77 171.01 77.99 171.50 82.25
  C 171.71 84.10 171.76 85.67 171.63 86.95
  C 171.59 87.27 171.74 87.57 172.00 87.70
  C 172.47 87.93 172.96 87.99 173.46 87.86
  C 173.74 87.79 173.93 87.51 173.94 87.18
  C 173.97 86.27 174.08 85.36 174.28 84.47
  C 174.30 84.36 174.35 84.26 174.42 84.19
  C 174.65 83.94 174.77 84.03 174.78 84.44
  C 174.89 88.53 176.35 89.01 179.16 85.86"
/>
<path stroke="#2e7c85" vector-effect="non-scaling-stroke" d="
  M 179.16 85.86
  C 178.77 87.69 179.54 88.27 181.47 87.61
  C 181.77 87.51 181.98 87.24 181.97 86.94
  L 181.72 77.17"
/>
<path stroke="#01133c" vector-effect="non-scaling-stroke" d="
  M 181.72 77.17
  C 182.75 76.97 183.70 76.77 184.58 76.57
  C 185.49 76.37 186.40 76.04 187.30 75.58
  C 197.83 70.18 208.66 65.46 219.77 61.41
  C 222.34 60.48 225.04 59.65 227.85 58.94
  C 230.58 58.25 233.31 57.59 236.05 56.95
  C 257.12 52.04 277.70 53.50 297.78 61.31
  C 298.04 61.42 298.33 61.29 298.41 61.04
  C 298.77 59.87 298.75 58.70 298.36 57.53
  C 298.27 57.25 298.01 57.03 297.69 56.96
  C 296.22 56.65 294.81 56.17 293.46 55.52
  C 282.19 50.12 270.28 47.20 257.75 46.75
  C 248.91 46.44 239.25 46.85 228.78 48.00
  C 228.71 48.01 225.86 48.23 220.21 48.68
  C 215.08 49.09 209.83 50.18 204.44 51.94
  C 195.84 54.75 188.37 57.52 182.04 60.27
  C 181.05 60.70 180.39 61.26 180.07 61.93
  C 179.60 62.90 179.64 63.86 180.19 64.81
  C 180.74 65.78 180.51 66.35 179.50 66.54"
/>
<path stroke="#2e7c85" vector-effect="non-scaling-stroke" d="
  M 179.50 66.54
  L 179.04 66.00"
/>
<path stroke="#717f91" vector-effect="non-scaling-stroke" d="
  M 179.04 66.00
  C 178.54 59.09 178.19 52.18 178.00 45.25
  C 177.92 42.26 178.50 39.94 179.75 38.29"
/>
<path stroke="#9ef8ed" vector-effect="non-scaling-stroke" d="
  M 179.04 66.00
  L 178.40 66.69
  C 178.17 66.94 178.08 67.24 178.15 67.48
  C 178.44 68.38 178.73 69.28 179.04 70.17
  C 179.37 71.13 179.57 72.05 179.65 72.92
  C 180.06 77.27 179.89 81.59 179.16 85.86"
/>
<path stroke="#2f8c99" vector-effect="non-scaling-stroke" d="
  M 181.72 77.17
  C 182.58 73.22 181.84 69.67 179.50 66.54"
/>
<path stroke="#1a6d7f" vector-effect="non-scaling-stroke" d="
  M 360.15 170.38
  C 359.46 172.23 360.20 172.38 362.36 170.81
  C 363.04 170.31 363.44 169.52 363.43 168.68
  C 363.42 166.75 363.08 164.53 362.43 162.02
  C 361.94 160.14 360.80 158.88 358.99 158.25
  C 358.37 158.03 358.21 158.21 358.52 158.79
  C 360.19 161.96 360.86 165.34 360.52 168.95
  C 360.49 169.34 360.36 169.81 360.15 170.38"
/>
<path stroke="#026577" vector-effect="non-scaling-stroke" d="
  M 403.14 161.95
  C 398.81 165.26 395.45 168.72 393.06 172.31
  C 389.95 177.00 389.42 182.16 391.48 187.80"
/>
<path stroke="#387f8c" vector-effect="non-scaling-stroke" d="
  M 391.48 187.80
  C 391.79 189.75 392.55 190.31 393.75 189.46"
/>
<path stroke="#003356" vector-effect="non-scaling-stroke" d="
  M 393.75 189.46
  C 395.66 189.43 396.66 188.53 396.75 186.75
  C 396.77 186.39 396.87 186.07 397.03 185.83
  C 399.18 182.79 402.16 181.19 405.99 181.04
  C 408.58 180.94 410.56 180.66 411.94 180.19
  C 413.83 179.54 415.17 178.21 415.94 176.19
  C 417.35 172.50 417.51 168.86 416.41 165.28
  C 416.01 163.97 415.12 163.39 413.75 163.54"
/>
<path stroke="#387f8c" vector-effect="non-scaling-stroke" d="
  M 413.75 163.54
  C 411.37 160.91 408.12 159.73 404.00 160.00
  C 402.75 160.08 402.47 160.73 403.14 161.95"
/>
<path stroke="#38afba" vector-effect="non-scaling-stroke" d="
  M 413.75 163.54
  C 414.09 166.85 413.29 169.66 411.36 171.99
  C 410.69 172.80 409.63 173.62 408.20 174.47
  C 406.31 175.58 405.14 176.24 404.69 176.44
  C 400.54 178.31 397.45 180.56 395.44 183.19
  C 394.19 184.82 393.63 186.91 393.75 189.46"
/>
<path stroke="#3ae1db" vector-effect="non-scaling-stroke" d="
  M 391.48 187.80
  C 392.45 184.49 394.03 181.65 396.24 179.30
  C 397.63 177.82 398.73 176.72 399.55 175.99
  C 400.58 175.08 401.88 174.17 403.43 173.27
  C 404.56 172.61 405.42 171.70 406.02 170.55
  C 408.10 166.56 407.14 163.69 403.14 161.95"
/>
<path stroke="#046d7b" vector-effect="non-scaling-stroke" d="
  M 327.76 183.32
  C 326.92 187.72 328.27 190.93 331.81 192.94
  C 335.76 195.17 340.20 195.36 345.13 193.49
  C 349.02 192.02 352.42 189.94 355.33 187.27
  C 356.09 186.57 356.35 185.53 355.95 184.72
  L 354.32 181.39
  C 354.20 181.15 353.86 181.11 353.60 181.30
  C 345.50 187.37 336.98 188.00 328.04 183.19
  C 327.93 183.13 327.78 183.19 327.76 183.32"
/>
<path stroke="#01425e" vector-effect="non-scaling-stroke" d="
  M 113.50 203.79
  C 111.19 204.55 109.99 206.02 109.92 208.21
  C 109.89 209.06 110.07 209.89 110.45 210.70
  C 111.33 212.59 112.45 212.38 113.81 210.06
  C 114.56 208.77 115.72 208.02 117.28 207.79
  C 118.59 207.59 119.91 207.54 121.22 207.63
  C 122.58 207.73 123.76 208.24 124.75 209.15
  C 125.57 209.90 126.34 210.87 127.05 212.04
  C 127.65 213.03 128.17 214.25 128.62 215.71
  C 128.78 216.22 128.99 216.24 129.24 215.77
  C 130.12 214.13 130.57 212.84 130.58 211.91"
/>
<path stroke="#628194" vector-effect="non-scaling-stroke" d="
  M 130.58 211.91
  C 130.79 208.56 129.71 205.89 127.36 203.89
  C 122.86 200.07 118.24 200.04 113.50 203.79"
/>
<path stroke="#63c0ca" vector-effect="non-scaling-stroke" d="
  M 130.58 211.91
  C 126.93 205.20 121.39 203.30 113.98 206.19
  C 113.75 206.28 113.50 206.11 113.50 205.86
  L 113.50 203.79"
/>
<path stroke="#025574" vector-effect="non-scaling-stroke" d="
  M 352.83 324.63
  L 344.92 319.92
  C 344.58 319.72 344.52 319.79 344.74 320.12
  C 348.47 325.85 350.30 331.90 350.25 338.25
  C 350.22 342.38 349.45 346.86 347.94 351.69
  C 347.08 354.47 345.41 358.42 342.94 363.54
  C 341.06 367.43 339.21 371.30 337.38 375.16
  C 336.50 377.02 336.81 377.24 338.30 375.83
  C 343.90 370.49 348.34 364.31 351.61 357.30
  C 355.92 348.05 357.11 338.38 355.18 328.27
  C 354.85 326.58 354.07 325.36 352.83 324.63"
/>
<path stroke="#038680" vector-effect="non-scaling-stroke" d="
  M 240.06 196.07
  C 241.79 194.52 243.27 192.81 244.48 190.94
  C 244.76 190.50 245.34 190.38 245.78 190.66
  C 247.26 191.63 249.09 191.99 251.27 191.75
  C 251.90 191.68 251.94 191.48 251.37 191.15
  L 244.23 187.08
  C 243.99 186.95 243.69 187.02 243.56 187.24
  C 241.37 190.86 238.29 193.48 234.33 195.11
  C 231.54 196.26 228.69 196.37 225.80 195.43
  C 225.22 195.25 224.98 194.53 225.32 193.96
  L 227.97 189.51
  C 228.16 189.18 228.08 189.09 227.72 189.22
  C 225.73 189.97 224.32 191.32 223.50 193.25
  C 222.75 195.02 222.92 196.46 223.99 197.57
  C 224.68 198.30 225.82 198.87 227.41 199.28
  C 232.10 200.50 236.32 199.43 240.06 196.07"
/>
<path stroke="#028f89" vector-effect="non-scaling-stroke" d="
  M 275.1276 117.9473
  C 275.73 117.25 274.91 115.55 273.3034 114.1577
  C 271.69 112.76 269.90 112.20 269.2924 112.8927
  C 268.69 113.59 269.51 115.29 271.1166 116.6823
  C 272.73 118.08 274.52 118.64 275.1276 117.9473"
/>
<path stroke="#06738e" vector-effect="non-scaling-stroke" d="
  M 285.00 165.54
  C 289.37 157.45 289.85 149.38 286.44 141.31
  C 284.30 136.26 280.50 132.24 275.04 129.25"
/>
<path stroke="#72859d" vector-effect="non-scaling-stroke" d="
  M 275.04 129.25
  C 268.53 124.30 261.34 123.22 253.47 126.01
  C 245.64 128.78 240.58 133.97 238.31 141.56
  C 235.20 151.96 237.13 161.40 244.10 169.88
  C 250.45 177.60 258.66 180.46 268.74 178.47
  C 276.43 176.95 281.85 172.64 285.00 165.54"
/>
<path stroke="#75e9ea" vector-effect="non-scaling-stroke" d="
  M 275.04 129.25
  C 273.74 131.77 272.88 134.44 272.46 137.25"
/>
<path stroke="#72809a" vector-effect="non-scaling-stroke" d="
  M 272.46 137.25
  C 271.05 136.22 269.53 135.59 267.90 135.34
  C 267.07 135.21 265.47 135.11 263.10 135.02
  C 259.09 134.87 255.70 136.01 252.94 138.44
  C 250.55 140.54 248.12 143.84 245.65 148.34"
/>
<path stroke="#75e9ea" vector-effect="non-scaling-stroke" d="
  M 245.65 148.34
  C 242.70 154.67 243.49 160.73 248.00 166.50
  C 255.32 175.87 264.32 177.78 275.00 172.21"
/>
<path stroke="#73e1e0" vector-effect="non-scaling-stroke" d="
  M 275.00 172.21
  C 278.08 170.26 280.83 167.92 283.25 165.21"
/>
<path stroke="#75e9ea" vector-effect="non-scaling-stroke" d="
  M 283.25 165.21
  L 285.00 165.54"
/>
<path stroke="#07cfd1" vector-effect="non-scaling-stroke" d="
  M 283.25 165.21
  C 283.72 164.74 283.91 164.26 283.80 163.75
  C 283.71 163.32 283.71 162.89 283.78 162.46
  C 284.87 156.08 284.65 150.31 283.12 145.15
  C 283.04 144.87 282.90 144.65 282.69 144.48
  C 281.84 143.77 281.53 143.96 281.77 145.05
  C 283.14 151.29 282.64 157.38 280.29 163.31
  C 279.11 166.29 277.62 168.54 275.81 170.06
  C 274.98 170.76 274.71 171.48 275.00 172.21"
/>
<path stroke="#066e8b" vector-effect="non-scaling-stroke" d="
  M 245.65 148.34
  C 246.05 152.43 247.31 156.42 249.44 160.31
  C 251.92 164.86 255.44 167.57 259.99 168.44
  C 262.54 168.93 265.01 168.71 267.40 167.78
  C 269.69 166.89 271.83 165.48 273.81 163.56
  C 277.04 160.43 278.64 156.75 278.60 152.50
  C 278.55 146.55 276.51 141.47 272.46 137.25"
/>
<path stroke="#077586" vector-effect="non-scaling-stroke" d="
  M 217.54 171.75
  C 220.93 167.37 222.68 162.53 222.81 157.22
  C 222.88 153.99 222.64 150.85 222.08 147.80
  C 221.51 144.63 220.33 141.66 218.54 138.87"
/>
<path stroke="#788796" vector-effect="non-scaling-stroke" d="
  M 218.54 138.87
  C 216.87 135.30 213.85 133.26 209.50 132.75
  C 206.28 132.38 203.31 132.39 200.60 132.79
  C 197.69 133.22 194.99 134.29 192.49 136.00
  C 186.39 140.19 183.31 146.28 183.25 154.25
  C 183.20 161.99 185.75 168.21 190.91 172.91
  C 194.87 176.52 199.09 178.54 203.57 178.98
  C 209.08 179.53 213.74 177.12 217.54 171.75"
/>
<path stroke="#7ae9eb" vector-effect="non-scaling-stroke" d="
  M 218.54 138.87
  C 217.82 139.80 217.24 139.41 216.81 137.68
  C 216.67 137.14 216.03 136.93 215.60 137.28
  C 214.13 138.47 213.10 139.96 212.50 141.75
  C 211.99 143.28 211.30 144.27 210.43 144.72"
/>
<path stroke="#778cac" vector-effect="non-scaling-stroke" d="
  M 210.43 144.72
  C 208.38 142.69 206.67 141.35 205.31 140.69
  C 203.82 139.96 202.42 140.20 201.10 141.40
  C 200.99 141.50 200.71 141.65 200.26 141.86
  L 196.75 143.46"
/>
<path stroke="#7ae9eb" vector-effect="non-scaling-stroke" d="
  M 196.75 143.46
  C 196.68 142.51 196.18 142.36 195.25 143.00
  C 187.92 148.11 186.28 154.94 190.33 163.49
  C 192.85 168.81 196.85 172.53 202.33 174.64
  C 205.68 175.93 208.84 175.57 211.79 173.54
  C 212.82 172.83 213.96 172.46 215.19 172.43
  C 215.46 172.42 215.75 172.27 215.97 172.02
  C 216.38 171.55 216.91 171.46 217.54 171.75"
/>
<path stroke="#067a9c" vector-effect="non-scaling-stroke" d="
  M 196.75 143.46
  C 192.16 146.96 190.25 151.47 191.00 157.00
  C 191.63 161.60 193.77 165.26 197.42 167.98
  C 199.43 169.49 201.46 170.35 203.49 170.56
  C 206.02 170.83 208.26 170.12 210.19 168.44
  C 218.76 160.99 218.84 153.08 210.43 144.72"
/>
<path stroke="#137f88" vector-effect="non-scaling-stroke" d="
  M 195.19 197.49
  C 191.81 196.00 188.40 194.66 184.97 193.49
  C 184.92 193.48 183.84 193.05 181.71 192.22
  C 179.65 191.42 177.24 190.89 174.48 190.63
  C 173.91 190.58 173.48 191.16 173.71 191.69
  C 175.16 195.11 177.11 198.12 179.54 200.71
  C 182.21 203.56 185.53 204.84 189.50 204.53
  C 193.13 204.25 195.22 202.26 195.78 198.57
  C 195.85 198.12 195.60 197.68 195.19 197.49"
/>
<path stroke="#7f819d" vector-effect="non-scaling-stroke" d="
  M 255.1014 148.2787
  C 257.23 149.40 259.98 148.35 261.2579 145.9288
  C 262.53 143.51 261.84 140.64 259.7186 139.5213
  C 257.59 138.40 254.84 139.45 253.5621 141.8712
  C 252.29 144.29 252.98 147.16 255.1014 148.2787"
/>
<path stroke="#091c5d" vector-effect="non-scaling-stroke" d="
  M 255.16 150.14
  C 253.76 149.15 252.60 148.84 251.69 149.19
  C 248.70 150.34 247.83 152.27 249.09 155.00
  C 249.21 155.27 249.51 155.41 249.81 155.36
  C 252.62 154.87 255.20 153.83 257.54 152.22
  C 257.80 152.04 257.92 151.72 257.81 151.45
  C 257.54 150.78 256.96 150.44 256.06 150.42
  C 255.72 150.41 255.41 150.32 255.16 150.14"
/>
<path stroke="#7f8dae" vector-effect="non-scaling-stroke" d="
  M 206.25 149.60
  C 206.25 146.83 204.00 144.58 201.23 144.58
  C 198.46 144.58 196.21 146.83 196.21 149.60
  C 196.21 152.37 198.46 154.62 201.23 154.62
  C 204.00 154.62 206.25 152.37 206.25 149.60"
/>
</g>
<path fill="#000328" d="
  M 133.75 209.71
  C 132.78 210.20 132.37 211.04 132.54 212.25
  C 131.96 214.82 130.61 216.83 128.50 218.29
  C 127.65 218.69 126.99 218.50 126.50 217.71
  L 123.96 212.73
  C 123.84 212.49 123.51 212.44 123.29 212.62
  C 122.47 213.31 121.87 214.18 121.50 215.21
  L 119.44 218.29
  C 119.28 218.52 119.31 218.87 119.51 219.18
  C 120.27 220.35 121.43 221.71 123.00 223.25
  C 131.59 231.69 140.99 238.29 151.20 243.04
  C 160.08 247.18 169.43 249.25 179.25 249.25
  C 185.15 249.24 190.83 248.82 196.30 247.99
  C 197.25 248.04 197.74 248.37 197.79 249.00
  C 197.04 252.31 196.44 256.81 196.00 262.50
  C 195.54 268.40 193.79 274.65 190.75 281.25
  C 188.52 286.07 186.12 290.80 183.55 295.44
  C 179.77 302.25 176.93 306.71 175.02 308.82
  C 170.81 313.49 165.39 316.55 158.76 318.02
  C 157.09 318.39 155.48 318.93 153.93 319.64
  C 153.52 319.83 153.45 320.01 153.72 320.18
  C 153.83 320.25 154.01 320.28 154.25 320.25
  C 159.24 319.75 164.24 319.50 169.27 319.50
  C 170.61 319.50 171.77 319.04 172.75 318.12
  C 177.08 314.08 180.77 309.48 183.80 304.31
  C 185.83 300.84 187.73 297.31 189.48 293.70
  C 191.83 288.87 193.48 285.22 194.42 282.75
  C 196.89 276.28 198.19 269.53 198.31 262.50
  C 198.33 261.23 198.40 259.94 198.51 258.62
  C 198.66 256.74 198.66 255.45 198.50 254.75
  C 198.07 252.88 198.17 251.05 198.79 249.25
  C 200.08 247.28 200.83 245.11 201.04 242.75
  C 201.69 240.23 203.16 238.36 205.45 237.13
  C 205.92 239.42 206.09 241.68 205.95 243.90
  C 205.70 247.91 205.57 250.15 205.58 250.62
  C 205.67 260.34 204.59 269.90 202.36 279.29
  C 201.21 284.14 199.49 289.18 197.22 294.40
  C 195.19 299.07 192.89 303.87 190.31 308.81
  C 185.70 317.64 180.10 325.46 173.50 332.29
  C 163.06 341.84 151.71 349.06 139.44 353.94
  C 127.41 358.72 114.59 360.34 101.00 358.79
  C 99.41 358.72 97.83 358.40 96.26 357.83
  C 95.29 357.48 95.25 357.64 96.14 358.33
  C 101.07 362.16 106.54 364.82 112.54 366.31
  C 118.73 368.72 124.30 370.12 129.25 370.50
  C 147.54 371.90 165.66 369.06 183.63 361.99
  C 198.32 356.21 210.01 347.44 218.69 335.69
  C 230.37 319.87 238.70 301.88 243.68 281.73
  C 244.79 277.21 245.65 272.52 246.25 267.66
  C 246.83 262.98 247.25 258.23 247.52 253.42
  C 247.62 251.58 247.95 251.54 248.51 253.29
  C 251.31 262.05 253.02 271.04 253.63 280.26
  C 254.49 293.39 255.68 306.49 257.20 319.56
  C 257.21 319.58 257.64 323.00 258.50 329.81
  C 261.13 350.54 262.05 372.36 261.25 395.25
  C 260.58 414.40 253.87 430.74 241.12 444.26
  C 235.04 449.97 228.38 455.03 221.15 459.46
  C 220.36 459.94 220.31 460.20 220.99 460.24
  C 221.14 460.25 221.32 460.23 221.51 460.18
  C 239.49 455.72 253.76 446.10 264.31 431.31
  C 268.36 425.64 271.92 419.12 274.99 411.75
  C 280.03 401.66 284.11 391.22 287.23 380.43
  C 289.08 374.02 290.48 367.51 291.41 360.89
  C 292.98 349.81 293.51 338.85 293.00 328.00
  C 292.47 316.66 291.27 305.03 289.42 293.10
  C 288.05 284.30 287.05 277.71 286.41 273.34
  C 285.04 263.90 283.39 254.47 281.46 245.06
  C 281.37 244.63 281.78 244.26 282.20 244.39
  C 284.01 244.96 285.76 245.83 287.45 247.00
  C 293.89 251.45 299.44 256.83 304.09 263.13
  C 307.85 268.22 312.51 274.15 318.06 280.94
  C 327.18 292.07 337.49 301.52 349.00 309.28
  C 357.39 314.95 366.48 319.10 376.25 321.73
  C 383.62 323.72 390.29 323.97 396.25 322.50
  C 401.69 321.15 406.28 318.40 410.01 314.24
  C 410.70 313.47 410.55 313.25 409.57 313.56
  C 404.40 315.19 399.03 316.46 393.48 317.38
  C 386.07 316.07 379.60 314.00 374.06 311.19
  C 366.97 307.59 359.97 302.67 353.06 296.44
  C 350.80 294.40 348.36 291.13 345.75 286.62
  C 344.53 284.51 343.35 282.72 342.22 281.25
  C 340.92 279.54 339.61 277.84 338.30 276.14
  C 338.12 275.91 337.83 275.76 337.50 275.75
  C 335.83 275.66 334.78 274.80 334.34 273.15
  C 334.25 272.80 334.13 272.56 334.00 272.43
  C 333.79 272.22 333.54 272.09 333.25 272.04
  C 327.74 263.62 321.97 253.46 315.94 241.56
  C 312.37 234.53 307.60 227.28 301.63 219.83
  C 301.38 219.52 301.29 219.17 301.42 218.96
  C 301.57 218.73 301.84 218.64 302.25 218.71
  C 305.45 220.76 308.60 222.89 311.70 225.09
  C 316.12 228.22 319.30 230.30 321.24 231.31
  C 327.28 234.47 333.65 236.51 340.35 237.44
  C 346.61 238.31 353.21 238.33 360.14 237.52
  C 367.39 236.67 374.41 234.72 381.20 231.68
  C 381.49 231.55 381.62 231.21 381.47 230.94
  L 377.75 223.96
  L 374.21 217.75
  L 371.04 212.16
  C 370.90 211.92 370.58 211.82 370.28 211.92
  C 362.75 214.58 354.33 215.52 345.00 214.75
  C 335.24 213.94 326.99 210.67 320.25 204.96
  C 320.68 204.35 321.20 203.86 321.81 203.49
  C 322.06 203.34 322.40 203.37 322.65 203.56
  C 325.83 205.96 329.18 207.54 332.69 208.31
  C 339.25 209.74 346.11 209.90 353.26 208.80
  C 355.04 208.52 356.15 207.60 356.58 206.04
  C 356.64 205.81 356.44 205.59 356.19 205.61
  C 352.20 205.96 349.64 205.93 348.50 205.50
  C 344.01 203.81 339.83 201.57 335.97 198.77
  C 334.20 197.48 332.48 196.22 330.81 194.99
  C 329.24 193.83 327.58 192.48 325.81 190.94
  C 317.34 183.54 308.69 183.35 299.85 190.36
  C 298.77 191.23 298.07 192.34 297.75 193.71
  L 293.35 194.46
  C 295.08 191.27 297.14 188.37 299.54 185.75
  C 301.54 184.32 307.46 179.84 317.31 172.31
  C 328.51 163.74 335.60 152.85 338.58 139.64
  C 339.13 137.19 339.13 134.93 338.57 132.86
  C 337.34 128.35 334.91 124.44 331.27 121.13
  C 329.78 118.38 327.46 115.65 324.31 112.94
  C 313.07 103.22 300.90 95.91 287.79 91.00
  C 280.10 87.81 272.22 86.09 264.16 85.86
  C 251.70 85.39 239.52 85.84 227.61 87.23
  C 220.03 88.75 215.43 89.69 213.81 90.06
  C 206.23 91.81 199.18 94.57 192.67 98.34
  C 190.22 99.21 188.32 100.58 186.97 102.43
  C 183.44 105.20 180.96 108.64 179.53 112.77
  C 179.28 113.48 179.20 114.65 179.28 116.29
  C 179.36 117.77 179.01 119.14 178.23 120.39
  C 175.98 119.51 174.73 118.13 174.50 116.25
  C 174.18 113.71 173.82 111.17 173.43 108.64
  C 173.42 108.56 173.38 107.80 173.32 106.35
  C 173.27 105.00 172.66 103.89 171.50 103.04
  L 172.70 102.78
  C 172.99 102.72 173.20 102.47 173.20 102.19
  L 173.02 90.75
  C 173.01 90.42 172.89 90.11 172.68 89.88
  C 172.27 89.45 171.91 89.22 171.61 89.21
  C 170.94 89.19 170.40 88.67 170.35 88.00
  C 170.06 83.53 169.94 79.71 169.98 76.54
  C 169.98 76.48 169.96 75.62 169.91 73.96
  C 169.85 71.83 170.27 69.80 171.16 67.87
  C 171.31 67.55 171.66 67.07 172.21 66.43
  C 172.71 65.86 172.96 65.29 172.95 64.72
  C 172.94 63.85 172.09 63.24 171.26 63.50
  C 165.49 65.31 159.84 67.39 154.29 69.76
  C 147.23 72.77 139.89 73.96 132.26 73.31
  C 132.24 73.30 131.45 73.15 129.90 72.85
  C 128.22 72.53 127.42 73.23 127.50 74.96
  C 124.66 73.15 122.00 71.11 119.51 68.84
  C 119.45 68.79 119.05 68.46 118.30 67.85
  C 116.80 66.64 117.15 65.67 119.35 64.92
  C 137.04 58.89 154.19 51.61 170.82 43.06
  C 171.59 42.66 172.17 41.98 172.45 41.16
  C 173.69 37.42 176.15 35.04 179.82 34.02
  C 180.63 33.79 181.41 33.82 182.15 34.10
  C 183.02 34.43 183.72 34.85 184.24 35.37
  C 184.89 36.01 185.88 36.17 186.70 35.75
  C 194.91 31.56 202.65 27.19 209.91 22.64
  C 220.31 16.11 231.18 9.35 242.53 2.36
  C 243.33 1.87 244.34 1.89 245.11 2.42
  C 246.07 3.07 247.19 3.65 248.48 4.18
  C 250.67 5.08 251.79 5.54 251.84 5.56
  C 275.69 16.33 293.51 24.04 305.31 28.69
  C 335.58 40.60 365.19 53.96 394.16 68.75
  C 408.65 76.15 417.36 80.55 420.31 81.94
  C 422.74 83.08 423.44 84.50 422.43 86.21
  C 422.02 86.90 421.08 87.78 419.63 88.85
  C 415.42 91.96 411.09 94.90 406.66 97.67
  C 403.15 99.86 398.55 102.30 392.85 105.00
  C 384.64 108.89 376.49 112.91 368.42 117.08
  C 368.36 117.11 366.44 118.08 362.66 119.97
  C 358.57 122.02 354.69 124.27 351.02 126.72
  C 350.42 127.12 349.93 127.67 349.61 128.32
  C 346.82 133.98 344.82 139.38 343.61 144.52
  C 340.91 155.91 336.37 166.22 330.00 175.44
  C 329.47 176.20 329.71 177.26 330.53 177.71
  C 332.81 178.98 335.04 179.88 337.22 180.43
  C 339.77 181.07 342.13 181.40 344.29 181.43
  C 347.42 181.47 350.10 180.51 352.31 178.56
  C 358.51 173.09 359.65 166.39 355.73 158.45
  C 355.60 158.19 355.69 157.88 355.93 157.75
  C 357.26 157.06 358.62 156.81 360.02 157.01
  C 361.27 157.19 362.36 157.86 363.29 159.03
  C 365.16 161.36 366.15 164.10 366.25 167.27
  C 366.28 168.17 367.26 168.70 368.03 168.23
  C 374.88 164.09 381.76 159.99 388.69 155.94
  C 389.78 155.30 390.83 154.59 391.82 153.82
  C 393.21 152.74 394.21 152.14 394.83 152.01
  C 396.25 151.71 397.43 152.32 398.38 153.85
  C 399.40 155.50 400.10 156.64 400.48 157.25
  C 401.51 158.93 403.00 159.61 404.94 159.29
  C 407.13 158.93 409.08 158.94 410.77 159.31
  C 412.53 159.70 414.13 160.66 415.57 162.19
  C 418.63 165.42 419.51 169.46 418.20 174.30
  C 417.65 176.35 416.83 177.88 415.76 178.90
  C 414.66 179.95 414.45 181.14 415.14 182.49
  C 421.57 195.13 428.22 207.20 435.07 218.69
  C 436.13 220.46 436.89 221.97 437.36 223.22
  C 437.96 224.81 437.50 225.99 435.98 226.76
  C 430.61 229.45 425.37 232.02 420.26 234.45
  C 413.11 237.86 406.41 242.01 400.16 246.90
  C 398.69 248.05 396.67 248.92 394.08 249.52
  C 393.30 249.70 392.49 249.41 392.00 248.78
  C 390.16 246.37 388.48 243.39 386.97 239.84
  C 386.85 239.56 386.51 239.46 386.27 239.63
  C 383.48 241.52 380.70 243.38 377.94 245.19
  C 375.61 246.72 372.72 247.76 369.28 248.31
  C 367.47 248.60 364.45 248.94 360.24 249.32
  C 355.69 249.73 350.72 249.71 345.32 249.25
  C 344.88 249.21 344.44 249.22 344.01 249.28
  C 342.58 249.48 342.26 250.23 343.04 251.52
  C 343.35 252.03 343.52 252.32 343.55 252.38
  C 351.07 266.49 359.24 278.43 368.06 288.19
  C 370.22 290.57 373.32 293.38 377.35 296.61
  C 381.20 299.69 384.66 302.02 387.73 303.60
  C 395.64 307.69 403.95 309.66 412.67 309.52
  C 414.84 309.48 415.52 310.47 414.71 312.49
  C 411.86 319.55 407.41 324.78 401.35 328.19
  C 398.34 329.88 394.81 331.01 390.75 331.57
  C 387.04 332.09 383.30 332.19 379.51 331.87
  C 374.81 331.48 370.07 330.73 365.30 329.63
  C 364.64 329.48 364.01 329.97 364.00 330.65
  C 363.98 340.40 361.83 349.30 357.54 357.36
  C 352.90 366.08 346.89 373.71 339.50 380.25
  C 338.25 381.36 336.80 382.20 335.17 382.78
  C 333.31 383.44 332.25 382.79 331.98 380.83
  C 331.58 377.91 331.76 375.06 332.52 372.27
  C 332.77 371.36 333.71 368.80 335.35 364.59
  C 336.26 362.24 337.33 359.73 338.56 357.06
  C 340.24 353.40 341.58 349.30 342.58 344.76
  C 344.15 337.61 343.30 331.04 340.03 325.05
  C 338.80 322.79 336.74 320.42 333.83 317.95
  C 329.02 313.84 324.12 309.85 319.13 305.99
  C 318.12 305.21 317.57 305.46 317.50 306.74
  C 316.48 324.01 314.60 341.19 311.87 358.27
  C 307.31 386.77 296.46 412.20 279.31 434.56
  C 277.10 437.44 274.44 440.35 271.33 443.28
  C 268.58 445.88 265.41 448.16 261.84 450.13
  C 253.98 454.47 245.79 458.06 237.27 460.89
  C 231.52 462.80 227.49 463.99 225.19 464.45
  C 221.03 465.29 216.79 465.47 212.48 465.00
  C 211.62 464.90 210.99 464.16 211.02 463.30
  C 211.08 461.69 211.89 460.34 213.44 459.25
  C 216.27 457.25 219.09 455.22 221.89 453.16
  C 227.40 449.11 230.20 447.05 230.27 446.99
  C 232.40 445.16 234.28 443.08 235.91 440.75
  C 238.10 437.61 239.23 435.99 239.30 435.89
  C 247.96 424.08 252.38 410.70 252.57 395.75
  C 252.66 388.83 252.47 381.92 252.02 375.02
  C 251.08 360.71 250.76 346.39 251.06 332.05
  C 251.11 329.41 250.68 329.33 249.75 331.80
  C 248.71 334.58 247.37 337.81 245.74 341.50
  C 239.35 355.93 228.70 366.36 213.81 372.81
  C 204.56 376.82 195.62 379.53 186.99 380.94
  C 174.66 382.95 162.24 383.69 149.74 383.16
  C 139.71 382.74 129.95 380.90 120.46 377.63
  C 111.71 374.62 104.62 370.68 99.19 365.81
  C 94.18 361.32 90.35 355.99 87.69 349.81
  C 86.88 347.94 87.47 347.44 89.44 348.31
  C 91.79 349.34 94.20 350.10 96.68 350.57
  C 98.15 350.85 100.65 351.18 104.19 351.56
  C 119.46 353.23 133.46 350.02 146.19 341.94
  C 149.67 339.73 153.68 336.70 158.22 332.86
  C 158.61 332.53 160.06 331.40 162.56 329.47
  C 164.14 328.24 165.48 326.98 166.58 325.67
  C 167.56 324.49 167.30 324.05 165.80 324.36
  C 162.11 325.11 158.63 324.94 155.36 323.83
  C 153.75 323.29 152.59 322.58 151.86 321.71
  C 150.52 320.12 151.00 318.48 153.31 316.81
  C 154.14 316.22 156.13 315.48 159.28 314.59
  C 164.71 313.06 169.17 310.35 172.66 306.45
  C 174.47 304.43 177.17 300.15 180.75 293.62
  C 184.36 287.01 187.48 280.17 190.10 273.09
  C 190.11 273.06 190.47 272.23 191.18 270.60
  C 191.88 269.00 192.15 267.32 191.99 265.56
  C 191.97 265.27 191.74 265.04 191.44 265.01
  C 185.55 264.38 180.22 263.14 175.44 261.31
  C 160.56 255.61 146.66 248.10 133.75 238.77
  C 127.48 234.24 121.85 228.89 116.88 222.72
  C 116.49 222.24 115.76 222.23 115.37 222.71
  C 111.12 227.97 106.87 233.11 102.64 238.14
  C 100.97 240.13 99.00 241.55 96.75 242.41
  C 96.08 242.66 95.35 242.26 95.19 241.57
  C 94.66 239.31 95.14 237.40 96.63 235.83
  C 97.38 235.04 97.76 234.63 97.79 234.60
  C 102.48 229.00 106.85 223.17 110.91 217.10
  C 111.09 216.84 111.14 216.51 111.05 216.20
  C 110.65 214.86 110.21 213.53 109.74 212.21
  C 109.13 210.54 108.85 209.18 108.89 208.15
  C 109.02 204.66 110.83 202.12 114.30 200.54
  C 117.16 199.23 120.02 198.86 122.87 199.43
  C 124.24 199.70 125.37 199.28 126.28 198.19
  L 135.70 186.86
  C 136.03 186.46 136.60 186.32 137.09 186.53
  C 139.42 187.52 140.48 188.73 140.26 190.17
  C 140.16 190.82 139.45 191.90 138.13 193.39
  C 135.40 196.48 132.88 199.73 130.58 203.15
  C 130.41 203.41 130.37 203.74 130.48 204.03
  C 131.25 206.10 132.34 207.99 133.75 209.71
  Z
  M 177.71 36.25
  L 174.21 39.20
  C 173.86 39.49 173.67 40.06 173.70 40.72
  L 174.83 65.17
  C 174.85 65.60 174.67 66.03 174.33 66.34
  C 173.19 67.37 172.49 68.45 172.22 69.60
  C 171.25 73.77 171.01 77.99 171.50 82.25
  C 171.71 84.10 171.76 85.67 171.63 86.95
  C 171.59 87.27 171.74 87.57 172.00 87.70
  C 172.47 87.93 172.96 87.99 173.46 87.86
  C 173.74 87.79 173.93 87.51 173.94 87.18
  C 173.97 86.27 174.08 85.36 174.28 84.47
  C 174.30 84.36 174.35 84.26 174.42 84.19
  C 174.65 83.94 174.77 84.03 174.78 84.44
  C 174.89 88.53 176.35 89.01 179.16 85.86
  C 178.77 87.69 179.54 88.27 181.47 87.61
  C 181.77 87.51 181.98 87.24 181.97 86.94
  L 181.72 77.17
  C 182.75 76.97 183.70 76.77 184.58 76.57
  C 185.49 76.37 186.40 76.04 187.30 75.58
  C 197.83 70.18 208.66 65.46 219.77 61.41
  C 222.34 60.48 225.04 59.65 227.85 58.94
  C 230.58 58.25 233.31 57.59 236.05 56.95
  C 257.12 52.04 277.70 53.50 297.78 61.31
  C 298.04 61.42 298.33 61.29 298.41 61.04
  C 298.77 59.87 298.75 58.70 298.36 57.53
  C 298.27 57.25 298.01 57.03 297.69 56.96
  C 296.22 56.65 294.81 56.17 293.46 55.52
  C 282.19 50.12 270.28 47.20 257.75 46.75
  C 248.91 46.44 239.25 46.85 228.78 48.00
  C 228.71 48.01 225.86 48.23 220.21 48.68
  C 215.08 49.09 209.83 50.18 204.44 51.94
  C 195.84 54.75 188.37 57.52 182.04 60.27
  C 181.05 60.70 180.39 61.26 180.07 61.93
  C 179.60 62.90 179.64 63.86 180.19 64.81
  C 180.74 65.78 180.51 66.35 179.50 66.54
  L 179.04 66.00
  C 178.54 59.09 178.19 52.18 178.00 45.25
  C 177.92 42.26 178.50 39.94 179.75 38.29
  L 183.37 36.44
  C 183.87 36.18 183.89 35.90 183.42 35.61
  C 180.96 34.07 179.06 34.28 177.71 36.25
  Z
  M 360.15 170.38
  C 359.46 172.23 360.20 172.38 362.36 170.81
  C 363.04 170.31 363.44 169.52 363.43 168.68
  C 363.42 166.75 363.08 164.53 362.43 162.02
  C 361.94 160.14 360.80 158.88 358.99 158.25
  C 358.37 158.03 358.21 158.21 358.52 158.79
  C 360.19 161.96 360.86 165.34 360.52 168.95
  C 360.49 169.34 360.36 169.81 360.15 170.38
  Z
  M 403.14 161.95
  C 398.81 165.26 395.45 168.72 393.06 172.31
  C 389.95 177.00 389.42 182.16 391.48 187.80
  C 391.79 189.75 392.55 190.31 393.75 189.46
  C 395.66 189.43 396.66 188.53 396.75 186.75
  C 396.77 186.39 396.87 186.07 397.03 185.83
  C 399.18 182.79 402.16 181.19 405.99 181.04
  C 408.58 180.94 410.56 180.66 411.94 180.19
  C 413.83 179.54 415.17 178.21 415.94 176.19
  C 417.35 172.50 417.51 168.86 416.41 165.28
  C 416.01 163.97 415.12 163.39 413.75 163.54
  C 411.37 160.91 408.12 159.73 404.00 160.00
  C 402.75 160.08 402.47 160.73 403.14 161.95
  Z
  M 327.76 183.32
  C 326.92 187.72 328.27 190.93 331.81 192.94
  C 335.76 195.17 340.20 195.36 345.13 193.49
  C 349.02 192.02 352.42 189.94 355.33 187.27
  C 356.09 186.57 356.35 185.53 355.95 184.72
  L 354.32 181.39
  C 354.20 181.15 353.86 181.11 353.60 181.30
  C 345.50 187.37 336.98 188.00 328.04 183.19
  C 327.93 183.13 327.78 183.19 327.76 183.32
  Z
  M 360.94 203.19
  C 360.16 204.44 359.45 205.74 358.80 207.08
  C 358.33 208.05 358.60 208.42 359.60 208.18
  L 366.92 206.45
  C 367.39 206.34 367.62 205.79 367.39 205.34
  L 360.00 191.12
  C 359.59 190.32 358.49 190.22 357.91 190.92
  C 354.47 195.10 350.27 197.88 345.30 199.27
  C 344.77 199.42 344.38 199.58 344.15 199.75
  C 343.54 200.20 343.48 200.68 343.98 201.21
  C 344.26 201.51 344.70 201.73 345.29 201.86
  C 349.99 202.91 354.68 202.85 359.37 201.67
  C 359.88 201.54 360.29 201.54 360.61 201.69
  C 361.26 201.99 361.37 202.49 360.94 203.19
  Z
  M 113.50 203.79
  C 111.19 204.55 109.99 206.02 109.92 208.21
  C 109.89 209.06 110.07 209.89 110.45 210.70
  C 111.33 212.59 112.45 212.38 113.81 210.06
  C 114.56 208.77 115.72 208.02 117.28 207.79
  C 118.59 207.59 119.91 207.54 121.22 207.63
  C 122.58 207.73 123.76 208.24 124.75 209.15
  C 125.57 209.90 126.34 210.87 127.05 212.04
  C 127.65 213.03 128.17 214.25 128.62 215.71
  C 128.78 216.22 128.99 216.24 129.24 215.77
  C 130.12 214.13 130.57 212.84 130.58 211.91
  C 130.79 208.56 129.71 205.89 127.36 203.89
  C 122.86 200.07 118.24 200.04 113.50 203.79
  Z
  M 352.83 324.63
  L 344.92 319.92
  C 344.58 319.72 344.52 319.79 344.74 320.12
  C 348.47 325.85 350.30 331.90 350.25 338.25
  C 350.22 342.38 349.45 346.86 347.94 351.69
  C 347.08 354.47 345.41 358.42 342.94 363.54
  C 341.06 367.43 339.21 371.30 337.38 375.16
  C 336.50 377.02 336.81 377.24 338.30 375.83
  C 343.90 370.49 348.34 364.31 351.61 357.30
  C 355.92 348.05 357.11 338.38 355.18 328.27
  C 354.85 326.58 354.07 325.36 352.83 324.63
  Z"
/>
<path fill="#e1fbf9" d="
  M 177.71 36.25
  C 178.10 37.23 178.78 37.91 179.75 38.29
  C 178.50 39.94 177.92 42.26 178.00 45.25
  C 178.19 52.18 178.54 59.09 179.04 66.00
  L 178.40 66.69
  C 178.17 66.94 178.08 67.24 178.15 67.48
  C 178.44 68.38 178.73 69.28 179.04 70.17
  C 179.37 71.13 179.57 72.05 179.65 72.92
  C 180.06 77.27 179.89 81.59 179.16 85.86
  C 176.35 89.01 174.89 88.53 174.78 84.44
  C 174.77 84.03 174.65 83.94 174.42 84.19
  C 174.35 84.26 174.30 84.36 174.28 84.47
  C 174.08 85.36 173.97 86.27 173.94 87.18
  C 173.93 87.51 173.74 87.79 173.46 87.86
  C 172.96 87.99 172.47 87.93 172.00 87.70
  C 171.74 87.57 171.59 87.27 171.63 86.95
  C 171.76 85.67 171.71 84.10 171.50 82.25
  C 171.01 77.99 171.25 73.77 172.22 69.60
  C 172.49 68.45 173.19 67.37 174.33 66.34
  C 174.67 66.03 174.85 65.60 174.83 65.17
  L 173.70 40.72
  C 173.67 40.06 173.86 39.49 174.21 39.20
  L 177.71 36.25
  Z"
/>
<path fill="#022350" d="
  M 181.72 77.17
  C 182.58 73.22 181.84 69.67 179.50 66.54
  C 180.51 66.35 180.74 65.78 180.19 64.81
  C 179.64 63.86 179.60 62.90 180.07 61.93
  C 180.39 61.26 181.05 60.70 182.04 60.27
  C 188.37 57.52 195.84 54.75 204.44 51.94
  C 209.83 50.18 215.08 49.09 220.21 48.68
  C 225.86 48.23 228.71 48.01 228.78 48.00
  C 239.25 46.85 248.91 46.44 257.75 46.75
  C 270.28 47.20 282.19 50.12 293.46 55.52
  C 294.81 56.17 296.22 56.65 297.69 56.96
  C 298.01 57.03 298.27 57.25 298.36 57.53
  C 298.75 58.70 298.77 59.87 298.41 61.04
  C 298.33 61.29 298.04 61.42 297.78 61.31
  C 277.70 53.50 257.12 52.04 236.05 56.95
  C 233.31 57.59 230.58 58.25 227.85 58.94
  C 225.04 59.65 222.34 60.48 219.77 61.41
  C 208.66 65.46 197.83 70.18 187.30 75.58
  C 186.40 76.04 185.49 76.37 184.58 76.57
  C 183.70 76.77 182.75 76.97 181.72 77.17
  Z"
/>
<path fill="#022350" d="
  M 171.50 103.04
  C 163.13 98.12 154.74 93.25 146.31 88.44
  C 140.62 85.19 134.35 80.70 127.50 74.96
  C 127.42 73.23 128.22 72.53 129.90 72.85
  C 131.45 73.15 132.24 73.30 132.26 73.31
  C 139.89 73.96 147.23 72.77 154.29 69.76
  C 159.84 67.39 165.49 65.31 171.26 63.50
  C 172.09 63.24 172.94 63.85 172.95 64.72
  C 172.96 65.29 172.71 65.86 172.21 66.43
  C 171.66 67.07 171.31 67.55 171.16 67.87
  C 170.27 69.80 169.85 71.83 169.91 73.96
  C 169.96 75.62 169.98 76.48 169.98 76.54
  C 169.94 79.71 170.06 83.53 170.35 88.00
  C 170.40 88.67 170.94 89.19 171.61 89.21
  C 171.91 89.22 172.27 89.45 172.68 89.88
  C 172.89 90.11 173.01 90.42 173.02 90.75
  L 173.20 102.19
  C 173.20 102.47 172.99 102.72 172.70 102.78
  L 171.50 103.04
  Z"
/>
<path fill="#5bf5e1" d="
  M 179.04 66.00
  L 179.50 66.54
  C 181.84 69.67 182.58 73.22 181.72 77.17
  L 181.97 86.94
  C 181.98 87.24 181.77 87.51 181.47 87.61
  C 179.54 88.27 178.77 87.69 179.16 85.86
  C 179.89 81.59 180.06 77.27 179.65 72.92
  C 179.57 72.05 179.37 71.13 179.04 70.17
  C 178.73 69.28 178.44 68.38 178.15 67.48
  C 178.08 67.24 178.17 66.94 178.40 66.69
  L 179.04 66.00
  Z"
/>
<path fill="#01f9cf" d="
  M 264.16 85.86
  C 259.77 96.20 258.13 106.99 259.24 118.23
  C 253.77 118.78 249.21 120.48 245.56 123.31
  C 235.69 130.98 231.18 140.66 232.05 152.35
  C 232.48 158.12 234.14 163.50 237.03 168.51
  C 239.98 173.62 243.89 177.89 248.77 181.32
  C 252.70 184.09 256.78 185.68 261.02 186.11
  C 265.56 186.56 270.07 185.99 274.54 184.38
  C 277.07 185.01 278.39 186.55 278.50 189.00
  C 278.56 190.45 278.51 191.72 278.36 192.83
  C 278.21 193.92 277.65 195.01 276.69 196.12
  C 274.77 198.33 272.90 200.57 271.07 202.85
  C 270.85 203.12 270.91 203.28 271.24 203.32
  C 273.85 203.61 276.02 202.76 277.77 200.77
  C 279.58 198.71 281.01 197.47 282.06 197.06
  C 283.89 196.35 287.65 195.49 293.35 194.46
  L 297.75 193.71
  C 299.76 193.78 301.67 194.22 303.50 195.04
  C 302.49 195.93 301.89 196.99 301.72 198.23
  C 301.48 199.92 301.35 200.79 301.34 200.84
  C 301.01 202.01 300.64 203.18 300.23 204.33
  C 299.42 206.64 300.15 208.05 302.44 208.56
  C 304.15 208.95 306.20 209.71 308.59 210.84
  C 308.65 210.87 309.48 211.21 311.09 211.87
  C 312.49 212.44 313.71 213.30 314.75 214.46
  C 311.06 213.31 310.21 213.93 312.19 216.32
  C 312.90 217.17 312.71 217.56 311.60 217.49
  C 310.15 217.39 308.86 217.88 307.75 218.96
  C 307.09 218.81 306.49 218.55 305.95 218.18
  C 305.14 217.63 304.57 217.33 304.26 217.27
  C 303.27 217.09 302.35 217.35 301.50 218.04
  C 296.06 217.22 291.58 217.89 288.06 220.06
  C 286.00 221.33 281.34 225.08 274.09 231.29
  C 270.14 234.67 267.81 236.87 267.10 237.90
  C 265.18 240.67 264.40 243.95 264.75 247.75
  C 265.60 256.86 267.44 266.02 270.25 275.25
  C 271.90 280.65 273.94 289.36 276.38 301.38
  C 278.64 312.52 279.95 319.06 280.31 320.99
  C 281.79 328.94 282.85 336.53 283.50 343.75
  C 284.08 350.20 284.07 357.29 283.46 365.00
  C 283.13 365.48 282.72 365.63 282.25 365.44
  C 281.99 365.34 281.81 365.04 281.81 364.69
  C 281.79 356.86 281.32 349.07 280.41 341.31
  C 280.12 338.84 279.81 335.46 279.50 331.15
  C 279.25 327.75 278.83 324.37 278.25 321.00
  C 277.72 317.95 275.89 316.55 272.75 316.80
  C 270.20 317.00 267.71 316.72 265.29 315.97
  C 265.08 315.90 264.87 316.08 264.88 316.31
  C 264.94 317.18 264.58 317.50 263.79 317.25
  C 263.05 308.59 262.37 299.92 261.75 291.25
  C 261.01 280.88 259.00 270.78 255.71 260.93
  C 253.78 255.13 251.63 249.41 249.27 243.78
  C 248.42 241.75 247.39 240.09 246.19 238.81
  C 245.09 237.64 243.71 237.37 242.04 238.00
  C 241.67 237.69 241.31 237.62 240.96 237.78
  C 240.72 237.89 240.53 238.14 240.40 238.54
  C 239.76 240.57 239.19 243.12 238.69 246.19
  C 237.04 256.35 234.49 267.10 231.06 278.44
  C 225.47 296.87 216.94 313.81 205.46 329.25
  C 203.82 327.56 201.99 326.13 199.97 324.97
  C 198.69 324.24 197.24 323.34 195.62 322.27
  C 194.19 321.32 192.65 320.55 191.00 319.96
  C 195.81 314.80 200.24 308.50 204.31 301.06
  C 211.38 288.13 214.91 274.60 214.88 260.48
  C 214.87 258.12 214.55 255.16 213.90 251.59
  C 213.37 248.66 212.90 245.71 212.50 242.75
  C 211.90 238.33 209.70 233.94 205.91 229.58
  C 204.96 230.57 204.24 231.66 203.75 232.85
  C 203.22 234.12 202.68 235.27 202.12 236.30
  C 201.05 238.27 200.69 240.42 201.04 242.75
  C 200.83 245.11 200.08 247.28 198.79 249.25
  C 198.52 248.97 198.18 248.89 197.79 249.00
  C 197.74 248.37 197.25 248.04 196.30 247.99
  C 198.01 243.00 198.27 238.02 197.06 233.04
  C 196.99 232.76 196.83 232.49 196.58 232.22
  C 195.61 231.19 195.34 229.96 195.75 228.54
  L 196.50 227.71
  C 200.90 223.42 204.17 218.62 206.31 213.31
  C 209.16 206.24 208.95 199.11 205.68 191.93
  C 203.49 189.77 202.10 187.22 201.50 184.29
  C 208.27 186.73 214.18 185.55 219.25 180.75
  C 221.17 178.93 222.50 177.18 223.25 175.50
  C 224.23 173.28 225.14 170.58 225.99 167.41
  C 226.75 164.56 227.16 161.76 227.23 158.99
  C 227.36 153.32 226.79 148.24 225.50 143.75
  C 224.65 140.78 222.96 137.65 220.43 134.34
  C 219.15 132.67 218.41 131.75 218.21 131.56
  C 217.42 130.81 216.37 130.18 215.06 129.69
  C 206.33 126.38 198.07 126.73 190.29 130.75
  C 190.32 129.29 190.69 128.02 191.39 126.93
  C 196.77 124.45 202.89 123.89 209.75 125.25
  C 211.72 125.64 212.43 125.24 211.88 124.05
  C 211.65 123.58 211.25 123.20 210.68 122.91
  C 208.99 122.06 206.68 121.26 203.75 120.50
  C 200.08 119.55 196.64 119.62 193.43 120.71
  C 194.22 116.34 195.76 112.22 198.03 108.35
  C 200.05 104.92 202.89 102.48 206.56 101.05
  C 207.92 100.52 209.20 100.46 210.40 100.88
  C 210.47 100.91 211.56 101.44 213.67 102.49
  C 214.99 103.14 216.12 103.89 217.06 104.73
  C 217.49 105.12 218.19 104.96 218.40 104.41
  C 220.83 98.08 223.90 92.36 227.61 87.23
  C 239.52 85.84 251.70 85.39 264.16 85.86
  Z
  M 240.06 196.07
  C 241.79 194.52 243.27 192.81 244.48 190.94
  C 244.76 190.50 245.34 190.38 245.78 190.66
  C 247.26 191.63 249.09 191.99 251.27 191.75
  C 251.90 191.68 251.94 191.48 251.37 191.15
  L 244.23 187.08
  C 243.99 186.95 243.69 187.02 243.56 187.24
  C 241.37 190.86 238.29 193.48 234.33 195.11
  C 231.54 196.26 228.69 196.37 225.80 195.43
  C 225.22 195.25 224.98 194.53 225.32 193.96
  L 227.97 189.51
  C 228.16 189.18 228.08 189.09 227.72 189.22
  C 225.73 189.97 224.32 191.32 223.50 193.25
  C 222.75 195.02 222.92 196.46 223.99 197.57
  C 224.68 198.30 225.82 198.87 227.41 199.28
  C 232.10 200.50 236.32 199.43 240.06 196.07
  Z"
/>
<path fill="#01f2c7" d="
  M 264.16 85.86
  C 272.22 86.09 280.10 87.81 287.79 91.00
  C 286.08 95.11 285.32 99.19 285.50 103.25
  C 285.71 108.13 286.55 113.37 288.00 118.96
  C 285.68 121.01 283.12 122.66 280.31 123.92
  C 279.84 124.13 279.41 124.18 279.02 124.08
  C 278.12 123.85 278.01 123.30 278.69 122.44
  C 280.43 120.23 282.18 116.57 283.94 111.48
  C 284.16 110.86 284.11 110.48 283.80 110.35
  C 283.57 110.26 283.23 110.38 282.94 110.66
  C 281.86 111.72 280.80 113.08 279.75 114.75
  C 278.24 117.16 276.06 118.85 273.23 119.84
  C 272.93 119.94 272.59 119.95 272.27 119.85
  C 267.86 118.53 263.51 117.99 259.24 118.23
  C 258.13 106.99 259.77 96.20 264.16 85.86
  Z
  M 275.1276 117.9473
  C 275.73 117.25 274.91 115.55 273.3034 114.1577
  C 271.69 112.76 269.90 112.20 269.2924 112.8927
  C 268.69 113.59 269.51 115.29 271.1166 116.6823
  C 272.73 118.08 274.52 118.64 275.1276 117.9473
  Z"
/>
<path fill="#87ffec" d="
  M 227.61 87.23
  C 223.90 92.36 220.83 98.08 218.40 104.41
  C 218.19 104.96 217.49 105.12 217.06 104.73
  C 216.12 103.89 214.99 103.14 213.67 102.49
  C 211.56 101.44 210.47 100.91 210.40 100.88
  C 209.20 100.46 207.92 100.52 206.56 101.05
  C 202.89 102.48 200.05 104.92 198.03 108.35
  C 195.76 112.22 194.22 116.34 193.43 120.71
  C 192.25 122.41 191.57 124.48 191.39 126.93
  C 190.69 128.02 190.32 129.29 190.29 130.75
  L 185.94 135.17
  C 185.02 130.46 184.96 125.48 185.75 120.25
  C 186.97 112.20 189.28 104.90 192.67 98.34
  C 199.18 94.57 206.23 91.81 213.81 90.06
  C 215.43 89.69 220.03 88.75 227.61 87.23
  Z"
/>
<path fill="#006384" d="
  M 287.79 91.00
  C 300.90 95.91 313.07 103.22 324.31 112.94
  C 327.46 115.65 329.78 118.38 331.27 121.13
  C 329.12 136.53 322.92 149.88 312.69 161.19
  C 310.90 163.16 307.16 166.65 301.48 171.64
  C 299.85 173.07 298.83 174.38 298.42 175.59
  C 297.85 177.24 297.80 179.00 298.27 180.85
  C 298.68 182.48 299.11 184.12 299.54 185.75
  C 297.14 188.37 295.08 191.27 293.35 194.46
  C 287.65 195.49 283.89 196.35 282.06 197.06
  C 281.01 197.47 279.58 198.71 277.77 200.77
  C 276.02 202.76 273.85 203.61 271.24 203.32
  C 270.91 203.28 270.85 203.12 271.07 202.85
  C 272.90 200.57 274.77 198.33 276.69 196.12
  C 277.65 195.01 278.21 193.92 278.36 192.83
  C 278.51 191.72 278.56 190.45 278.50 189.00
  C 278.39 186.55 277.07 185.01 274.54 184.38
  C 281.11 181.89 285.99 178.16 289.19 173.19
  C 295.03 164.10 296.79 153.81 294.46 142.31
  C 295.09 138.92 294.56 135.70 292.86 132.67
  C 296.61 129.76 299.24 125.95 300.75 121.24
  C 301.13 120.07 300.90 119.93 300.07 120.84
  C 297.67 123.46 294.73 125.67 291.25 127.46
  L 289.25 123.96
  C 290.57 121.52 291.94 119.11 293.37 116.73
  C 293.63 116.29 293.79 115.91 293.86 115.59
  C 294.05 114.63 293.67 114.29 292.72 114.56
  C 292.33 114.67 291.95 114.92 291.56 115.31
  C 290.37 116.51 289.18 117.73 288.00 118.96
  C 286.55 113.37 285.71 108.13 285.50 103.25
  C 285.32 99.19 286.08 95.11 287.79 91.00
  Z"
/>
<path fill="#fcfeff" d="
  M 192.67 98.34
  C 189.28 104.90 186.97 112.20 185.75 120.25
  C 184.96 125.48 185.02 130.46 185.94 135.17
  C 183.84 133.92 182.36 132.10 181.50 129.71
  C 181.39 120.30 183.21 111.20 186.97 102.43
  C 188.32 100.58 190.22 99.21 192.67 98.34
  Z"
/>
<path fill="#2d394f" d="
  M 186.97 102.43
  C 183.21 111.20 181.39 120.30 181.50 129.71
  C 180.27 130.32 180.04 131.23 180.81 132.44
  C 181.54 133.58 182.04 134.60 182.29 135.50
  C 181.93 135.99 181.92 136.60 182.26 137.33
  C 179.43 138.18 177.73 137.17 177.15 134.30
  L 178.23 120.39
  C 179.01 119.14 179.36 117.77 179.28 116.29
  C 179.20 114.65 179.28 113.48 179.53 112.77
  C 180.96 108.64 183.44 105.20 186.97 102.43
  Z"
/>
<path fill="#020e41" d="
  M 288.00 118.96
  C 289.18 117.73 290.37 116.51 291.56 115.31
  C 291.95 114.92 292.33 114.67 292.72 114.56
  C 293.67 114.29 294.05 114.63 293.86 115.59
  C 293.79 115.91 293.63 116.29 293.37 116.73
  C 291.94 119.11 290.57 121.52 289.25 123.96
  L 285.89 127.95
  C 285.65 128.23 285.55 128.56 285.65 128.80
  C 285.78 129.14 286.06 129.29 286.50 129.25
  C 288.07 129.12 289.66 128.52 291.25 127.46
  C 294.73 125.67 297.67 123.46 300.07 120.84
  C 300.90 119.93 301.13 120.07 300.75 121.24
  C 299.24 125.95 296.61 129.76 292.86 132.67
  L 290.79 134.06
  C 290.57 134.20 290.50 134.51 290.64 134.77
  L 294.46 142.31
  C 296.79 153.81 295.03 164.10 289.19 173.19
  C 285.99 178.16 281.11 181.89 274.54 184.38
  C 270.07 185.99 265.56 186.56 261.02 186.11
  C 256.78 185.68 252.70 184.09 248.77 181.32
  C 243.89 177.89 239.98 173.62 237.03 168.51
  C 234.14 163.50 232.48 158.12 232.05 152.35
  C 231.18 140.66 235.69 130.98 245.56 123.31
  C 249.21 120.48 253.77 118.78 259.24 118.23
  C 263.51 117.99 267.86 118.53 272.27 119.85
  C 272.59 119.95 272.93 119.94 273.23 119.84
  C 276.06 118.85 278.24 117.16 279.75 114.75
  C 280.80 113.08 281.86 111.72 282.94 110.66
  C 283.23 110.38 283.57 110.26 283.80 110.35
  C 284.11 110.48 284.16 110.86 283.94 111.48
  C 282.18 116.57 280.43 120.23 278.69 122.44
  C 278.01 123.30 278.12 123.85 279.02 124.08
  C 279.41 124.18 279.84 124.13 280.31 123.92
  C 283.12 122.66 285.68 121.01 288.00 118.96
  Z
  M 285.00 165.54
  C 289.37 157.45 289.85 149.38 286.44 141.31
  C 284.30 136.26 280.50 132.24 275.04 129.25
  C 268.53 124.30 261.34 123.22 253.47 126.01
  C 245.64 128.78 240.58 133.97 238.31 141.56
  C 235.20 151.96 237.13 161.40 244.10 169.88
  C 250.45 177.60 258.66 180.46 268.74 178.47
  C 276.43 176.95 281.85 172.64 285.00 165.54
  Z"
/>
<ellipse fill="#032c4a" cx="0.00" cy="0.00" transform="translate(272.21,115.42) rotate(40.9)" rx="3.86" ry="1.67"/>
<path fill="#032c4a" d="
  M 191.39 126.93
  C 191.57 124.48 192.25 122.41 193.43 120.71
  C 196.64 119.62 200.08 119.55 203.75 120.50
  C 206.68 121.26 208.99 122.06 210.68 122.91
  C 211.25 123.20 211.65 123.58 211.88 124.05
  C 212.43 125.24 211.72 125.64 209.75 125.25
  C 202.89 123.89 196.77 124.45 191.39 126.93
  Z"
/>
<path fill="#022350" d="
  M 331.27 121.13
  C 334.91 124.44 337.34 128.35 338.57 132.86
  C 339.13 134.93 339.13 137.19 338.58 139.64
  C 335.60 152.85 328.51 163.74 317.31 172.31
  C 307.46 179.84 301.54 184.32 299.54 185.75
  C 299.11 184.12 298.68 182.48 298.27 180.85
  C 297.80 179.00 297.85 177.24 298.42 175.59
  C 298.83 174.38 299.85 173.07 301.48 171.64
  C 307.16 166.65 310.90 163.16 312.69 161.19
  C 322.92 149.88 329.12 136.53 331.27 121.13
  Z"
/>
<path fill="#33d7d6" d="
  M 289.25 123.96
  L 291.25 127.46
  C 289.66 128.52 288.07 129.12 286.50 129.25
  C 286.06 129.29 285.78 129.14 285.65 128.80
  C 285.55 128.56 285.65 128.23 285.89 127.95
  L 289.25 123.96
  Z"
/>
<path fill="#e1fbf9" d="
  M 275.04 129.25
  C 273.74 131.77 272.88 134.44 272.46 137.25
  C 271.05 136.22 269.53 135.59 267.90 135.34
  C 267.07 135.21 265.47 135.11 263.10 135.02
  C 259.09 134.87 255.70 136.01 252.94 138.44
  C 250.55 140.54 248.12 143.84 245.65 148.34
  C 242.70 154.67 243.49 160.73 248.00 166.50
  C 255.32 175.87 264.32 177.78 275.00 172.21
  C 278.08 170.26 280.83 167.92 283.25 165.21
  L 285.00 165.54
  C 281.85 172.64 276.43 176.95 268.74 178.47
  C 258.66 180.46 250.45 177.60 244.10 169.88
  C 237.13 161.40 235.20 151.96 238.31 141.56
  C 240.58 133.97 245.64 128.78 253.47 126.01
  C 261.34 123.22 268.53 124.30 275.04 129.25
  Z"
/>
<path fill="#041231" d="
  M 201.50 184.29
  L 197.77 182.75
  C 197.47 182.63 197.42 182.70 197.61 182.95
  C 199.46 185.38 200.66 188.06 201.19 190.97
  C 201.65 193.48 201.46 196.31 200.63 199.46
  C 198.32 208.22 193.25 214.51 185.41 218.34
  C 181.68 220.16 177.27 221.13 172.16 221.24
  C 166.91 221.36 161.86 220.86 157.00 219.75
  C 149.52 218.04 141.37 215.54 132.54 212.25
  C 132.37 211.04 132.78 210.20 133.75 209.71
  C 136.66 212.19 139.41 213.79 142.00 214.50
  C 151.63 217.14 160.38 218.39 168.25 218.25
  C 175.17 218.13 181.65 216.44 187.70 213.18
  C 188.05 212.99 188.13 212.52 187.86 212.23
  C 186.21 210.46 184.38 208.90 182.38 207.54
  C 179.35 205.49 177.47 204.05 176.73 203.22
  C 174.35 200.58 172.61 197.42 171.50 193.75
  C 170.95 191.92 170.85 190.19 171.20 188.55
  C 171.26 188.26 171.52 188.06 171.81 188.08
  C 173.44 188.16 174.99 188.50 176.46 189.11
  C 178.81 190.08 180.27 190.64 180.84 190.79
  C 185.90 192.11 190.83 193.36 195.64 194.55
  C 196.22 194.69 196.77 194.25 196.76 193.66
  C 196.70 190.28 196.04 187.20 194.79 184.43
  C 193.98 182.65 192.28 180.48 189.67 177.92
  C 186.78 175.07 184.91 173.00 184.06 171.69
  C 180.51 166.20 178.90 159.92 179.22 152.86
  C 179.29 151.14 178.74 149.65 177.56 148.39
  C 174.73 145.39 172.52 141.69 170.93 137.28
  C 170.80 136.89 170.76 136.53 170.81 136.19
  C 171.00 135.01 171.53 135.13 172.42 136.55
  C 174.07 139.20 176.07 141.55 178.40 143.59
  C 178.71 143.86 179.03 144.00 179.36 144.01
  C 180.25 144.05 180.36 143.57 179.69 142.56
  C 177.22 138.90 175.52 135.55 174.58 132.51
  C 174.53 132.34 174.49 132.16 174.48 131.99
  C 174.36 130.42 174.59 130.35 175.16 131.76
  C 175.21 131.90 175.24 132.06 175.24 132.25
  C 175.26 133.34 175.90 134.02 177.15 134.30
  C 177.73 137.17 179.43 138.18 182.26 137.33
  C 182.81 138.72 183.46 138.92 184.22 137.92
  C 184.40 137.68 184.37 137.34 184.15 137.15
  L 182.29 135.50
  C 182.04 134.60 181.54 133.58 180.81 132.44
  C 180.04 131.23 180.27 130.32 181.50 129.71
  C 182.36 132.10 183.84 133.92 185.94 135.17
  L 190.29 130.75
  C 198.07 126.73 206.33 126.38 215.06 129.69
  C 216.37 130.18 217.42 130.81 218.21 131.56
  C 218.41 131.75 219.15 132.67 220.43 134.34
  C 222.96 137.65 224.65 140.78 225.50 143.75
  C 226.79 148.24 227.36 153.32 227.23 158.99
  C 227.16 161.76 226.75 164.56 225.99 167.41
  C 225.14 170.58 224.23 173.28 223.25 175.50
  C 222.50 177.18 221.17 178.93 219.25 180.75
  C 214.18 185.55 208.27 186.73 201.50 184.29
  Z
  M 217.54 171.75
  C 220.93 167.37 222.68 162.53 222.81 157.22
  C 222.88 153.99 222.64 150.85 222.08 147.80
  C 221.51 144.63 220.33 141.66 218.54 138.87
  C 216.87 135.30 213.85 133.26 209.50 132.75
  C 206.28 132.38 203.31 132.39 200.60 132.79
  C 197.69 133.22 194.99 134.29 192.49 136.00
  C 186.39 140.19 183.31 146.28 183.25 154.25
  C 183.20 161.99 185.75 168.21 190.91 172.91
  C 194.87 176.52 199.09 178.54 203.57 178.98
  C 209.08 179.53 213.74 177.12 217.54 171.75
  Z
  M 195.19 197.49
  C 191.81 196.00 188.40 194.66 184.97 193.49
  C 184.92 193.48 183.84 193.05 181.71 192.22
  C 179.65 191.42 177.24 190.89 174.48 190.63
  C 173.91 190.58 173.48 191.16 173.71 191.69
  C 175.16 195.11 177.11 198.12 179.54 200.71
  C 182.21 203.56 185.53 204.84 189.50 204.53
  C 193.13 204.25 195.22 202.26 195.78 198.57
  C 195.85 198.12 195.60 197.68 195.19 197.49
  Z"
/>
<path fill="#09d7db" d="
  M 275.04 129.25
  C 280.50 132.24 284.30 136.26 286.44 141.31
  C 289.85 149.38 289.37 157.45 285.00 165.54
  L 283.25 165.21
  C 283.72 164.74 283.91 164.26 283.80 163.75
  C 283.71 163.32 283.71 162.89 283.78 162.46
  C 284.87 156.08 284.65 150.31 283.12 145.15
  C 283.04 144.87 282.90 144.65 282.69 144.48
  C 281.84 143.77 281.53 143.96 281.77 145.05
  C 283.14 151.29 282.64 157.38 280.29 163.31
  C 279.11 166.29 277.62 168.54 275.81 170.06
  C 274.98 170.76 274.71 171.48 275.00 172.21
  C 264.32 177.78 255.32 175.87 248.00 166.50
  C 243.49 160.73 242.70 154.67 245.65 148.34
  C 246.05 152.43 247.31 156.42 249.44 160.31
  C 251.92 164.86 255.44 167.57 259.99 168.44
  C 262.54 168.93 265.01 168.71 267.40 167.78
  C 269.69 166.89 271.83 165.48 273.81 163.56
  C 277.04 160.43 278.64 156.75 278.60 152.50
  C 278.55 146.55 276.51 141.47 272.46 137.25
  C 272.88 134.44 273.74 131.77 275.04 129.25
  Z"
/>
<path fill="#ebfbfb" d="
  M 218.54 138.87
  C 217.82 139.80 217.24 139.41 216.81 137.68
  C 216.67 137.14 216.03 136.93 215.60 137.28
  C 214.13 138.47 213.10 139.96 212.50 141.75
  C 211.99 143.28 211.30 144.27 210.43 144.72
  C 208.38 142.69 206.67 141.35 205.31 140.69
  C 203.82 139.96 202.42 140.20 201.10 141.40
  C 200.99 141.50 200.71 141.65 200.26 141.86
  L 196.75 143.46
  C 196.68 142.51 196.18 142.36 195.25 143.00
  C 187.92 148.11 186.28 154.94 190.33 163.49
  C 192.85 168.81 196.85 172.53 202.33 174.64
  C 205.68 175.93 208.84 175.57 211.79 173.54
  C 212.82 172.83 213.96 172.46 215.19 172.43
  C 215.46 172.42 215.75 172.27 215.97 172.02
  C 216.38 171.55 216.91 171.46 217.54 171.75
  C 213.74 177.12 209.08 179.53 203.57 178.98
  C 199.09 178.54 194.87 176.52 190.91 172.91
  C 185.75 168.21 183.20 161.99 183.25 154.25
  C 183.31 146.28 186.39 140.19 192.49 136.00
  C 194.99 134.29 197.69 133.22 200.60 132.79
  C 203.31 132.39 206.28 132.38 209.50 132.75
  C 213.85 133.26 216.87 135.30 218.54 138.87
  Z"
/>
<path fill="#33d7d6" d="
  M 292.86 132.67
  C 294.56 135.70 295.09 138.92 294.46 142.31
  L 290.64 134.77
  C 290.50 134.51 290.57 134.20 290.79 134.06
  L 292.86 132.67
  Z"
/>
<path fill="#02043b" d="
  M 272.46 137.25
  C 276.51 141.47 278.55 146.55 278.60 152.50
  C 278.64 156.75 277.04 160.43 273.81 163.56
  C 271.83 165.48 269.69 166.89 267.40 167.78
  C 265.01 168.71 262.54 168.93 259.99 168.44
  C 255.44 167.57 251.92 164.86 249.44 160.31
  C 247.31 156.42 246.05 152.43 245.65 148.34
  C 248.12 143.84 250.55 140.54 252.94 138.44
  C 255.70 136.01 259.09 134.87 263.10 135.02
  C 265.47 135.11 267.07 135.21 267.90 135.34
  C 269.53 135.59 271.05 136.22 272.46 137.25
  Z
  M 255.1014 148.2787
  C 257.23 149.40 259.98 148.35 261.2579 145.9288
  C 262.53 143.51 261.84 140.64 259.7186 139.5213
  C 257.59 138.40 254.84 139.45 253.5621 141.8712
  C 252.29 144.29 252.98 147.16 255.1014 148.2787
  Z
  M 255.16 150.14
  C 253.76 149.15 252.60 148.84 251.69 149.19
  C 248.70 150.34 247.83 152.27 249.09 155.00
  C 249.21 155.27 249.51 155.41 249.81 155.36
  C 252.62 154.87 255.20 153.83 257.54 152.22
  C 257.80 152.04 257.92 151.72 257.81 151.45
  C 257.54 150.78 256.96 150.44 256.06 150.42
  C 255.72 150.41 255.41 150.32 255.16 150.14
  Z"
/>
<path fill="#fcfeff" d="
  M 182.29 135.50
  L 184.15 137.15
  C 184.37 137.34 184.40 137.68 184.22 137.92
  C 183.46 138.92 182.81 138.72 182.26 137.33
  C 181.92 136.60 181.93 135.99 182.29 135.50
  Z"
/>
<path fill="#09d7db" d="
  M 218.54 138.87
  C 220.33 141.66 221.51 144.63 222.08 147.80
  C 222.64 150.85 222.88 153.99 222.81 157.22
  C 222.68 162.53 220.93 167.37 217.54 171.75
  C 216.91 171.46 216.38 171.55 215.97 172.02
  C 215.75 172.27 215.46 172.42 215.19 172.43
  C 213.96 172.46 212.82 172.83 211.79 173.54
  C 208.84 175.57 205.68 175.93 202.33 174.64
  C 196.85 172.53 192.85 168.81 190.33 163.49
  C 186.28 154.94 187.92 148.11 195.25 143.00
  C 196.18 142.36 196.68 142.51 196.75 143.46
  C 192.16 146.96 190.25 151.47 191.00 157.00
  C 191.63 161.60 193.77 165.26 197.42 167.98
  C 199.43 169.49 201.46 170.35 203.49 170.56
  C 206.02 170.83 208.26 170.12 210.19 168.44
  C 218.76 160.99 218.84 153.08 210.43 144.72
  C 211.30 144.27 211.99 143.28 212.50 141.75
  C 213.10 139.96 214.13 138.47 215.60 137.28
  C 216.03 136.93 216.67 137.14 216.81 137.68
  C 217.24 139.41 217.82 139.80 218.54 138.87
  Z"
/>
<ellipse fill="#fcfeff" cx="0.00" cy="0.00" transform="translate(257.41,143.90) rotate(117.8)" rx="4.95" ry="4.35"/>
<path fill="#021c5d" d="
  M 210.43 144.72
  C 218.84 153.08 218.76 160.99 210.19 168.44
  C 208.26 170.12 206.02 170.83 203.49 170.56
  C 201.46 170.35 199.43 169.49 197.42 167.98
  C 193.77 165.26 191.63 161.60 191.00 157.00
  C 190.25 151.47 192.16 146.96 196.75 143.46
  L 200.26 141.86
  C 200.71 141.65 200.99 141.50 201.10 141.40
  C 202.42 140.20 203.82 139.96 205.31 140.69
  C 206.67 141.35 208.38 142.69 210.43 144.72
  Z
  M 206.25 149.60
  C 206.25 146.83 204.00 144.58 201.23 144.58
  C 198.46 144.58 196.21 146.83 196.21 149.60
  C 196.21 152.37 198.46 154.62 201.23 154.62
  C 204.00 154.62 206.25 152.37 206.25 149.60
  Z"
/>
<path fill="#04c6c6" d="
  M 283.25 165.21
  C 280.83 167.92 278.08 170.26 275.00 172.21
  C 274.71 171.48 274.98 170.76 275.81 170.06
  C 277.62 168.54 279.11 166.29 280.29 163.31
  C 282.64 157.38 283.14 151.29 281.77 145.05
  C 281.53 143.96 281.84 143.77 282.69 144.48
  C 282.90 144.65 283.04 144.87 283.12 145.15
  C 284.65 150.31 284.87 156.08 283.78 162.46
  C 283.71 162.89 283.71 163.32 283.80 163.75
  C 283.91 164.26 283.72 164.74 283.25 165.21
  Z"
/>
<circle fill="#fcfeff" cx="201.23" cy="149.60" r="5.02"/>
<path fill="#10347e" d="
  M 256.06 150.42
  C 256.96 150.44 257.54 150.78 257.81 151.45
  C 257.92 151.72 257.80 152.04 257.54 152.22
  C 255.20 153.83 252.62 154.87 249.81 155.36
  C 249.51 155.41 249.21 155.27 249.09 155.00
  C 247.83 152.27 248.70 150.34 251.69 149.19
  C 252.60 148.84 253.76 149.15 255.16 150.14
  C 255.41 150.32 255.72 150.41 256.06 150.42
  Z"
/>
<path fill="#33d7d6" d="
  M 360.52 168.95
  C 360.86 165.34 360.19 161.96 358.52 158.79
  C 358.21 158.21 358.37 158.03 358.99 158.25
  C 360.80 158.88 361.94 160.14 362.43 162.02
  C 363.08 164.53 363.42 166.75 363.43 168.68
  C 363.44 169.52 363.04 170.31 362.36 170.81
  C 360.20 172.38 359.46 172.23 360.15 170.38
  C 360.36 169.81 360.49 169.34 360.52 168.95
  Z"
/>
<path fill="#6ffbef" d="
  M 413.75 163.54
  C 414.09 166.85 413.29 169.66 411.36 171.99
  C 410.69 172.80 409.63 173.62 408.20 174.47
  C 406.31 175.58 405.14 176.24 404.69 176.44
  C 400.54 178.31 397.45 180.56 395.44 183.19
  C 394.19 184.82 393.63 186.91 393.75 189.46
  C 392.55 190.31 391.79 189.75 391.48 187.80
  C 392.45 184.49 394.03 181.65 396.24 179.30
  C 397.63 177.82 398.73 176.72 399.55 175.99
  C 400.58 175.08 401.88 174.17 403.43 173.27
  C 404.56 172.61 405.42 171.70 406.02 170.55
  C 408.10 166.56 407.14 163.69 403.14 161.95
  C 402.47 160.73 402.75 160.08 404.00 160.00
  C 408.12 159.73 411.37 160.91 413.75 163.54
  Z"
/>
<path fill="#04c6c6" d="
  M 403.14 161.95
  C 407.14 163.69 408.10 166.56 406.02 170.55
  C 405.42 171.70 404.56 172.61 403.43 173.27
  C 401.88 174.17 400.58 175.08 399.55 175.99
  C 398.73 176.72 397.63 177.82 396.24 179.30
  C 394.03 181.65 392.45 184.49 391.48 187.80
  C 389.42 182.16 389.95 177.00 393.06 172.31
  C 395.45 168.72 398.81 165.26 403.14 161.95
  Z"
/>
<path fill="#006384" d="
  M 413.75 163.54
  C 415.12 163.39 416.01 163.97 416.41 165.28
  C 417.51 168.86 417.35 172.50 415.94 176.19
  C 415.17 178.21 413.83 179.54 411.94 180.19
  C 410.56 180.66 408.58 180.94 405.99 181.04
  C 402.16 181.19 399.18 182.79 397.03 185.83
  C 396.87 186.07 396.77 186.39 396.75 186.75
  C 396.66 188.53 395.66 189.43 393.75 189.46
  C 393.63 186.91 394.19 184.82 395.44 183.19
  C 397.45 180.56 400.54 178.31 404.69 176.44
  C 405.14 176.24 406.31 175.58 408.20 174.47
  C 409.63 173.62 410.69 172.80 411.36 171.99
  C 413.29 169.66 414.09 166.85 413.75 163.54
  Z"
/>
<path fill="#07d6ce" d="
  M 327.76 183.32
  C 327.78 183.19 327.93 183.13 328.04 183.19
  C 336.98 188.00 345.50 187.37 353.60 181.30
  C 353.86 181.11 354.20 181.15 354.32 181.39
  L 355.95 184.72
  C 356.35 185.53 356.09 186.57 355.33 187.27
  C 352.42 189.94 349.02 192.02 345.13 193.49
  C 340.20 195.36 335.76 195.17 331.81 192.94
  C 328.27 190.93 326.92 187.72 327.76 183.32
  Z"
/>
<path fill="#aefef1" d="
  M 201.50 184.29
  C 202.10 187.22 203.49 189.77 205.68 191.93
  C 204.87 193.50 204.69 194.82 205.14 195.87
  C 205.75 197.28 205.87 198.74 205.50 200.23
  C 204.99 202.32 204.56 204.43 204.21 206.55
  C 203.78 209.14 203.25 211.22 202.62 212.78
  C 201.38 215.84 199.86 218.77 198.06 221.56
  C 197.59 222.30 197.07 224.35 196.50 227.71
  L 195.75 228.54
  C 194.34 229.91 192.67 230.80 190.74 231.21
  C 185.21 232.38 179.63 233.29 174.02 233.94
  C 171.05 234.29 167.55 234.06 163.50 233.25
  C 153.85 231.32 145.31 228.21 137.88 223.91
  C 134.72 222.09 131.59 220.22 128.50 218.29
  C 130.61 216.83 131.96 214.82 132.54 212.25
  C 141.37 215.54 149.52 218.04 157.00 219.75
  C 161.86 220.86 166.91 221.36 172.16 221.24
  C 177.27 221.13 181.68 220.16 185.41 218.34
  C 193.25 214.51 198.32 208.22 200.63 199.46
  C 201.46 196.31 201.65 193.48 201.19 190.97
  C 200.66 188.06 199.46 185.38 197.61 182.95
  C 197.42 182.70 197.47 182.63 197.77 182.75
  L 201.50 184.29
  Z"
/>
<path fill="#022e5c" d="
  M 320.25 204.96
  C 315.21 200.72 309.63 197.41 303.50 195.04
  C 301.67 194.22 299.76 193.78 297.75 193.71
  C 298.07 192.34 298.77 191.23 299.85 190.36
  C 308.69 183.35 317.34 183.54 325.81 190.94
  C 327.58 192.48 329.24 193.83 330.81 194.99
  C 332.48 196.22 334.20 197.48 335.97 198.77
  C 339.83 201.57 344.01 203.81 348.50 205.50
  C 349.64 205.93 352.20 205.96 356.19 205.61
  C 356.44 205.59 356.64 205.81 356.58 206.04
  C 356.15 207.60 355.04 208.52 353.26 208.80
  C 346.11 209.90 339.25 209.74 332.69 208.31
  C 329.18 207.54 325.83 205.96 322.65 203.56
  C 322.40 203.37 322.06 203.34 321.81 203.49
  C 321.20 203.86 320.68 204.35 320.25 204.96
  Z"
/>
<path fill="#041231" d="
  M 240.06 196.07
  C 236.32 199.43 232.10 200.50 227.41 199.28
  C 225.82 198.87 224.68 198.30 223.99 197.57
  C 222.92 196.46 222.75 195.02 223.50 193.25
  C 224.32 191.32 225.73 189.97 227.72 189.22
  C 228.08 189.09 228.16 189.18 227.97 189.51
  L 225.32 193.96
  C 224.98 194.53 225.22 195.25 225.80 195.43
  C 228.69 196.37 231.54 196.26 234.33 195.11
  C 238.29 193.48 241.37 190.86 243.56 187.24
  C 243.69 187.02 243.99 186.95 244.23 187.08
  L 251.37 191.15
  C 251.94 191.48 251.90 191.68 251.27 191.75
  C 249.09 191.99 247.26 191.63 245.78 190.66
  C 245.34 190.38 244.76 190.50 244.48 190.94
  C 243.27 192.81 241.79 194.52 240.06 196.07
  Z"
/>
<path fill="#21ecde" d="
  M 195.19 197.49
  C 195.60 197.68 195.85 198.12 195.78 198.57
  C 195.22 202.26 193.13 204.25 189.50 204.53
  C 185.53 204.84 182.21 203.56 179.54 200.71
  C 177.11 198.12 175.16 195.11 173.71 191.69
  C 173.48 191.16 173.91 190.58 174.48 190.63
  C 177.24 190.89 179.65 191.42 181.71 192.22
  C 183.84 193.05 184.92 193.48 184.97 193.49
  C 188.40 194.66 191.81 196.00 195.19 197.49
  Z"
/>
<path fill="#87ffec" d="
  M 205.68 191.93
  C 208.95 199.11 209.16 206.24 206.31 213.31
  C 204.17 218.62 200.90 223.42 196.50 227.71
  C 197.07 224.35 197.59 222.30 198.06 221.56
  C 199.86 218.77 201.38 215.84 202.62 212.78
  C 203.25 211.22 203.78 209.14 204.21 206.55
  C 204.56 204.43 204.99 202.32 205.50 200.23
  C 205.87 198.74 205.75 197.28 205.14 195.87
  C 204.69 194.82 204.87 193.50 205.68 191.93
  Z"
/>
<path fill="#03d3c6" d="
  M 303.50 195.04
  C 309.63 197.41 315.21 200.72 320.25 204.96
  C 326.99 210.67 335.24 213.94 345.00 214.75
  C 354.33 215.52 362.75 214.58 370.28 211.92
  C 370.58 211.82 370.90 211.92 371.04 212.16
  L 374.21 217.75
  C 360.15 223.12 345.72 224.24 330.93 221.12
  C 325.12 219.89 319.73 217.67 314.75 214.46
  C 313.71 213.30 312.49 212.44 311.09 211.87
  C 309.48 211.21 308.65 210.87 308.59 210.84
  C 306.20 209.71 304.15 208.95 302.44 208.56
  C 300.15 208.05 299.42 206.64 300.23 204.33
  C 300.64 203.18 301.01 202.01 301.34 200.84
  C 301.35 200.79 301.48 199.92 301.72 198.23
  C 301.89 196.99 302.49 195.93 303.50 195.04
  Z"
/>
<path fill="#c4ffff" d="
  M 130.58 211.91
  C 126.93 205.20 121.39 203.30 113.98 206.19
  C 113.75 206.28 113.50 206.11 113.50 205.86
  L 113.50 203.79
  C 118.24 200.04 122.86 200.07 127.36 203.89
  C 129.71 205.89 130.79 208.56 130.58 211.91
  Z"
/>
<path fill="#018194" d="
  M 113.50 203.79
  L 113.50 205.86
  C 113.50 206.11 113.75 206.28 113.98 206.19
  C 121.39 203.30 126.93 205.20 130.58 211.91
  C 130.57 212.84 130.12 214.13 129.24 215.77
  C 128.99 216.24 128.78 216.22 128.62 215.71
  C 128.17 214.25 127.65 213.03 127.05 212.04
  C 126.34 210.87 125.57 209.90 124.75 209.15
  C 123.76 208.24 122.58 207.73 121.22 207.63
  C 119.91 207.54 118.59 207.59 117.28 207.79
  C 115.72 208.02 114.56 208.77 113.81 210.06
  C 112.45 212.38 111.33 212.59 110.45 210.70
  C 110.07 209.89 109.89 209.06 109.92 208.21
  C 109.99 206.02 111.19 204.55 113.50 203.79
  Z"
/>
<path fill="#ebfbfb" d="
  M 126.50 217.71
  L 121.50 215.21
  C 121.87 214.18 122.47 213.31 123.29 212.62
  C 123.51 212.44 123.84 212.49 123.96 212.73
  L 126.50 217.71
  Z"
/>
<path fill="#7af6f0" d="
  M 314.75 214.46
  C 319.73 217.67 325.12 219.89 330.93 221.12
  C 345.72 224.24 360.15 223.12 374.21 217.75
  L 377.75 223.96
  C 372.74 226.35 367.26 228.05 361.31 229.06
  C 348.42 231.26 335.88 230.51 323.69 226.81
  C 320.08 225.72 314.76 223.10 307.75 218.96
  C 308.86 217.88 310.15 217.39 311.60 217.49
  C 312.71 217.56 312.90 217.17 312.19 216.32
  C 310.21 213.93 311.06 213.31 314.75 214.46
  Z"
/>
<path fill="#018194" d="
  M 121.50 215.21
  L 126.50 217.71
  C 126.99 218.50 127.65 218.69 128.50 218.29
  C 131.59 220.22 134.72 222.09 137.88 223.91
  C 145.31 228.21 153.85 231.32 163.50 233.25
  C 167.55 234.06 171.05 234.29 174.02 233.94
  C 179.63 233.29 185.21 232.38 190.74 231.21
  C 192.67 230.80 194.34 229.91 195.75 228.54
  C 195.34 229.96 195.61 231.19 196.58 232.22
  C 196.83 232.49 196.99 232.76 197.06 233.04
  C 198.27 238.02 198.01 243.00 196.30 247.99
  C 190.83 248.82 185.15 249.24 179.25 249.25
  C 169.43 249.25 160.08 247.18 151.20 243.04
  C 140.99 238.29 131.59 231.69 123.00 223.25
  C 121.43 221.71 120.27 220.35 119.51 219.18
  C 119.31 218.87 119.28 218.52 119.44 218.29
  L 121.50 215.21
  Z"
/>
<path fill="#006384" d="
  M 307.75 218.96
  C 314.76 223.10 320.08 225.72 323.69 226.81
  C 335.88 230.51 348.42 231.26 361.31 229.06
  C 367.26 228.05 372.74 226.35 377.75 223.96
  L 381.47 230.94
  C 381.62 231.21 381.49 231.55 381.20 231.68
  C 374.41 234.72 367.39 236.67 360.14 237.52
  C 353.21 238.33 346.61 238.31 340.35 237.44
  C 333.65 236.51 327.28 234.47 321.24 231.31
  C 319.30 230.30 316.12 228.22 311.70 225.09
  C 308.60 222.89 305.45 220.76 302.25 218.71
  C 302.06 218.44 301.81 218.21 301.50 218.04
  C 302.35 217.35 303.27 217.09 304.26 217.27
  C 304.57 217.33 305.14 217.63 305.95 218.18
  C 306.49 218.55 307.09 218.81 307.75 218.96
  Z"
/>
<path fill="#027ca2" d="
  M 301.50 218.04
  C 301.81 218.21 302.06 218.44 302.25 218.71
  C 301.84 218.64 301.57 218.73 301.42 218.96
  C 301.29 219.17 301.38 219.52 301.63 219.83
  C 307.60 227.28 312.37 234.53 315.94 241.56
  C 321.97 253.46 327.74 263.62 333.25 272.04
  C 337.90 280.07 342.88 287.24 348.19 293.56
  C 351.33 297.31 354.90 300.77 358.91 303.95
  C 363.74 307.79 367.81 310.62 371.12 312.44
  C 377.91 316.18 385.37 317.83 393.48 317.38
  C 399.03 316.46 404.40 315.19 409.57 313.56
  C 410.55 313.25 410.70 313.47 410.01 314.24
  C 406.28 318.40 401.69 321.15 396.25 322.50
  C 390.29 323.97 383.62 323.72 376.25 321.73
  C 366.48 319.10 357.39 314.95 349.00 309.28
  C 337.49 301.52 327.18 292.07 318.06 280.94
  C 312.51 274.15 307.85 268.22 304.09 263.13
  C 299.44 256.83 293.89 251.45 287.45 247.00
  C 285.76 245.83 284.01 244.96 282.20 244.39
  C 281.78 244.26 281.37 244.63 281.46 245.06
  C 283.39 254.47 285.04 263.90 286.41 273.34
  C 287.05 277.71 288.05 284.30 289.42 293.10
  C 291.27 305.03 292.47 316.66 293.00 328.00
  C 293.51 338.85 292.98 349.81 291.41 360.89
  C 290.48 367.51 289.08 374.02 287.23 380.43
  C 284.11 391.22 280.03 401.66 274.99 411.75
  L 280.96 386.25
  L 283.46 365.00
  C 284.07 357.29 284.08 350.20 283.50 343.75
  C 282.85 336.53 281.79 328.94 280.31 320.99
  C 279.95 319.06 278.64 312.52 276.38 301.38
  C 273.94 289.36 271.90 280.65 270.25 275.25
  C 267.44 266.02 265.60 256.86 264.75 247.75
  C 264.40 243.95 265.18 240.67 267.10 237.90
  C 267.81 236.87 270.14 234.67 274.09 231.29
  C 281.34 225.08 286.00 221.33 288.06 220.06
  C 291.58 217.89 296.06 217.22 301.50 218.04
  Z"
/>
<path fill="#04c6c6" d="
  M 205.91 229.58
  L 205.45 237.13
  C 203.16 238.36 201.69 240.23 201.04 242.75
  C 200.69 240.42 201.05 238.27 202.12 236.30
  C 202.68 235.27 203.22 234.12 203.75 232.85
  C 204.24 231.66 204.96 230.57 205.91 229.58
  Z"
/>
<path fill="#9afeed" d="
  M 191.00 319.96
  C 187.21 324.31 182.99 328.17 178.34 331.56
  C 177.68 332.03 176.40 332.60 174.50 333.25
  C 173.69 333.52 173.36 333.20 173.50 332.29
  C 180.10 325.46 185.70 317.64 190.31 308.81
  C 192.89 303.87 195.19 299.07 197.22 294.40
  C 199.49 289.18 201.21 284.14 202.36 279.29
  C 204.59 269.90 205.67 260.34 205.58 250.62
  C 205.57 250.15 205.70 247.91 205.95 243.90
  C 206.09 241.68 205.92 239.42 205.45 237.13
  L 205.91 229.58
  C 209.70 233.94 211.90 238.33 212.50 242.75
  C 212.90 245.71 213.37 248.66 213.90 251.59
  C 214.55 255.16 214.87 258.12 214.88 260.48
  C 214.91 274.60 211.38 288.13 204.31 301.06
  C 200.24 308.50 195.81 314.80 191.00 319.96
  Z"
/>
<path fill="#dafdfd" d="
  M 242.04 238.00
  C 240.22 267.29 232.05 294.64 217.53 320.05
  C 212.79 328.34 207.34 336.13 201.17 343.42
  C 196.20 349.28 190.08 353.83 182.81 357.06
  C 172.36 361.71 161.75 365.01 150.99 366.95
  C 138.12 369.27 125.31 369.06 112.54 366.31
  C 106.54 364.82 101.07 362.16 96.14 358.33
  C 95.25 357.64 95.29 357.48 96.26 357.83
  C 97.83 358.40 99.41 358.72 101.00 358.79
  C 102.64 360.32 104.31 361.23 106.00 361.50
  C 115.59 363.04 125.38 363.39 135.37 362.55
  C 140.92 362.08 146.50 361.12 152.10 359.66
  C 157.89 358.15 163.27 356.34 168.25 354.25
  C 172.98 352.26 177.15 350.58 180.77 349.22
  C 185.51 347.43 188.68 346.01 190.28 344.95
  C 193.02 343.14 195.66 340.81 198.19 337.94
  C 201.89 333.75 204.31 330.85 205.46 329.25
  C 216.94 313.81 225.47 296.87 231.06 278.44
  C 234.49 267.10 237.04 256.35 238.69 246.19
  C 239.19 243.12 239.76 240.57 240.40 238.54
  C 240.53 238.14 240.72 237.89 240.96 237.78
  C 241.31 237.62 241.67 237.69 242.04 238.00
  Z"
/>
<path fill="#037498" d="
  M 263.79 317.25
  C 264.79 329.82 266.36 342.32 268.50 354.75
  C 269.04 357.88 269.47 363.21 269.79 370.75
  C 269.94 379.98 269.76 387.32 269.25 392.75
  C 268.30 402.94 265.25 413.08 260.12 423.15
  C 255.67 431.87 249.34 438.91 241.12 444.26
  C 253.87 430.74 260.58 414.40 261.25 395.25
  C 262.05 372.36 261.13 350.54 258.50 329.81
  C 257.64 323.00 257.21 319.58 257.20 319.56
  C 255.68 306.49 254.49 293.39 253.63 280.26
  C 253.02 271.04 251.31 262.05 248.51 253.29
  C 247.95 251.54 247.62 251.58 247.52 253.42
  C 247.25 258.23 246.83 262.98 246.25 267.66
  C 245.65 272.52 244.79 277.21 243.68 281.73
  C 238.70 301.88 230.37 319.87 218.69 335.69
  C 210.01 347.44 198.32 356.21 183.63 361.99
  C 165.66 369.06 147.54 371.90 129.25 370.50
  C 124.30 370.12 118.73 368.72 112.54 366.31
  C 125.31 369.06 138.12 369.27 150.99 366.95
  C 161.75 365.01 172.36 361.71 182.81 357.06
  C 190.08 353.83 196.20 349.28 201.17 343.42
  C 207.34 336.13 212.79 328.34 217.53 320.05
  C 232.05 294.64 240.22 267.29 242.04 238.00
  C 243.71 237.37 245.09 237.64 246.19 238.81
  C 247.39 240.09 248.42 241.75 249.27 243.78
  C 251.63 249.41 253.78 255.13 255.71 260.93
  C 259.00 270.78 261.01 280.88 261.75 291.25
  C 262.37 299.92 263.05 308.59 263.79 317.25
  Z"
/>
<path fill="#b6f8f5" d="
  M 197.79 249.00
  C 198.18 248.89 198.52 248.97 198.79 249.25
  C 198.17 251.05 198.07 252.88 198.50 254.75
  C 198.66 255.45 198.66 256.74 198.51 258.62
  C 198.40 259.94 198.33 261.23 198.31 262.50
  C 198.19 269.53 196.89 276.28 194.42 282.75
  C 193.48 285.22 191.83 288.87 189.48 293.70
  C 187.73 297.31 185.83 300.84 183.80 304.31
  C 180.77 309.48 177.08 314.08 172.75 318.12
  C 171.77 319.04 170.61 319.50 169.27 319.50
  C 164.24 319.50 159.24 319.75 154.25 320.25
  C 154.01 320.28 153.83 320.25 153.72 320.18
  C 153.45 320.01 153.52 319.83 153.93 319.64
  C 155.48 318.93 157.09 318.39 158.76 318.02
  C 165.39 316.55 170.81 313.49 175.02 308.82
  C 176.93 306.71 179.77 302.25 183.55 295.44
  C 186.12 290.80 188.52 286.07 190.75 281.25
  C 193.79 274.65 195.54 268.40 196.00 262.50
  C 196.44 256.81 197.04 252.31 197.79 249.00
  Z"
/>
<path fill="#0a2761" d="
  M 333.25 272.04
  C 333.54 272.09 333.79 272.22 334.00 272.43
  C 334.13 272.56 334.25 272.80 334.34 273.15
  C 334.78 274.80 335.83 275.66 337.50 275.75
  C 337.83 275.76 338.12 275.91 338.30 276.14
  C 339.61 277.84 340.92 279.54 342.22 281.25
  C 343.35 282.72 344.53 284.51 345.75 286.62
  C 348.36 291.13 350.80 294.40 353.06 296.44
  C 359.97 302.67 366.97 307.59 374.06 311.19
  C 379.60 314.00 386.07 316.07 393.48 317.38
  C 385.37 317.83 377.91 316.18 371.12 312.44
  C 367.81 310.62 363.74 307.79 358.91 303.95
  C 354.90 300.77 351.33 297.31 348.19 293.56
  C 342.88 287.24 337.90 280.07 333.25 272.04
  Z"
/>
<path fill="#01e2e8" d="
  M 283.46 365.00
  L 280.96 386.25
  C 278.71 386.39 276.67 385.88 274.82 384.73
  C 274.65 384.62 274.66 384.52 274.83 384.43
  C 275.38 384.15 275.33 383.99 274.66 383.95
  C 274.44 383.94 274.24 383.83 274.10 383.66
  C 273.51 382.95 272.75 382.55 271.81 382.44
  C 270.68 382.31 270.07 380.92 270.00 378.25
  L 269.79 370.75
  C 269.47 363.21 269.04 357.88 268.50 354.75
  C 266.36 342.32 264.79 329.82 263.79 317.25
  C 264.58 317.50 264.94 317.18 264.88 316.31
  C 264.87 316.08 265.08 315.90 265.29 315.97
  C 267.71 316.72 270.20 317.00 272.75 316.80
  C 275.89 316.55 277.72 317.95 278.25 321.00
  C 278.83 324.37 279.25 327.75 279.50 331.15
  C 279.81 335.46 280.12 338.84 280.41 341.31
  C 281.32 349.07 281.79 356.86 281.81 364.69
  C 281.81 365.04 281.99 365.34 282.25 365.44
  C 282.72 365.63 283.13 365.48 283.46 365.00
  Z"
/>
<path fill="#04a7c0" d="
  M 352.83 324.63
  C 354.07 325.36 354.85 326.58 355.18 328.27
  C 357.11 338.38 355.92 348.05 351.61 357.30
  C 348.34 364.31 343.90 370.49 338.30 375.83
  C 336.81 377.24 336.50 377.02 337.38 375.16
  C 339.21 371.30 341.06 367.43 342.94 363.54
  C 345.41 358.42 347.08 354.47 347.94 351.69
  C 349.45 346.86 350.22 342.38 350.25 338.25
  C 350.30 331.90 348.47 325.85 344.74 320.12
  C 344.52 319.79 344.58 319.72 344.92 319.92
  L 352.83 324.63
  Z"
/>
<path fill="#04a7c0" d="
  M 191.00 319.96
  C 192.65 320.55 194.19 321.32 195.62 322.27
  C 197.24 323.34 198.69 324.24 199.97 324.97
  C 201.99 326.13 203.82 327.56 205.46 329.25
  C 204.31 330.85 201.89 333.75 198.19 337.94
  C 195.66 340.81 193.02 343.14 190.28 344.95
  C 188.68 346.01 185.51 347.43 180.77 349.22
  C 177.15 350.58 172.98 352.26 168.25 354.25
  C 163.27 356.34 157.89 358.15 152.10 359.66
  C 146.50 361.12 140.92 362.08 135.37 362.55
  C 125.38 363.39 115.59 363.04 106.00 361.50
  C 104.31 361.23 102.64 360.32 101.00 358.79
  C 114.59 360.34 127.41 358.72 139.44 353.94
  C 151.71 349.06 163.06 341.84 173.50 332.29
  C 173.36 333.20 173.69 333.52 174.50 333.25
  C 176.40 332.60 177.68 332.03 178.34 331.56
  C 182.99 328.17 187.21 324.31 191.00 319.96
  Z"
/>
<path fill="#05b2e7" d="
  M 269.79 370.75
  L 270.00 378.25
  C 270.07 380.92 270.68 382.31 271.81 382.44
  C 272.75 382.55 273.51 382.95 274.10 383.66
  C 274.24 383.83 274.44 383.94 274.66 383.95
  C 275.33 383.99 275.38 384.15 274.83 384.43
  C 274.66 384.52 274.65 384.62 274.82 384.73
  C 276.67 385.88 278.71 386.39 280.96 386.25
  L 274.99 411.75
  C 271.92 419.12 268.36 425.64 264.31 431.31
  C 253.76 446.10 239.49 455.72 221.51 460.18
  C 221.32 460.23 221.14 460.25 220.99 460.24
  C 220.31 460.20 220.36 459.94 221.15 459.46
  C 228.38 455.03 235.04 449.97 241.12 444.26
  C 249.34 438.91 255.67 431.87 260.12 423.15
  C 265.25 413.08 268.30 402.94 269.25 392.75
  C 269.76 387.32 269.94 379.98 269.79 370.75
  Z"
/>
</svg>
