<svg width="63" height="134" viewBox="0 0 63 134" fill="none" xmlns="http://www.w3.org/2000/svg">
<path d="M42.9871 16.3857C49.0588 16.3857 53.981 21.3079 53.981 27.3796V29.5784H31.9932V27.3796C31.9932 21.3079 36.9153 16.3857 42.9871 16.3857Z" fill="#E8CC97"/>
<path d="M42.9871 16.3857C47.8445 16.3857 51.7822 20.3234 51.7822 25.1809V29.5784H31.9932V27.3796C31.9932 21.3079 36.9154 16.3857 42.9871 16.3857Z" fill="#7D4A3B"/>
<path d="M42.2543 16.3857C45.0878 16.3857 47.3848 18.6827 47.3848 21.5162V29.5784H31.9933V26.6467C31.9933 20.9797 36.5873 16.3857 42.2543 16.3857Z" fill="#B77562"/>
<path d="M42.9871 117.529C49.0588 117.529 53.981 112.607 53.981 106.535V104.337H31.9932V106.535C31.9932 112.607 36.9153 117.529 42.9871 117.529Z" fill="#E8CC97"/>
<path d="M42.9871 117.529C47.8445 117.529 51.7822 113.592 51.7822 108.734V104.337H31.9932V106.535C31.9932 112.607 36.9154 117.529 42.9871 117.529Z" fill="#7D4A3B"/>
<path d="M42.2543 117.529C45.0878 117.529 47.3848 115.232 47.3848 112.399V104.337H31.9933V107.268C31.9933 112.935 36.5873 117.529 42.2543 117.529Z" fill="#B77562"/>
<path d="M45.1857 27.3799C54.9005 27.3799 62.7759 35.2553 62.7759 44.9701L62.7759 88.9457C62.7759 98.6605 54.9005 106.536 45.1857 106.536H29.7942C11.5789 106.536 -3.18747 91.7695 -3.18747 73.5542V60.3616C-3.18747 42.1463 11.5789 27.3799 29.7942 27.3799L45.1857 27.3799Z" fill="#E8CC97"/>
<path d="M25.3968 67.063C30.2542 67.063 34.1919 71.0007 34.1919 75.8581V97.8432C34.1919 102.679 30.2719 106.599 25.4364 106.599C9.62795 106.599 -3.18733 93.7834 -3.18733 77.975V67.063H25.3968Z" fill="#FAE9C8"/>
<path d="M25.3968 67.063C30.2542 67.063 34.1919 63.1253 34.1919 58.2679V36.2828C34.1919 31.4472 30.2719 27.5273 25.4364 27.5273C9.62795 27.5273 -3.18733 40.3426 -3.18733 56.151V67.063H25.3968Z" fill="#FAE9C8"/>
<path d="M34.8686 36.1748C29.6376 36.1748 25.397 40.4154 25.397 45.6465V50.8333C25.397 54.8812 28.6784 58.1626 32.7262 58.1626H33.0927C37.3429 58.1626 40.7884 54.7171 40.7884 50.4669V42.0946C40.7884 38.8252 38.138 36.1748 34.8686 36.1748Z" fill="#B77562"/>
<circle cx="33.0929" cy="50.4672" r="5.49695" transform="rotate(90 33.0929 50.4672)" fill="#7D4A3B"/>
<circle cx="35.2912" cy="52.6658" r="1.09939" transform="rotate(90 35.2912 52.6658)" fill="white"/>
<path d="M34.8686 97.7412C29.6376 97.7412 25.397 93.5006 25.397 88.2696V83.0827C25.397 79.0348 28.6784 75.7534 32.7262 75.7534H33.0927C37.3429 75.7534 40.7884 79.1989 40.7884 83.4492V91.8214C40.7884 95.0908 38.138 97.7412 34.8686 97.7412Z" fill="#B77562"/>
<circle cx="33.0929" cy="83.4486" r="5.49695" transform="rotate(90 33.0929 83.4486)" fill="#7D4A3B"/>
<circle cx="35.2912" cy="81.2503" r="1.09939" transform="rotate(90 35.2912 81.2503)" fill="white"/>
<path d="M22.2556 58.1626C17.9186 58.1626 14.4028 61.6784 14.4028 66.0154V67.9C14.4028 72.237 17.9186 75.7528 22.2556 75.7528C23.9904 75.7528 25.3967 74.3465 25.3967 72.6117V61.3037C25.3967 59.5689 23.9904 58.1626 22.2556 58.1626Z" fill="#7D4A3B"/>
<path d="M14.4028 51.5664L11.6747 54.7492C10.5974 56.006 10.0053 57.6068 10.0053 59.2621V59.2621C10.0053 60.9175 10.5974 62.5182 11.6747 63.775L14.4028 66.9579" stroke="#7D4A3B" stroke-width="2.19878" stroke-linecap="round"/>
<path d="M14.4028 82.3491L11.6747 79.1663C10.5974 77.9095 10.0053 76.3087 10.0053 74.6534V74.6534C10.0053 72.9981 10.5974 71.3973 11.6747 70.1405L14.4028 66.9577" stroke="#7D4A3B" stroke-width="2.19878" stroke-linecap="round"/>
<path d="M5.60791 62.5605L5.60791 71.3557" stroke="#E8CC97" stroke-width="2.19878" stroke-linecap="round"/>
<path d="M-25.0148 58.4386C-36.2286 59.9247 -46.5238 52.0389 -48.0098 40.8251C-49.4959 29.6114 -41.6101 19.3162 -30.3963 17.8301L-10.0921 15.1394C1.12164 13.6533 11.4169 21.5392 12.9029 32.7529C14.389 43.9666 6.50315 54.2618 -4.71058 55.7479L-25.0148 58.4386Z" fill="#B77562"/>
<path d="M-14.9473 24.8364L5.44475 22.921" stroke="#7D4A3B" stroke-width="3.13371" stroke-linecap="round"/>
<path d="M-13.1943 47.7725L7.19768 45.8571" stroke="#7D4A3B" stroke-width="3.13371" stroke-linecap="round"/>
<rect width="40.9635" height="61.4453" rx="20.4818" transform="matrix(-0.131373 0.991333 0.991333 0.131373 -45.3191 72.8706)" fill="#B77562"/>
<path d="M-14.9473 109.164L5.44475 111.079" stroke="#7D4A3B" stroke-width="3.13371" stroke-linecap="round"/>
<path d="M-13.1943 86.2275L7.19768 88.1429" stroke="#7D4A3B" stroke-width="3.13371" stroke-linecap="round"/>
</svg>
