<svg width="390" height="378" viewBox="0 0 390 378" fill="none" xmlns="http://www.w3.org/2000/svg">
<path d="M395 356.508C395 466.039 302.368 556 193.751 556C85.1339 556 -5 467.606 -5 358.075C-5 248.544 84.4412 156 193.058 156C301.675 156 395 246.977 395 356.508Z" fill="#EDEDED"/>
<path d="M86.1865 301.451C86.1865 241.392 134.874 192.705 194.933 192.705V192.705C254.992 192.705 303.679 241.392 303.679 301.451V348.057C303.679 390.956 268.902 425.733 226.003 425.733H163.862C120.963 425.733 86.1865 390.956 86.1865 348.057V301.451Z" fill="#14690C"/>
<path d="M133.569 182.606H255.52V548.848C255.52 582.524 228.22 609.824 194.544 609.824V609.824C160.868 609.824 133.569 582.524 133.569 548.848V182.606Z" fill="#E8CC97"/>
<path d="M295 283.571C295 308.661 274.661 329 249.571 329H197V223H234.429C267.881 223 295 250.119 295 283.571V283.571Z" fill="#E8CC97"/>
<path d="M85.4099 311.77C85.4099 348.541 115.218 378.35 151.989 378.35H194.933V222.998H174.182C125.155 222.998 85.4099 262.743 85.4099 311.77V311.77Z" fill="#E8CC97"/>
<path d="M148.327 269.216C148.327 243.691 169.019 222.999 194.544 222.999V222.999C220.069 222.999 240.761 243.691 240.761 269.216V563.607C240.761 589.132 220.069 609.825 194.544 609.825V609.825C169.019 609.825 148.327 589.133 148.327 563.608V269.216Z" fill="#FAE9C8"/>
<path d="M259.22 249.788L267.035 235.487C267.896 233.913 268.346 232.148 268.346 230.354C268.346 223.194 261.451 218.053 254.589 220.097L253.811 220.329C251.401 221.047 249.299 222.547 247.838 224.593L240.052 235.493C233.952 244.033 230.674 254.264 230.674 264.758V297.947V347.986C230.674 353.226 232.857 358.229 236.698 361.794L258.866 382.362C262.477 385.712 268.346 383.152 268.346 378.226C268.346 377.039 267.972 375.882 267.276 374.92L259.22 363.777C253.286 355.572 250.093 345.704 250.093 335.579V309.598V285.52C250.093 273.033 253.231 260.746 259.22 249.788Z" fill="#3D9B35"/>
<path d="M129.491 249.797L121.675 235.495C120.815 233.921 120.364 232.156 120.364 230.363C120.364 223.202 127.259 218.062 134.121 220.106L134.899 220.338C137.309 221.055 139.411 222.556 140.873 224.602L148.658 235.502C154.758 244.041 158.037 254.273 158.037 264.767V297.956V347.994C158.037 353.235 155.853 358.238 152.012 361.803L129.844 382.371C126.233 385.721 120.364 383.16 120.364 378.235C120.364 377.047 120.738 375.891 121.434 374.929L129.491 363.786C135.424 355.581 138.618 345.713 138.618 335.587V309.607V285.529C138.618 273.041 135.479 260.754 129.491 249.797Z" fill="#3D9B35"/>
<rect x="115.704" y="321.927" width="62.1407" height="93.211" rx="31.0703" transform="rotate(-20 115.704 321.927)" fill="#B77562"/>
<path d="M179.398 355.048L188.905 384.628" stroke="#7D4A3B" stroke-width="4.75376" stroke-linecap="round"/>
<path d="M145.997 365.146L155.504 394.727" stroke="#7D4A3B" stroke-width="4.75376" stroke-linecap="round"/>
<path d="M75.835 83.963C75.835 69.7038 87.3943 58.1445 101.653 58.1445H106.817V109.781H101.653C87.3943 109.781 75.835 98.2221 75.835 83.963V83.963Z" fill="#E8CC97"/>
<path d="M75.835 83.9624C75.835 72.5551 85.0824 63.3076 96.4897 63.3076H106.817V109.781H101.653C87.3943 109.781 75.835 98.2215 75.835 83.9624V83.9624Z" fill="#7D4A3B"/>
<path d="M75.835 85.6844C75.835 79.0301 81.2293 73.6357 87.8836 73.6357H106.817V109.782H99.9322C86.6237 109.782 75.835 98.9929 75.835 85.6844V85.6844Z" fill="#B77562"/>
<path d="M313.365 83.963C313.365 69.7038 301.805 58.1445 287.546 58.1445H282.382V109.781H287.546C301.805 109.781 313.365 98.2221 313.365 83.963V83.963Z" fill="#E8CC97"/>
<path d="M313.365 83.9624C313.365 72.5551 304.117 63.3076 292.71 63.3076H282.383V109.781H287.546C301.805 109.781 313.365 98.2215 313.365 83.9624V83.9624Z" fill="#7D4A3B"/>
<path d="M313.365 85.6844C313.365 79.0301 307.97 73.6357 301.316 73.6357H282.383V109.782H289.268C302.576 109.782 313.365 98.9929 313.365 85.6844V85.6844Z" fill="#B77562"/>
<path d="M101.654 78.7996C101.654 55.985 120.148 37.4901 142.963 37.4901H246.237C269.051 37.4901 287.546 55.985 287.546 78.7996V114.945C287.546 157.723 252.868 192.401 210.091 192.401H179.109C136.332 192.401 101.654 157.723 101.654 114.945V78.7996Z" fill="#E8CC97"/>
<path d="M194.848 125.272C194.848 113.865 204.096 104.617 215.503 104.617H267.134C278.489 104.617 287.695 113.823 287.695 125.179V125.179C287.695 162.304 257.599 192.4 220.474 192.4H194.848V125.272Z" fill="#FAE9C8"/>
<path d="M194.848 125.272C194.848 113.865 185.601 104.617 174.193 104.617H122.563C111.207 104.617 102.001 113.823 102.001 125.179V125.179C102.001 162.304 132.097 192.4 169.222 192.4H194.848V125.272Z" fill="#FAE9C8"/>
<path d="M147.161 165.289L147.195 165.382C148.377 168.625 150.781 171.278 153.893 172.774V172.774" stroke="#E8CC97" stroke-width="5.16369" stroke-linecap="round"/>
<path d="M244.019 150.875L244.637 148.965C245.942 144.929 244.515 140.51 241.096 138V138" stroke="#E8CC97" stroke-width="5.16369" stroke-linecap="round"/>
<path d="M122.308 103.029C122.308 115.314 132.267 125.272 144.552 125.272H156.733C166.239 125.272 173.945 117.566 173.945 108.06V107.2C173.945 97.2182 165.853 89.1266 155.872 89.1266H136.21C128.532 89.1266 122.308 95.3509 122.308 103.029V103.029Z" fill="#B77562"/>
<circle cx="156.909" cy="106.909" r="12.9092" fill="#7D4A3B"/>
<circle cx="162.073" cy="101.746" r="2.58184" fill="white"/>
<path d="M266.892 103.029C266.892 115.314 256.933 125.272 244.648 125.272H232.467C222.961 125.272 215.255 117.566 215.255 108.06V107.2C215.255 97.2182 223.346 89.1266 233.328 89.1266H252.989C260.667 89.1266 266.892 95.3509 266.892 103.029V103.029Z" fill="#B77562"/>
<circle cx="233.328" cy="107.2" r="12.9092" fill="#7D4A3B"/>
<circle cx="228.164" cy="102.037" r="2.58184" fill="white"/>
<path d="M173.945 132.65C173.945 142.835 182.202 151.092 192.387 151.092H196.813C206.998 151.092 215.255 142.835 215.255 132.65V132.65C215.255 128.576 211.952 125.273 207.878 125.273H181.322C177.248 125.273 173.945 128.576 173.945 132.65V132.65Z" fill="#7D4A3B"/>
<path d="M226 150L217.628 153.841C215.238 154.938 212.638 155.506 210.008 155.506V155.506C205.719 155.506 201.566 153.997 198.278 151.244L195 148.5L191.265 153.273C187.871 157.61 183.019 160.568 177.609 161.598V161.598C176.206 161.865 174.781 162 173.353 162L168 162" stroke="#7D4A3B" stroke-width="5.16369" stroke-linecap="round"/>
<path d="M195.307 41.3095C195.307 18.4949 213.802 0 236.617 0V0V0C236.617 22.8146 218.122 41.3095 195.307 41.3095V41.3095V41.3095Z" fill="#E8CC97"/>
<path d="M195.307 41.3095C195.307 18.4949 176.812 0 153.998 0V0V0C153.998 22.8146 172.493 41.3095 195.307 41.3095V41.3095V41.3095Z" fill="#E8CC97"/>
<path d="M204 302.476L198.511 292.544C193.54 283.551 190.149 273.772 188.484 263.632L186.521 251.671C186.174 249.561 186 247.425 186 245.286V236.345C186 226.113 192.06 216.852 201.436 212.755C218.443 205.323 237.489 217.784 237.489 236.345V240.545C237.489 242.878 237.202 245.202 236.635 247.465L236.208 249.171C235.738 251.05 235.5 252.979 235.5 254.916C235.5 258.588 236.355 262.21 237.997 265.494L239 267.5L239.36 268.375C241.335 273.17 245.469 276.742 250.5 278C253.623 278.542 255.829 281.36 255.604 284.522L252.5 328.126L236.62 325.505C230.601 324.512 224.841 322.325 219.678 319.075C213.134 314.954 207.741 309.244 204 302.476Z" fill="#E8CC97" stroke="#E8CC97"/>
<rect x="248.884" y="259.772" width="62.1407" height="93.211" rx="31.0703" transform="rotate(165.453 248.884 259.772)" fill="#B77562"/>
<path d="M188.626 220.748L181.973 190.398" stroke="#7D4A3B" stroke-width="4.75376" stroke-linecap="round"/>
<path d="M222.835 213.869L216.182 183.52" stroke="#7D4A3B" stroke-width="4.75376" stroke-linecap="round"/>
</svg>
