<svg width="258" height="275" viewBox="0 0 258 275" fill="none" xmlns="http://www.w3.org/2000/svg">
<path d="M258 128.001C258 197.923 198.368 255.352 128.446 255.352C58.5237 255.352 0.5 198.923 0.5 129.001C0.5 59.0788 58.0778 0.000976562 128 0.000976562C197.922 0.000976562 258 58.0788 258 128.001Z" fill="#585858"/>
<ellipse cx="128.446" cy="111.796" rx="126.605" ry="109.654" fill="#393635"/>
<g clip-path="url(#clip0_332_838)">
<path d="M108.454 163.126H151.243V247.316C151.243 259.132 141.665 268.71 129.849 268.71C118.033 268.71 108.454 259.132 108.454 247.316V163.126Z" fill="#E8CC97"/>
<path d="M113.455 193.134C113.455 184.234 120.67 177.019 129.571 177.019C138.471 177.019 145.686 184.234 145.686 193.134V255.373C145.686 264.274 138.471 271.489 129.571 271.489C120.67 271.489 113.455 264.274 113.455 255.373V193.134Z" fill="#FAE9C8"/>
<path d="M91.275 214.084C91.275 223.981 99.2987 232.005 109.196 232.005H113.261V177.039C101.119 177.039 91.275 186.883 91.275 199.026V214.084Z" fill="#E8CC97"/>
<rect x="101.911" y="212.012" width="21.8492" height="32.7738" rx="10.9246" transform="rotate(-20 101.911 212.012)" fill="#B77562"/>
<path d="M124.306 223.657L127.649 234.058" stroke="#7D4A3B" stroke-width="1.67146" stroke-linecap="round"/>
<path d="M112.562 227.207L115.905 237.608" stroke="#7D4A3B" stroke-width="1.67146" stroke-linecap="round"/>
<path d="M168.227 214.084C168.227 223.981 160.203 232.005 150.305 232.005H146.241V177.039C158.383 177.039 168.227 186.883 168.227 199.026V214.084Z" fill="#E8CC97"/>
<rect width="21.8492" height="32.7738" rx="10.9246" transform="matrix(-0.939693 -0.34202 -0.34202 0.939693 157.413 212.012)" fill="#B77562"/>
<path d="M135.017 223.657L131.674 234.058" stroke="#7D4A3B" stroke-width="1.67146" stroke-linecap="round"/>
<path d="M146.761 227.207L143.418 237.608" stroke="#7D4A3B" stroke-width="1.67146" stroke-linecap="round"/>
<path d="M87.8928 128.34C87.8928 123.326 91.9572 119.262 96.9708 119.262H98.7864V137.418H96.9708C91.9572 137.418 87.8928 133.353 87.8928 128.34Z" fill="#E8CC97"/>
<path d="M87.8928 128.34C87.8928 124.329 91.1443 121.077 95.1552 121.077H98.7864V137.418H96.9708C91.9572 137.418 87.8928 133.353 87.8928 128.34Z" fill="#7D4A3B"/>
<path d="M87.8928 128.944C87.8928 126.605 89.7895 124.708 92.1292 124.708H98.7864V137.417H96.3656C91.6862 137.417 87.8928 133.624 87.8928 128.944Z" fill="#B77562"/>
<path d="M171.41 128.339C171.41 123.325 167.346 119.261 162.332 119.261H160.516V137.417H162.332C167.346 137.417 171.41 133.352 171.41 128.339Z" fill="#E8CC97"/>
<path d="M171.41 128.339C171.41 124.328 168.159 121.076 164.148 121.076H160.517V137.417H162.332C167.346 137.417 171.41 133.352 171.41 128.339Z" fill="#7D4A3B"/>
<path d="M171.41 128.943C171.41 126.604 169.513 124.707 167.174 124.707H160.517V137.416H162.937C167.617 137.416 171.41 133.623 171.41 128.943Z" fill="#B77562"/>
<path d="M96.9707 126.525C96.9707 118.503 103.474 112 111.495 112H147.808C155.829 112 162.332 118.503 162.332 126.525V139.234C162.332 154.275 150.139 166.468 135.098 166.468H124.205C109.164 166.468 96.9707 154.275 96.9707 139.234V126.525Z" fill="#E8CC97"/>
<path d="M129.739 142.866C129.739 138.855 132.99 135.604 137.001 135.604H155.155C159.148 135.604 162.385 138.84 162.385 142.833C162.385 155.887 151.803 166.469 138.749 166.469H129.739V142.866Z" fill="#FAE9C8"/>
<path d="M129.739 142.866C129.739 138.855 126.487 135.604 122.476 135.604H104.323C100.33 135.604 97.093 138.84 97.093 142.833C97.093 155.887 107.675 166.469 120.729 166.469H129.739V142.866Z" fill="#FAE9C8"/>
<path d="M104.233 135.045C104.233 139.365 107.734 142.866 112.054 142.866H116.337C119.679 142.866 122.389 140.157 122.389 136.814V136.512C122.389 133.002 119.544 130.157 116.034 130.157H109.121C106.421 130.157 104.233 132.346 104.233 135.045Z" fill="#B77562"/>
<circle cx="116.034" cy="136.512" r="4.539" fill="#7D4A3B"/>
<circle cx="114.363" cy="138.471" r="0.9078" fill="white"/>
<path d="M155.07 135.045C155.07 139.365 151.568 142.866 147.249 142.866H142.966C139.624 142.866 136.914 140.157 136.914 136.814V136.512C136.914 133.002 139.759 130.157 143.269 130.157H150.182C152.881 130.157 155.07 132.346 155.07 135.045Z" fill="#B77562"/>
<circle cx="143.268" cy="136.512" r="4.539" fill="#7D4A3B"/>
<circle cx="141.652" cy="138.626" r="0.9078" fill="white"/>
<path d="M122.389 145.459C122.389 149.04 125.292 151.943 128.873 151.943H130.43C134.011 151.943 136.914 149.04 136.914 145.459C136.914 144.027 135.753 142.865 134.32 142.865H124.983C123.55 142.865 122.389 144.027 122.389 145.459Z" fill="#7D4A3B"/>
<path d="M116.942 151.943L119.57 154.196C120.608 155.086 121.93 155.575 123.297 155.575V155.575C124.664 155.575 125.986 155.086 127.023 154.196L129.651 151.943" stroke="#7D4A3B" stroke-width="1.8156" stroke-linecap="round"/>
<path d="M142.361 151.943L139.733 154.196C138.695 155.086 137.373 155.575 136.006 155.575V155.575C134.639 155.575 133.318 155.086 132.28 154.196L129.652 151.943" stroke="#7D4A3B" stroke-width="1.8156" stroke-linecap="round"/>
<path d="M126.02 159.206H133.283" stroke="#E8CC97" stroke-width="1.8156" stroke-linecap="round"/>
<path d="M82.3353 185.354V188.324C82.3353 193.598 85.3309 198.414 90.0613 200.745L123.416 217.185C126.02 218.468 129.113 216.802 129.473 213.922C129.537 213.404 129.506 212.879 129.379 212.374L128.413 208.509C128.074 207.154 127.588 205.84 126.964 204.591C125.052 200.768 121.916 197.694 118.055 195.86L117.022 195.37C114.301 194.077 111.349 193.345 108.339 193.217L106.032 193.119C101.938 192.945 97.9101 192.028 94.144 190.414L82.3353 185.354Z" fill="#FFFDFD" stroke="#AFAFAF" stroke-width="0.138927"/>
<path d="M176.806 185.354V188.324C176.806 193.598 173.81 198.414 169.08 200.745L135.725 217.185C133.121 218.468 130.029 216.802 129.669 213.922C129.604 213.404 129.636 212.879 129.762 212.374L130.728 208.509C131.067 207.154 131.553 205.84 132.178 204.591C134.089 200.768 137.225 197.694 141.087 195.86L142.119 195.37C144.84 194.077 147.793 193.345 150.802 193.217L153.109 193.119C157.203 192.945 161.231 192.028 164.997 190.414L176.806 185.354Z" fill="#FFFDFD" stroke="#AFAFAF" stroke-width="0.138927"/>
<path d="M73.9999 246.752V185.354L124.014 212.583V274.267L73.9999 246.752Z" fill="#BF9F92"/>
<path d="M185.141 246.752V185.354L135.128 212.583V274.267L185.141 246.752Z" fill="#BF9F92"/>
<rect x="124.014" y="212.583" width="11.1142" height="61.6836" fill="#DBBDB4"/>
<path d="M98.4512 118.669L102.897 134.784" stroke="#AC4644" stroke-width="1.66712" stroke-linecap="round"/>
<path d="M123.18 136.452C123.18 141.803 118.723 146.177 113.178 146.177C107.633 146.177 103.175 141.803 103.175 136.452C103.175 131.101 107.633 126.727 113.178 126.727C118.723 126.727 123.18 131.101 123.18 136.452Z" fill="#CCE5E6" fill-opacity="0.45" stroke="#AC4644" stroke-width="1.66712"/>
<path d="M155.967 135.341C155.967 140.691 151.509 145.066 145.964 145.066C140.419 145.066 135.961 140.691 135.961 135.341C135.961 129.99 140.419 125.616 145.964 125.616C151.509 125.616 155.967 129.99 155.967 135.341Z" fill="#CCE5E6" fill-opacity="0.45" stroke="#AC4644" stroke-width="1.66712"/>
<path d="M122.347 139.231H125.672C126.397 139.231 127.101 138.984 127.667 138.531V138.531C128.791 137.631 130.378 137.595 131.542 138.442L131.714 138.566C132.308 138.998 133.023 139.231 133.757 139.231H136.517" stroke="#AC4644" stroke-width="1.66712"/>
<path d="M160.691 119.226L156.245 134.23" stroke="#AC4644" stroke-width="1.66712" stroke-linecap="round"/>
</g>
<path d="M129.637 114.034C129.637 107.388 135.025 102 141.671 102H143.275C143.275 108.646 137.887 114.034 131.241 114.034H129.637Z" fill="#E8CC97"/>
<path d="M129.637 114.034C129.637 107.388 124.25 102 117.604 102H116C116 108.646 121.388 114.034 128.033 114.034H129.637Z" fill="#E8CC97"/>
<defs>
<clipPath id="clip0_332_838">
<rect width="111.142" height="162.267" fill="white" transform="translate(74 112)"/>
</clipPath>
</defs>
</svg>
