<svg width="390" height="384" viewBox="0 0 390 384" fill="none" xmlns="http://www.w3.org/2000/svg">
<path d="M395 343.508C395 453.039 302.368 543 193.751 543C85.1339 543 -5 454.606 -5 345.075C-5 235.544 84.4412 143 193.058 143C301.675 143 395 233.977 395 343.508Z" fill="#EDEDED"/>
<path d="M86.187 288.451C86.187 228.392 134.874 179.705 194.933 179.705C254.992 179.705 303.679 228.392 303.679 288.451V335.057C303.679 377.956 268.903 412.733 226.004 412.733H163.863C120.964 412.733 86.187 377.956 86.187 335.057V288.451Z" fill="#14690C"/>
<path d="M133.569 169.606H255.52V535.848C255.52 569.524 228.22 596.824 194.544 596.824C160.869 596.824 133.569 569.524 133.569 535.848V169.606Z" fill="#E8CC97"/>
<path d="M85.4102 298.77C85.4102 335.541 115.219 365.35 151.989 365.35H194.933V209.998H174.182C125.155 209.998 85.4102 249.743 85.4102 298.77Z" fill="#E8CC97"/>
<path d="M304.457 298.769C304.457 335.54 274.648 365.349 237.878 365.349H194.934V209.997H215.685C264.712 209.997 304.457 249.742 304.457 298.769Z" fill="#E8CC97"/>
<path d="M148.328 256.216C148.328 230.691 169.02 209.999 194.545 209.999C220.07 209.999 240.762 230.691 240.762 256.216V550.607C240.762 576.133 220.07 596.825 194.545 596.825C169.02 596.825 148.328 576.133 148.328 550.608V256.216Z" fill="#FAE9C8"/>
<path d="M129.491 236.797L121.675 222.495C120.815 220.921 120.364 219.156 120.364 217.363C120.364 210.202 127.259 205.062 134.121 207.106L134.899 207.338C137.309 208.055 139.411 209.556 140.873 211.602L148.658 222.502C154.758 231.041 158.037 241.273 158.037 251.767V284.956V334.994C158.037 340.235 155.853 345.238 152.012 348.803L129.844 369.371C126.233 372.721 120.364 370.16 120.364 365.235C120.364 364.047 120.738 362.891 121.434 361.929L129.491 350.786C135.424 342.581 138.618 332.713 138.618 322.587V296.607V272.529C138.618 260.041 135.479 247.754 129.491 236.797Z" fill="#3D9B35"/>
<path d="M259.21 236.797L267.025 222.495C267.886 220.921 268.336 219.156 268.336 217.363C268.336 210.202 261.441 205.062 254.579 207.106L253.801 207.338C251.391 208.055 249.289 209.556 247.828 211.602L240.042 222.502C233.942 231.041 230.664 241.273 230.664 251.767V284.956V334.994C230.664 340.235 232.847 345.238 236.688 348.803L258.856 369.371C262.467 372.721 268.336 370.16 268.336 365.235C268.336 364.047 267.962 362.891 267.266 361.929L259.21 350.786C253.276 342.581 250.083 332.713 250.083 322.587V296.607V272.529C250.083 260.041 253.221 247.754 259.21 236.797Z" fill="#3D9B35"/>
<rect x="115.704" y="308.927" width="62.1407" height="93.211" rx="31.0703" transform="rotate(-20 115.704 308.927)" fill="#B77562"/>
<path d="M179.398 342.048L188.905 371.628" stroke="#7D4A3B" stroke-width="4.75376" stroke-linecap="round"/>
<path d="M145.997 352.146L155.504 381.727" stroke="#7D4A3B" stroke-width="4.75376" stroke-linecap="round"/>
<rect width="62.1407" height="93.211" rx="31.0703" transform="matrix(-0.939693 -0.34202 -0.34202 0.939693 273.556 308.924)" fill="#B77562"/>
<path d="M209.861 342.045L200.354 371.625" stroke="#7D4A3B" stroke-width="4.75376" stroke-linecap="round"/>
<path d="M243.262 352.144L233.755 381.724" stroke="#7D4A3B" stroke-width="4.75376" stroke-linecap="round"/>
<path d="M75.8301 83.963C75.8301 69.7038 87.3894 58.1445 101.649 58.1445H106.812V109.781H101.649C87.3894 109.781 75.8301 98.2221 75.8301 83.963Z" fill="#E8CC97"/>
<path d="M75.8301 83.9624C75.8301 72.5551 85.0775 63.3076 96.4848 63.3076H106.812V109.781H101.649C87.3894 109.781 75.8301 98.2215 75.8301 83.9624Z" fill="#7D4A3B"/>
<path d="M75.8301 85.6844C75.8301 79.0301 81.2244 73.6357 87.8787 73.6357H106.812V109.782H99.9273C86.6188 109.782 75.8301 98.9929 75.8301 85.6844Z" fill="#B77562"/>
<path d="M313.359 83.963C313.359 69.7038 301.8 58.1445 287.541 58.1445H282.377V109.781H287.541C301.8 109.781 313.359 98.2221 313.359 83.963Z" fill="#E8CC97"/>
<path d="M313.36 83.9624C313.36 72.5551 304.112 63.3076 292.705 63.3076H282.378V109.781H287.541C301.801 109.781 313.36 98.2215 313.36 83.9624Z" fill="#7D4A3B"/>
<path d="M313.36 85.6844C313.36 79.0301 307.966 73.6357 301.311 73.6357H282.378V109.782H289.263C302.571 109.782 313.36 98.9929 313.36 85.6844Z" fill="#B77562"/>
<path d="M101.649 78.7998C101.649 55.9851 120.144 37.4902 142.958 37.4902H246.232C269.047 37.4902 287.542 55.9851 287.542 78.7997V114.946C287.542 157.723 252.864 192.401 210.086 192.401H179.104C136.327 192.401 101.649 157.723 101.649 114.946V78.7998Z" fill="#E8CC97"/>
<path d="M194.843 125.272C194.843 113.865 204.091 104.617 215.498 104.617H267.129C278.485 104.617 287.69 113.823 287.69 125.179C287.69 162.304 257.595 192.4 220.469 192.4H194.843V125.272Z" fill="#FAE9C8"/>
<path d="M194.843 125.272C194.843 113.865 185.596 104.617 174.189 104.617H122.558C111.202 104.617 101.996 113.823 101.996 125.179C101.996 162.304 132.092 192.4 169.217 192.4H194.843V125.272Z" fill="#FAE9C8"/>
<path d="M122.303 103.029C122.303 115.314 132.262 125.273 144.547 125.273H156.728C166.234 125.273 173.94 117.567 173.94 108.061V107.2C173.94 97.2186 165.849 89.1271 155.867 89.1271H136.205C128.527 89.1271 122.303 95.3514 122.303 103.029Z" fill="#B77562"/>
<circle cx="155.867" cy="107.201" r="12.9092" fill="#7D4A3B"/>
<circle cx="161.031" cy="102.037" r="2.58184" fill="white"/>
<path d="M266.886 103.029C266.886 115.314 256.927 125.273 244.643 125.273H232.462C222.956 125.273 215.249 117.567 215.249 108.061V107.2C215.249 97.2186 223.341 89.1271 233.322 89.1271H252.984C260.662 89.1271 266.886 95.3514 266.886 103.029Z" fill="#B77562"/>
<path d="M243.862 98.0399L228.829 105.803L245.821 111.397" stroke="#7D4A3B" stroke-width="5.16" stroke-linecap="round"/>
<path d="M182.377 155.684C179.927 160.38 183.334 166 188.63 166H200.006C205.362 166 208.731 160.226 206.096 155.563C205.713 154.885 205.065 154.398 204.308 154.217L194.995 152L184.303 154.228C183.475 154.4 182.768 154.935 182.377 155.684Z" fill="#393635"/>
<path d="M190.212 151.657C186.988 153.448 188.409 158.366 192.091 158.161L194.995 158L197.745 158.162C201.404 158.377 202.898 153.541 199.754 151.656C199.584 151.553 199.436 151.415 199.323 151.251L194.995 145L190.68 151.234C190.558 151.409 190.398 151.554 190.212 151.657Z" fill="white"/>
<path d="M173.94 132.65C173.94 142.835 182.197 151.092 192.382 151.092H196.808C206.993 151.092 215.25 142.835 215.25 132.65C215.25 128.576 211.947 125.273 207.873 125.273H181.317C177.243 125.273 173.94 128.576 173.94 132.65Z" fill="#7D4A3B"/>
<path d="M179.995 160L180.726 160.731C188.759 168.763 201.881 168.43 209.495 160V160" stroke="#7D4A3B" stroke-width="5.16369" stroke-linecap="round"/>
<path d="M158.449 151.092L163.495 154.876C165.798 156.602 168.465 157.78 171.293 158.319V158.319C175.318 159.085 179.484 158.522 183.161 156.714L194.595 151.092" stroke="#7D4A3B" stroke-width="5.16369" stroke-linecap="round"/>
<path d="M231.141 151L226.095 154.784C223.792 156.511 221.125 157.688 218.298 158.227V158.227C214.272 158.994 210.106 158.43 206.429 156.622L194.995 151" stroke="#7D4A3B" stroke-width="5.16369" stroke-linecap="round"/>
<path d="M183.995 181L185.875 181.874C191.173 184.336 197.283 184.358 202.599 181.935L204.65 181" stroke="#E8CC97" stroke-width="5.16369" stroke-linecap="round"/>
<path d="M195.302 41.3095C195.302 18.4949 213.797 0 236.612 0C236.612 22.8146 218.117 41.3095 195.302 41.3095Z" fill="#E8CC97"/>
<path d="M195.302 41.3095C195.302 18.4949 176.807 0 153.993 0C153.993 22.8146 172.488 41.3095 195.302 41.3095Z" fill="#E8CC97"/>
<path d="M268.727 70.9242L264 72.697L268.727 74.4697L270.303 79L272.076 74.4697L277 72.303L272.076 70.9242L270.303 66L268.727 70.9242Z" fill="#CFA046"/>
<path d="M253 78.5L241 83L253 87.5L257 99L261.5 87.5L274 82L261.5 78.5L257 66L253 78.5Z" fill="#CFA046"/>
</svg>
